<svg aria-hidden="true" style="position: absolute; width: 0; height: 0; overflow: hidden;" version="1.1" xmlns="http://www.w3.org/2000/svg" xmlns:xlink="http://www.w3.org/1999/xlink">
<defs>
<symbol id="icon-magnifying-glass" viewBox="0 0 32 32">
<path d="M23 13c0-5.523-4.477-10-10-10s-10 4.477-10 10v0c0 5.523 4.477 10 10 10s10-4.477 10-10v0zM21.069 23.194c-2.212 1.756-5.019 2.806-8.069 2.806-7.181 0-13-5.819-13-13s5.819-13 13-13 13 5.819 13 13c0 3.050-1.050 5.856-2.806 8.069l8.369 8.369c0.587 0.587 0.587 1.538 0 2.119s-1.538 0.587-2.119 0l-8.375-8.363z"></path>
</symbol>
<symbol id="icon-shuffle" viewBox="0 0 32 32">
<path d="M26.563 1.938l5 5c0.587 0.588 0.587 1.537 0 2.119l-5 5c-0.587 0.588-1.538 0.588-2.119 0s-0.587-1.537 0-2.119l2.438-2.438h-4.881c-0.788 0-1.525 0.369-2 1l-2.875 3.831-1.875-2.5 2.35-3.131c1.038-1.388 2.669-2.2 4.4-2.2h4.881l-2.444-2.438c-0.587-0.587-0.587-1.538 0-2.119s1.538-0.587 2.119 0zM12.75 20.169l-2.35 3.131c-1.037 1.387-2.669 2.2-4.4 2.2h-4.5c-0.831 0-1.5-0.669-1.5-1.5s0.669-1.5 1.5-1.5h4.5c0.787 0 1.525-0.369 2-1l2.875-3.831 1.875 2.5zM24.438 17.938c0.587-0.587 1.538-0.587 2.119 0l5 5c0.587 0.587 0.587 1.538 0 2.119l-5 5c-0.587 0.587-1.538 0.587-2.119 0s-0.587-1.538 0-2.119l2.438-2.438h-4.875c-1.731 0-3.363-0.813-4.4-2.2l-9.6-12.8c-0.475-0.631-1.213-1-2-1h-4.5c-0.831 0-1.5-0.669-1.5-1.5s0.669-1.5 1.5-1.5h4.5c1.731 0 3.362 0.813 4.4 2.2l9.6 12.8c0.475 0.631 1.212 1 2 1h4.881l-2.438-2.438c-0.587-0.587-0.587-1.538 0-2.119z"></path>
</symbol>
</defs>
</svg>
