<svg aria-hidden="true" style="position: absolute; width: 0; height: 0; overflow: hidden;" version="1.1" xmlns="http://www.w3.org/2000/svg" xmlns:xlink="http://www.w3.org/1999/xlink">
<defs>
<symbol id="icon-piston" viewBox="0 0 32 32">
<path d="M17.918 12.755c-0.366 0.366-0.366 0.96 0 1.326s0.96 0.366 1.326 0 0.366-0.96 0-1.326c-0.366-0.366-0.96-0.366-1.326 0z"></path>
<path d="M4.574 23.444c-1.097 1.097-1.097 2.881 0 3.977s2.881 1.097 3.977 0c1.097-1.097 1.097-2.881 0-3.977s-2.881-1.097-3.977 0zM7.225 26.096c-0.365 0.365-0.961 0.365-1.326 0s-0.365-0.96 0-1.326c0.366-0.366 0.96-0.366 1.326 0s0.365 0.96 0 1.326z"></path>
<path d="M23.221 0.823c-1.097-1.096-2.881-1.096-3.977 0l-1.326 1.326c-0.366 0.366-0.366 0.96 0 1.326l0.663 0.663-1.326 1.326-0.663-0.663c-0.366-0.366-0.96-0.366-1.326 0l-6.629 6.629c-0.176 0.176-0.275 0.414-0.275 0.663s0.099 0.487 0.275 0.663l1.326 1.326c0.13 0.13 0.297 0.22 0.478 0.256 0.018 0.004 1.148 0.239 2.426 0.817l-4.099 4.096c-2.365-0.843-5.043-0.261-6.845 1.542-2.873 2.873-2.497 7.679 0.937 10.063 2.164 1.502 5.129 1.526 7.31 0.066 2.586-1.732 3.571-4.896 2.575-7.693 1.009-1.008 2.563-2.56 4.1-4.096 0.578 1.278 0.813 2.407 0.817 2.425 0.036 0.181 0.126 0.348 0.256 0.479l1.326 1.326c0.366 0.366 0.96 0.366 1.326 0l6.629-6.629c0.366-0.366 0.366-0.96 0-1.326l-0.663-0.663 1.326-1.326 0.663 0.663c0.366 0.366 0.96 0.366 1.326 0l1.326-1.326c1.099-1.099 1.099-2.878 0-3.977zM10.976 22.345c-0.281 0.281-0.354 0.708-0.183 1.067 1.014 2.122 0.312 4.625-1.668 5.951-1.536 1.029-3.673 1.009-5.197-0.048-2.526-1.753-2.687-5.19-0.681-7.197 1.403-1.403 3.547-1.771 5.336-0.916 0.358 0.171 0.786 0.098 1.067-0.183l4.9-4.897c0.253 0.186 0.494 0.39 0.715 0.611s0.424 0.462 0.611 0.715c-1.313 1.312-4.159 4.156-4.9 4.897zM19.906 21.373l-0.472-0.472c-0.467-1.917-1.431-4.083-2.843-5.494s-3.579-2.376-5.494-2.843l-0.472-0.472 5.303-5.303 9.281 9.281zM25.21 13.418l-6.629-6.629 1.326-1.326 6.629 6.629zM29.85 11.43l-0.663 0.663-8.617-8.617c-0-0-0-0-0-0s-0-0-0-0l-0.663-0.663 0.663-0.663c0.366-0.366 0.96-0.365 1.326 0l7.955 7.955c0.366 0.366 0.366 0.959 0 1.326z"></path>
</symbol>
<symbol id="icon-engine" viewBox="0 0 32 32">
<path d="M31 12h-3c-0.553 0-1 0.448-1 1v1h-1v-1c0-0.552-0.447-1-1-1h-1.586l-2.706-2.706c-0.092-0.093-0.203-0.166-0.326-0.217-0.122-0.050-0.252-0.077-0.382-0.077h-3v-2h2c0.553 0 1-0.448 1-1s-0.447-1-1-1h-9c-0.553 0-1 0.448-1 1s0.447 1 1 1h2v2h-3c-0.032 0-0.059 0.015-0.090 0.018-0.072 0.007-0.139 0.020-0.207 0.042-0.059 0.019-0.113 0.040-0.167 0.069-0.056 0.030-0.107 0.065-0.158 0.106-0.053 0.044-0.099 0.090-0.142 0.143-0.021 0.025-0.049 0.040-0.068 0.068l-1.703 2.554h-2.465c-0.553 0-1 0.448-1 1v3h-1v-3c0-0.552-0.447-1-1-1s-1 0.448-1 1v9c0 0.552 0.447 1 1 1s1-0.448 1-1v-4h1v4c0 0.552 0.447 1 1 1h2.382l1.724 3.447c0.047 0.094 0.109 0.176 0.179 0.248 0.014 0.015 0.032 0.025 0.047 0.038 0.071 0.065 0.15 0.117 0.236 0.159 0.029 0.014 0.058 0.027 0.089 0.038 0.109 0.041 0.223 0.069 0.341 0.070 0.001 0 0.001 0 0.002 0h12c0.146 0 0.283-0.035 0.408-0.091 0.033-0.015 0.058-0.042 0.089-0.060 0.091-0.054 0.175-0.114 0.245-0.193 0.011-0.013 0.028-0.017 0.039-0.031l3.7-4.625h1.519v1c0 0.552 0.447 1 1 1h3c0.553 0 1-0.448 1-1v-10c0-0.552-0.447-1-1-1zM30 22h-1v-1c0-0.552-0.447-1-1-1h-3c-0.019 0-0.035 0.010-0.054 0.011-0.068 0.004-0.132 0.022-0.198 0.040-0.062 0.017-0.123 0.029-0.18 0.056-0.052 0.025-0.096 0.063-0.144 0.097-0.058 0.042-0.115 0.082-0.163 0.136-0.013 0.014-0.030 0.020-0.042 0.035l-3.7 4.625h-10.901l-1.724-3.447c-0.022-0.044-0.060-0.073-0.088-0.113-0.042-0.060-0.079-0.12-0.133-0.17-0.048-0.044-0.103-0.073-0.158-0.106-0.054-0.034-0.104-0.070-0.165-0.093-0.069-0.026-0.142-0.033-0.216-0.044-0.045-0.006-0.086-0.027-0.134-0.027h-2v-7h2.001c0.119 0 0.235-0.028 0.346-0.070 0.022-0.008 0.044-0.015 0.066-0.025 0.101-0.046 0.194-0.107 0.276-0.186 0.016-0.015 0.028-0.033 0.043-0.049 0.034-0.037 0.071-0.072 0.099-0.115l1.704-2.555h3.465c0.553 0 1-0.448 1-1v-3h1v3c0 0.552 0.447 1 1 1h3.586l2.706 2.706c0.092 0.093 0.203 0.166 0.326 0.217 0.122 0.050 0.252 0.077 0.382 0.077h1v1c0 0.552 0.447 1 1 1h3c0.553 0 1-0.448 1-1v-1h1v8z"></path>
<path d="M19.56 14.171c-0.459-0.31-1.079-0.189-1.389 0.268l-4.14 6.119-2.421-1.868c-0.439-0.338-1.065-0.256-1.402 0.181s-0.256 1.065 0.181 1.402l3.264 2.518c0.176 0.137 0.391 0.209 0.611 0.209 0.053 0 0.105-0.004 0.159-0.013 0.272-0.044 0.515-0.198 0.669-0.427l4.736-7c0.31-0.458 0.189-1.079-0.268-1.389z"></path>
</symbol>
<symbol id="icon-calendar" viewBox="0 0 32 32">
<path d="M25.822 2.464h-1.194v-1.208c0-0.69-0.559-1.249-1.249-1.249s-1.249 0.559-1.249 1.249v1.208h-12.259v-1.208c0-0.69-0.559-1.249-1.249-1.249s-1.249 0.559-1.249 1.249v1.208h-1.194c-3.407 0-6.178 2.772-6.178 6.178v17.172c0 3.407 2.772 6.178 6.178 6.178h19.644c3.407 0 6.178-2.772 6.178-6.178v-17.172c0-3.407-2.772-6.178-6.178-6.178zM6.178 4.963h1.194v2.436c0 0.69 0.559 1.249 1.249 1.249s1.249-0.559 1.249-1.249v-2.436h12.259v2.436c0 0.69 0.559 1.249 1.249 1.249s1.249-0.559 1.249-1.249v-2.436h1.194c2.029 0 3.679 1.651 3.679 3.679v1.194h-27.002v-1.194c0-2.029 1.651-3.679 3.679-3.679zM25.822 29.494h-19.644c-2.029 0-3.679-1.651-3.679-3.679v-13.48h27.002v13.48c0 2.029-1.651 3.679-3.679 3.679zM11.099 17.249c0 0.69-0.559 1.249-1.249 1.249h-2.457c-0.69 0-1.249-0.559-1.249-1.249s0.559-1.249 1.249-1.249h2.457c0.69 0 1.249 0.559 1.249 1.249zM25.857 17.249c0 0.69-0.559 1.249-1.249 1.249h-2.457c-0.69 0-1.249-0.559-1.249-1.249s0.559-1.249 1.249-1.249h2.457c0.69 0 1.249 0.559 1.249 1.249zM18.471 17.249c0 0.69-0.559 1.249-1.249 1.249h-2.457c-0.69 0-1.249-0.559-1.249-1.249s0.559-1.249 1.249-1.249h2.457c0.69 0 1.249 0.559 1.249 1.249zM11.099 24.621c0 0.69-0.559 1.249-1.249 1.249h-2.457c-0.69 0-1.249-0.559-1.249-1.249s0.559-1.249 1.249-1.249h2.457c0.69 0 1.249 0.559 1.249 1.249zM25.857 24.621c0 0.69-0.559 1.249-1.249 1.249h-2.457c-0.69 0-1.249-0.559-1.249-1.249s0.559-1.249 1.249-1.249h2.457c0.69 0 1.249 0.559 1.249 1.249zM18.471 24.621c0 0.69-0.559 1.249-1.249 1.249h-2.457c-0.69 0-1.249-0.559-1.249-1.249s0.559-1.249 1.249-1.249h2.457c0.69 0 1.249 0.559 1.249 1.249z"></path>
</symbol>
<symbol id="icon-close" viewBox="0 0 32 32">
<path d="M18.932 16.026l12.46-12.461c0.811-0.811 0.811-2.121 0-2.932s-2.121-0.81-2.931 0l-12.461 12.461-12.46-12.461c-0.811-0.81-2.121-0.81-2.932 0s-0.811 2.121 0 2.932l12.46 12.461-12.46 12.461c-0.811 0.811-0.811 2.121 0 2.931 0.404 0.404 0.935 0.607 1.466 0.607s1.061-0.203 1.466-0.607l12.46-12.461 12.461 12.461c0.404 0.404 0.935 0.607 1.466 0.607s1.061-0.203 1.466-0.607c0.811-0.811 0.811-2.121 0-2.931z"></path>
</symbol>
<symbol id="icon-filter" viewBox="0 0 32 32">
<path d="M31.063 21.59h-2.143c-0.456-3.119-3.148-5.523-6.392-5.523s-5.937 2.403-6.392 5.523h-15.197c-0.518 0-0.938 0.42-0.938 0.938s0.42 0.938 0.938 0.938h15.197c0.456 3.12 3.148 5.523 6.392 5.523s5.937-2.403 6.392-5.523h2.143c0.518 0 0.938-0.42 0.938-0.938s-0.42-0.938-0.938-0.938zM22.527 27.113c-2.528 0-4.585-2.057-4.585-4.585s2.057-4.585 4.585-4.585c2.528 0 4.585 2.057 4.585 4.585s-2.057 4.585-4.585 4.585z"></path>
<path d="M0.938 10.41h2.143c0.455 3.12 3.148 5.523 6.392 5.523s5.937-2.403 6.392-5.523h15.197c0.518 0 0.938-0.42 0.938-0.938s-0.42-0.938-0.938-0.938h-15.197c-0.456-3.12-3.148-5.523-6.392-5.523s-5.937 2.403-6.392 5.523h-2.143c-0.518 0-0.938 0.42-0.938 0.938s0.42 0.938 0.938 0.938zM9.473 4.888c2.528 0 4.585 2.057 4.585 4.585s-2.057 4.585-4.585 4.585c-2.528 0-4.585-2.057-4.585-4.585s2.057-4.585 4.585-4.585z"></path>
</symbol>
<symbol id="icon-car-van" viewBox="0 0 69 32">
<path d="M0 26.305v-2.503h2.503v-1.254h-1.254v-7.514h21.294l-1.254-1.254h-20.034v-6.265l1.254-5.011 2.503-2.503h38.836l5.011 1.254 2.503 2.503-3.757 1.254h3.757l6.265 7.514h-1.254l-5.011-6.265h-10.023v5.011l1.254 1.254 12.525 2.503 1.254-1.254h2.503l6.265 2.503 2.503 2.503h-2.503v1.254l3.757 1.254v6.265l-2.503 1.254h-1.276c0.118-0.468 0.183-0.958 0.183-1.459 0-3.257-2.643-5.899-5.899-5.899s-5.894 2.643-5.894 5.899c0 0.506 0.065 0.99 0.183 1.459h-35.547c0.118-0.468 0.183-0.958 0.183-1.459 0-3.257-2.643-5.899-5.899-5.899s-5.899 2.643-5.899 5.899c0 0.506 0.065 0.99 0.183 1.459h-4.209l-2.503-2.503zM59.409 22.709v0c-2.568 0-4.645 2.078-4.645 4.645 0 1.34 0.565 2.546 1.469 3.391h-40.628c0.91-0.845 1.475-2.051 1.475-3.391 0-2.568-2.078-4.645-4.645-4.645s-4.645 2.078-4.645 4.645c0 1.34 0.565 2.546 1.469 3.391h-8.004v1.254h11.142c0 0 46.969 0 0.032 0h46.937c0 0 3.208-1.254 0.032 0h6.992v-1.254h-3.816c0.91-0.845 1.475-2.051 1.475-3.391 0-2.568-2.078-4.645-4.645-4.645zM61.551 27.355h-1.254c0 0.49-0.398 0.888-0.888 0.888s-0.888-0.398-0.888-0.888h-1.254c0 1.184 0.958 2.142 2.137 2.142s2.137-0.963 2.137-2.142zM59.403 23.964c1.873 0 3.391 1.518 3.391 3.391s-1.502 3.375-3.364 3.391h-0.059c-1.862-0.016-3.364-1.529-3.364-3.391s1.518-3.391 3.391-3.391v0zM14.576 27.355h-1.254c0 0.49-0.398 0.888-0.888 0.888s-0.888-0.398-0.888-0.888h-1.254c0 1.184 0.963 2.142 2.142 2.142s2.137-0.963 2.137-2.142zM12.429 23.964c1.873 0 3.391 1.518 3.391 3.391s-1.502 3.375-3.364 3.391h-0.059c-1.862-0.016-3.364-1.529-3.364-3.391s1.518-3.391 3.391-3.391v0zM1.254 25.788l1.771 1.771h2.255c0-0.070 0-0.14 0-0.205 0-3.945 3.203-7.148 7.148-7.148s7.148 3.203 7.148 7.148c0 0.070 0 0.14 0 0.205h32.678c0-0.070 0-0.14 0-0.205 0-3.945 3.203-7.148 7.148-7.148s7.137 3.192 7.148 7.127l1.093-0.544v-4.586l-3.757-1.254v-3.407h0.732l-0.183-0.183-5.803-2.32h-1.744l-1.362 1.362-13.554-2.713-1.889-1.889v-5.528h-0.205l0.205-0.070v-1.184h3.553l5.399-1.798-0.829-0.829-4.527-1.13h-38.152l-1.895 1.895-1.13 4.527v4.855h19.308l3.757 3.757h-23.065v5.011h1.254v3.757h-2.503v0.732z"></path>
</symbol>
<symbol id="icon-car-break" viewBox="0 0 96 32">
<path d="M2.141 25.591l-2.141-6.417v-2.141l2.141-2.074v-4.275h2.134l2.141-2.134h-4.275l4.275-6.409 6.409-2.141h38.477l17.101 8.55h-4.275l-12.826-6.417h-29.926l-4.275 4.275 6.409 4.275 2.141-6.417h2.134l-2.134 6.417h14.967l-2.141-6.417h2.141l2.134 6.417h38.477l8.55 2.134 4.275 2.141-2.156 2.119h4.275v4.275l-2.119 2.096v2.134l-2.141 2.141h-7.844c0.331-0.962 0.511-1.991 0.511-3.066 0-5.229-4.245-9.475-9.475-9.475s-9.475 4.245-9.475 9.475c0 1.074 0.18 2.104 0.503 3.066h-39.356c0.331-0.962 0.511-1.991 0.511-3.066 0-5.229-4.245-9.475-9.475-9.475s-9.475 4.245-9.475 9.475c0 1.074 0.18 2.104 0.503 3.066h-2.442l-4.275-2.141zM75.090 17.326v0c-4.050 0-7.333 3.283-7.333 7.333 0 2.029 0.826 3.869 2.164 5.199h-46.937c1.337-1.33 2.164-3.171 2.164-5.199 0-4.050-3.283-7.333-7.333-7.333s-7.333 3.283-7.333 7.333c0 2.029 0.826 3.869 2.164 5.199h-10.504v2.134h89.771v-2.134h-11.638c1.337-1.33 2.164-3.171 2.164-5.199 0-4.050-3.283-7.333-7.333-7.333zM78.17 24.667c0 1.691-1.367 3.058-3.058 3.058s-3.058-1.367-3.058-3.058h2.134c0 0.511 0.413 0.924 0.924 0.924s0.924-0.413 0.924-0.924h2.134zM75.105 19.467c2.87 0 5.199 2.329 5.199 5.199s-2.329 5.199-5.199 5.199-5.199-2.329-5.199-5.199 2.329-5.199 5.199-5.199v0zM20.88 24.667c0 1.691-1.367 3.058-3.058 3.058s-3.058-1.367-3.058-3.058h2.134c0 0.511 0.413 0.924 0.924 0.924s0.924-0.413 0.924-0.924h2.141zM17.822 19.467c2.87 0 5.199 2.329 5.199 5.199s-2.329 5.199-5.199 5.199-5.199-2.329-5.199-5.199 2.329-5.199 5.199-5.199v0zM3.884 24.073l2.337 1.172c-0.008-0.195-0.015-0.383-0.015-0.579 0-6.409 5.207-11.608 11.608-11.608s11.616 5.199 11.616 11.608c0 0.308-0.015 0.616-0.038 0.924h34.134c-0.023-0.308-0.038-0.616-0.038-0.924 0-6.409 5.207-11.608 11.608-11.608s11.616 5.199 11.616 11.608c0 0.308-0.015 0.616-0.038 0.924h4.35l0.887-0.887v-2.141l2.119-2.096v-1.247h-7.371l3.757-3.682-1.382-0.691-8.070-2.014h-58.102l-9.121-6.078 4.606-4.606h-5.184l-5.387 1.796-1.653 2.479h5.44l-6.417 6.417h-0.887v3.043l-2.134 2.074v0.887l1.751 5.244z"></path>
</symbol>
<symbol id="icon-car-sedan" viewBox="0 0 92 32">
<path d="M1.998 25.998l-1.998-3.996v-1.998l4.004-3.996-1.998 1.998-1.998-4.004 4.004-6.002h3.996l13.995-6.002 8-1.998h16l8 1.998 12.004 6.002h-6.002l-6.002-4.004-8-1.998h-14.002l-9.998 6.002 1.998 1.998h3.996l1.998-4.004v4.004h9.998v-5.995h1.998v6.002h25.998l20.004 3.996 3.996 1.998-1.998 1.998 1.998 1.998v4.004l-3.996 4.004h-6.138c0.309-0.898 0.474-1.862 0.474-2.868 0-4.895-3.975-8.863-8.863-8.863s-8.863 3.975-8.863 8.863c0 1.006 0.165 1.969 0.474 2.868h-38.634c0.309-0.898 0.474-1.862 0.474-2.868 0-4.895-3.975-8.863-8.863-8.863s-8.863 3.968-8.863 8.863c0 1.006 0.165 1.969 0.474 2.868h-3.673l-4.004-1.998zM73.481 18.271v0c-3.788 0-6.864 3.076-6.864 6.864 0 1.905 0.769 3.623 2.020 4.866h-45.729c1.244-1.244 2.020-2.961 2.020-4.866 0-3.788-3.076-6.864-6.864-6.864s-6.864 3.076-6.864 6.864c0 1.905 0.769 3.623 2.020 4.866h-11.22v1.998h86.009v-1.998h-9.689c1.243-1.244 2.020-2.961 2.020-4.866 0-3.788-3.076-6.864-6.864-6.864zM76.334 25.136h-1.998c0 0.474-0.388 0.863-0.863 0.863s-0.863-0.388-0.863-0.863h-1.998c0 1.581 1.272 2.861 2.861 2.861s2.868-1.279 2.868-2.861zM73.474 20.27c2.688 0 4.866 2.178 4.866 4.866s-2.178 4.866-4.866 4.866-4.866-2.178-4.866-4.866 2.178-4.866 4.866-4.866v0zM20.924 25.136h-1.998c0 0.474-0.388 0.863-0.863 0.863s-0.863-0.388-0.863-0.863h-1.998c0 1.581 1.279 2.861 2.861 2.861s2.861-1.279 2.861-2.861zM18.063 20.27c2.688 0 4.866 2.178 4.866 4.866s-2.178 4.866-4.866 4.866-4.866-2.178-4.866-4.866 2.178-4.866 4.866-4.866v0zM3.493 24.51l2.983 1.488h0.762c-0.022-0.288-0.036-0.575-0.036-0.863 0-5.995 4.866-10.861 10.861-10.861s10.868 4.866 10.868 10.861c0 0.288-0.014 0.575-0.036 0.863h33.754c-0.022-0.288-0.036-0.575-0.036-0.863 0-5.995 4.866-10.861 10.861-10.861s10.868 4.866 10.868 10.861c0 0.288-0.014 0.575-0.036 0.863h2.868l2.825-2.825v-2.343l-2.825-2.825 1.452-1.452-1.279-0.64-19.544-3.91h-44.629l-4.399-4.399 7.813-4.686-3.946 0.985-14.232 6.095h-3.342l-2.76 4.14 0.237 0.482 1.452-1.452 2.832 2.832-4.83 4.83v0.697l1.488 2.983z"></path>
</symbol>
<symbol id="icon-car-compact" viewBox="0 0 82 32">
<path d="M0 23.998v-6.003l3.998-3.998h-3.998l1.999-3.998 8.002-8.002 6.003-1.999h26.004l6.003 1.999 11.999 8.002h-3.998l-8.002-6.003-6.003-1.999h-22.006l-3.998 3.998v1.999s1.999 1.999 1.999 1.999l16.003 1.999-1.999-8.002h1.999l1.999 8.002h36.004s8.002 1.999 8.002 1.999l1.999 1.999v1.999h-1.999v1.999l1.999 1.999v1.999l-1.999 3.998h-5.26c0.308-0.897 0.474-1.864 0.474-2.864 0-4.895-3.972-8.866-8.866-8.866s-8.866 3.972-8.866 8.866c0 0.999 0.167 1.967 0.474 2.864h-35.588c0.308-0.897 0.474-1.864 0.474-2.864 0-4.895-3.972-8.866-8.866-8.866s-8.866 3.972-8.866 8.866c0 0.999 0.167 1.967 0.474 2.864h-1.595l-3.998-3.998zM66.351 18.271v0c-3.793 0-6.868 3.075-6.868 6.868 0 1.896 0.775 3.62 2.024 4.862h-42.686c1.249-1.243 2.024-2.96 2.024-4.862 0-3.793-3.081-6.868-6.868-6.868s-6.861 3.075-6.861 6.868c0 1.896 0.775 3.62 2.024 4.862h-7.143v1.999h75.999v-1.999h-6.804c1.249-1.243 2.024-2.96 2.024-4.862 0-3.793-3.069-6.868-6.861-6.868zM69.221 25.139c0 1.582-1.281 2.864-2.864 2.864s-2.864-1.281-2.864-2.864h1.999c0 0.474 0.384 0.865 0.865 0.865s0.865-0.384 0.865-0.865h1.999zM66.358 20.27c2.684 0 4.862 2.178 4.862 4.862s-2.178 4.862-4.862 4.862-4.862-2.178-4.862-4.862 2.178-4.862 4.862-4.862v0zM16.855 25.139c0 1.582-1.281 2.864-2.864 2.864s-2.864-1.281-2.864-2.864h1.999c0 0.474 0.384 0.865 0.865 0.865s0.865-0.384 0.865-0.865h1.999zM13.985 20.27c2.684 0 4.862 2.178 4.862 4.862s-2.178 4.862-4.862 4.862-4.862-2.178-4.862-4.862 2.178-4.862 4.862-4.862v0zM1.999 23.172l1.153 1.153c0.416-5.618 5.112-10.052 10.833-10.052s10.865 4.869 10.865 10.865c0 0.288-0.013 0.577-0.032 0.865h30.706c-0.026-0.288-0.032-0.577-0.032-0.865 0-5.996 4.869-10.865 10.865-10.865s10.865 4.869 10.865 10.865c0 0.288-0.013 0.577-0.032 0.865h1.582l1.236-2.473v-0.698l-1.999-1.999v-4.83h1.172s-0.192-0.192-0.192-0.192l-7.226-1.807h-37.875l-16.804-2.101-3.069-3.069v-3.658l3.171-3.171h-0.846l-5.247 1.749-7.438 7.438-0.41 0.814h5.593l-6.842 6.823v4.344z"></path>
</symbol>
<symbol id="icon-car-cabrio" viewBox="0 0 99 32">
<path d="M2.201 24.25l-2.201-4.41 2.201-2.201-2.201-4.41h4.41l-2.201-2.201 4.41-4.41h11.021l-2.201-2.201h8.82l2.201-2.201h2.201v2.201h2.209l8.82 2.201h2.201v-2.201h2.201l2.201 2.201h13.229l-6.611-6.619h4.41l8.82 4.41 2.201 2.201h2.209l19.84 4.41 6.611 2.201-2.201 2.201 4.41 2.201v4.41l-2.201 2.201v2.201h-7.022c0.139-0.651 0.209-1.325 0.209-2.015 0-5.394-4.379-9.765-9.773-9.765s-9.773 4.379-9.773 9.765c0 0.69 0.070 1.364 0.209 2.015h-41.362c0.14-0.651 0.209-1.325 0.209-2.015 0-5.394-4.379-9.765-9.773-9.765s-9.773 4.379-9.773 9.765c0 0.69 0.070 1.364 0.209 2.015h-1.55l-6.611-2.201zM80.399 16.872v0c-4.177 0-7.564 3.387-7.564 7.564 0 2.1 0.853 3.991 2.232 5.363h-49.81c1.38-1.372 2.232-3.271 2.232-5.363 0-4.177-3.387-7.564-7.564-7.564s-7.564 3.387-7.564 7.564c0 2.1 0.853 3.991 2.232 5.363h-12.392v2.201h92.59v-2.201h-9.044c1.379-1.372 2.232-3.271 2.232-5.363 0-4.177-3.387-7.564-7.564-7.564zM83.569 24.436c0 1.744-1.41 3.154-3.154 3.154s-3.154-1.41-3.154-3.154h2.201c0 0.527 0.426 0.953 0.953 0.953s0.953-0.426 0.953-0.953h2.201zM80.415 19.073c2.961 0 5.363 2.403 5.363 5.363s-2.403 5.363-5.363 5.363-5.363-2.403-5.363-5.363 2.403-5.363 5.363-5.363v0zM23.087 24.436c0 1.744-1.41 3.154-3.154 3.154s-3.154-1.41-3.154-3.154h2.201c0 0.527 0.426 0.953 0.953 0.953s0.953-0.426 0.953-0.953h2.201zM19.933 19.073c2.961 0 5.363 2.403 5.363 5.363s-2.403 5.363-5.363 5.363-5.363-2.403-5.363-5.363 2.403-5.363 5.363-5.363v0zM3.767 22.444l4.208 1.403c0.31-6.332 5.549-11.385 11.958-11.385s11.873 5.262 11.974 11.788h36.534c0.101-6.518 5.425-11.788 11.974-11.788s11.873 5.262 11.974 11.788h2.403v-0.915l2.201-2.209v-2.131l-5.929-2.961 1.844-1.845-3.123-1.038-19.491-4.332h-2.875l-2.596-2.596-5.162-2.581 5.177 5.177h-19.46l-1.294-1.294v1.294h-4.681l-8.82-2.201h-4.139v-1.294l-1.294 1.294h-4.41l2.201 2.201h-15.415l-2.201 2.201 4.41 4.41h-6.161l1.317 2.643-2.201 2.201 1.085 2.17z"></path>
</symbol>
<symbol id="icon-car-others" viewBox="0 0 88 32">
<path d="M82.744 30.203v1.797h-80.947v-1.797h13.125c-1.673-1.412-2.741-3.519-2.741-5.881 0-4.242 3.436-7.678 7.678-7.678s7.678 3.436 7.678 7.678c0 2.362-1.067 4.469-2.741 5.881h42.006c-1.673-1.412-2.741-3.519-2.741-5.881 0-4.242 3.436-7.678 7.678-7.678s7.678 3.436 7.678 7.678c0 2.362-1.067 4.469-2.741 5.881h6.067zM67.657 24.322c0 2.252 1.825 4.084 4.084 4.084s4.084-1.825 4.084-4.084h-1.797c0 1.26-1.019 2.286-2.286 2.286s-2.286-1.019-2.286-2.286h-1.797zM71.74 18.441c-3.25 0-5.881 2.631-5.881 5.881s2.63 5.881 5.881 5.881 5.881-2.631 5.881-5.881-2.63-5.881-5.881-5.881v0zM15.783 24.322c0 2.252 1.825 4.084 4.083 4.084s4.084-1.825 4.084-4.084h-1.797c0 1.26-1.019 2.286-2.286 2.286s-2.286-1.019-2.286-2.286h-1.797zM19.86 18.441c-3.25 0-5.881 2.631-5.881 5.881s2.63 5.881 5.881 5.881 5.881-2.631 5.881-5.881-2.631-5.881-5.881-5.881v0zM0 23.385v-5.399h1.797v-1.797h-1.797v-5.399h39.575l-1.797-1.797 1.797-7.196 1.797-1.797h14.392l1.797 1.797h-10.791v7.196l1.797 1.797h8.993l1.797-1.797-3.595-5.399h1.797l5.399 5.399 19.784 1.797 1.797 1.797-1.797 1.797 1.797 1.797h1.797l1.797 5.399-1.797 1.797v1.797l-3.595 1.797h-1.907c0.248-0.847 0.379-1.742 0.379-2.665 0-5.233-4.249-9.475-9.482-9.475s-9.475 4.249-9.475 9.475c0 0.923 0.131 1.818 0.379 2.665h-33.68c0.248-0.847 0.379-1.742 0.379-2.665 0-5.233-4.249-9.475-9.482-9.475s-9.475 4.249-9.475 9.475c0 0.923 0.131 1.818 0.379 2.665h-3.567l-7.189-3.588zM1.797 22.27l5.819 2.913h0.999c-0.021-0.289-0.034-0.578-0.034-0.868 0-6.225 5.054-11.28 11.28-11.28s11.28 5.054 11.28 11.28c0 0.289-0.014 0.578-0.034 0.868h29.39c-0.021-0.289-0.034-0.578-0.034-0.868 0-6.225 5.054-11.28 11.28-11.28s11.28 5.054 11.28 11.28c0 0.172 0 0.351-0.014 0.523l1.536-0.771v-1.432l1.543-1.543-1.040-3.113h-1.246l-3.595-3.595 1.797-1.797-0.069-0.069-19.784-1.797-0.985-0.985-2.851 2.851h-10.481l-2.851-2.851v-7.94h-2.851l-0.923 0.923-1.432 5.722 4.152 4.152h-42.13v1.797h1.797v5.399h-1.797v2.486z"></path>
</symbol>
<symbol id="icon-car-premium" viewBox="0 0 103 32">
<path d="M6.863 27.419l-2.29-2.29v-2.282h-2.282l-2.29-4.573 6.855-2.266v-2.29l-4.573 2.29 2.29-4.573 6.863-4.573 13.718-4.573 9.145-2.29h18.29l6.863 2.29 11.435 4.573h-6.863l-4.573-2.29-6.863-2.282c0 0 2.282 4.573 4.573 4.573h-2.29c0 0 33.037 20.556-4.573-4.573h-13.718v4.548l-2.29-4.573-6.863 2.29-2.29 2.29 13.718 2.29h43.444l11.435 2.29 6.863 4.573-6.863-2.29v2.29l9.145 2.29v4.573h-4.573l2.29 2.282-2.25 2.274h-10.439c0.273-0.892 0.418-1.84 0.418-2.829 0-5.352-4.34-9.692-9.692-9.692s-9.692 4.348-9.692 9.692c0 0.98 0.145 1.937 0.418 2.829h-37.312c0.273-0.892 0.418-1.84 0.418-2.829 0-5.352-4.34-9.692-9.692-9.692s-9.692 4.348-9.692 9.692c0 0.98 0.145 1.937 0.418 2.829h-6.638zM78.594 17.189v0c-4.082 0-7.401 3.311-7.401 7.401 0 1.985 0.788 3.793 2.057 5.119h-45.147c1.278-1.334 2.057-3.134 2.057-5.119 0-4.082-3.319-7.401-7.401-7.401s-7.401 3.311-7.401 7.401c0 1.985 0.788 3.793 2.057 5.119h-15.124v2.29h96.024v-2.29h-14.361c1.278-1.334 2.057-3.134 2.057-5.119 0-4.082-3.311-7.401-7.401-7.401zM81.455 24.591h-2.29c0 0.305-0.241 0.546-0.546 0.546s-0.546-0.249-0.546-0.546h-2.282c0 1.559 1.27 2.829 2.829 2.829s2.829-1.27 2.829-2.829zM78.618 19.472c2.829 0 5.119 2.29 5.119 5.119s-2.29 5.119-5.119 5.119-5.119-2.29-5.119-5.119 2.29-5.119 5.119-5.119v0zM25.603 24.591h-2.282c0 0.305-0.241 0.546-0.546 0.546s-0.546-0.249-0.546-0.546h-2.29c0 1.559 1.27 2.829 2.829 2.829s2.829-1.27 2.829-2.829zM22.766 19.472c2.829 0 5.119 2.29 5.119 5.119s-2.29 5.119-5.119 5.119-5.119-2.29-5.119-5.119 2.29-5.119 5.119-5.119v0zM7.803 25.137h2.998c-0.008-0.185-0.016-0.362-0.016-0.546 0-6.606 5.368-11.974 11.974-11.974s11.974 5.368 11.974 11.974c0 0.185 0 0.362-0.008 0.546h31.92c-0.008-0.185-0.016-0.362-0.016-0.546 0-6.606 5.368-11.974 11.974-11.974s11.982 5.368 11.982 11.974c0 0.185 0 0.362-0.016 0.546h6.742l-4.556-4.556h7.811v-0.498l-9.145-2.29v-4.484l-9.37-1.872h-43.403l-18.29-3.046 3.15-3.15-11.098 3.697-3.303 2.202v6.525l-5.891 1.961 0.474 0.948h3.158v3.624l0.948 0.948z"></path>
</symbol>
<symbol id="icon-car-hybrid" viewBox="0 0 91 32">
<path d="M87.663 29.983h-9.033c1.264-1.257 2.045-2.997 2.045-4.914 0-3.828-3.103-6.931-6.931-6.931s-6.931 3.103-6.931 6.931c0 1.925 0.781 3.657 2.045 4.914h-48.355c1.257-1.257 2.038-2.997 2.038-4.914 0-3.828-3.103-6.931-6.931-6.931s-6.931 3.103-6.931 6.931c0 1.925 0.781 3.657 2.045 4.914h-7.89v2.017h84.843v-2.017zM76.641 25.069c0 1.598-1.293 2.89-2.89 2.89s-2.89-1.293-2.89-2.89h2.017c0 0.483 0.391 0.873 0.874 0.873s0.874-0.391 0.874-0.873h2.017zM73.751 20.154c2.713 0 4.914 2.201 4.914 4.914s-2.201 4.914-4.914 4.914-4.914-2.201-4.914-4.914 2.201-4.914 4.914-4.914v0zM18.507 25.069c0 1.598-1.293 2.89-2.89 2.89s-2.89-1.293-2.89-2.89h2.017c0 0.483 0.391 0.873 0.873 0.873s0.874-0.391 0.874-0.873h2.017zM15.617 20.154c2.713 0 4.914 2.201 4.914 4.914s-2.201 4.914-4.914 4.914-4.914-2.201-4.914-4.914 2.201-4.914 4.914-4.914v0zM0 20.197l2.017-2.017h-2.017v-4.041l4.041-2.017h-2.017l8.075-8.082 22.221-4.041h18.18l20.197 8.082h-6.058l-14.139-6.058h-18.18l-10.099 2.017-4.041 4.041 16.163 2.017h2.017l-2.017-6.058h2.017l6.058 6.058h36.36l12.123 6.058v2.017h-4.041l2.017 2.017h2.017v4.041l-2.017 2.017v2.017h-6.775c0.383-0.994 0.597-2.081 0.597-3.217 0-4.943-4.012-8.955-8.955-8.955s-8.955 4.012-8.955 8.955c0 1.129 0.213 2.216 0.597 3.217h-41.424c0.384-0.994 0.597-2.081 0.597-3.217 0-4.943-4.012-8.955-8.955-8.955s-8.955 4.012-8.955 8.955c0 1.129 0.213 2.216 0.597 3.217h-1.2l-4.041-2.017-2.003-6.051zM2.308 20.744l1.364 4.083 0.973 0.49c0-0.085 0-0.163 0-0.249 0-6.058 4.914-10.972 10.972-10.972s10.972 4.914 10.972 10.972c0 0.398-0.021 0.795-0.064 1.193h36.318c-0.043-0.398-0.064-0.795-0.064-1.193 0-6.058 4.914-10.972 10.972-10.972s10.972 4.914 10.972 10.972c0 0.398-0.021 0.795-0.064 1.193h2.201v-0.838l2.017-2.017v-1.186h-0.838l-6.058-6.058h4.403l-8.082-4.041h-36.723l-3.629-3.629 1.207 3.629h-4.95l-20.382-2.55 5.085-5.085-7.833 1.427-4.183 4.183h5.703l-10.574 5.291v0.774h4.879l-4.588 4.588z"></path>
</symbol>
<symbol id="icon-car-budget" viewBox="0 0 102 32">
<path d="M4 26l-4-4v-4l4-2h-4l2-4 4-2h-4l2-2h6l16-6 10-2h14l10 2 12 6-4 2-8-6-10-2h-12l-10 6 4 2h2v-4l2 4h10v-6h2v6l20 2 8-4 18 4 6 2-2 2 2 2h2v4l-2 2v2l-2 2h-4.263c0.311-0.9 0.478-1.865 0.478-2.869 0-4.892-3.976-8.861-8.861-8.861s-8.861 3.968-8.861 8.861c0 1.004 0.167 1.968 0.47 2.869h-46.55c0.311-0.9 0.478-1.865 0.478-2.869 0-4.892-3.976-8.861-8.861-8.861s-8.861 3.968-8.861 8.861c0 0.972 0.159 1.912 0.446 2.789l-9.602-1.92zM85.323 18.271v0c-3.785 0-6.861 3.068-6.861 6.861 0 1.896 0.773 3.618 2.024 4.861h-53.641c1.251-1.243 2.024-2.956 2.024-4.861 0-3.785-3.076-6.861-6.861-6.861s-6.861 3.068-6.861 6.861c0 1.896 0.773 3.618 2.024 4.861h-15.171v2h95.984v-2h-7.809c1.251-1.243 2.024-2.956 2.024-4.861 0-3.785-3.068-6.861-6.861-6.861zM88.207 25.131c0 1.578-1.283 2.861-2.861 2.861s-2.861-1.283-2.861-2.861h2c0 0.478 0.39 0.861 0.861 0.861s0.861-0.39 0.861-0.861h2zM85.339 20.271c2.685 0 4.861 2.175 4.861 4.861s-2.175 4.861-4.861 4.861-4.861-2.175-4.861-4.861 2.175-4.861 4.861-4.861v0zM24.877 25.131c0 1.578-1.283 2.861-2.861 2.861s-2.861-1.283-2.861-2.861h2c0 0.478 0.39 0.861 0.861 0.861s0.861-0.39 0.861-0.861h2zM22.016 20.271c2.685 0 4.861 2.175 4.861 4.861s-2.175 4.861-4.861 4.861-4.861-2.175-4.861-4.861 2.175-4.861 4.861-4.861v0zM4.988 24.159l6.167 1.235c0-0.088 0-0.175 0-0.255 0-5.992 4.869-10.861 10.861-10.861s10.861 4.869 10.861 10.861c0 0.287-0.008 0.582-0.032 0.869h41.665c-0.024-0.287-0.032-0.574-0.032-0.869 0-5.992 4.869-10.861 10.861-10.861s10.861 4.869 10.861 10.861c0 0.287-0.008 0.582-0.032 0.869h0.996l0.829-0.829v-2s2-2 2-2v-1.171h-0.829l-4-4 1.123-1.123-2.829-0.94-17.203-3.825-7.88 3.944-20.478-2.048h-16.375l-7.681-3.841 9.219-5.53-6.518 1.307-15.745 5.904-7.307 3.657-0.255 0.51h9.235l-10.47 5.235v1.936l2.988 2.988z"></path>
</symbol>
<symbol id="icon-car-family" viewBox="0 0 89 32">
<path d="M1.848 25.751l-1.848-1.848 1.848-3.689v-7.384l1.848-1.848-1.931 0.083 1.848-7.384 5.529-3.682h47.979l12.92 9.225h-3.689l-9.225-7.384h-44.298l-1.848 1.848v3.689l3.689 3.689h3.689v-7.377h1.848v7.384h16.609v-7.384h5.536v7.384h14.761v-7.384l5.536 7.384h11.073l11.073 3.689 1.848 1.848-1.82 0.021v1.848h3.689v1.848l-1.848 1.848 1.91-0.111v1.848l-3.689 3.689h-6.581c0.173-0.678 0.27-1.384 0.27-2.118 0-4.616-3.751-8.367-8.367-8.367s-8.367 3.751-8.367 8.367c0 0.734 0.097 1.439 0.27 2.118h-38.907c0.18-0.678 0.27-1.384 0.27-2.118 0-4.616-3.751-8.367-8.367-8.367s-8.367 3.751-8.367 8.367c0 0.734 0.097 1.439 0.27 2.118h-3.336l-1.848-1.848zM70.215 18.962c3.599 0 6.519 2.92 6.519 6.519 0 1.834-0.761 3.488-1.979 4.671h10.132v1.848h-81.28v-1.848h6.976c-1.218-1.183-1.979-2.844-1.979-4.671 0-3.599 2.92-6.519 6.519-6.519s6.519 2.92 6.519 6.519c0 1.834-0.761 3.488-1.979 4.671h46.014c-1.218-1.183-1.979-2.844-1.979-4.671 0-3.599 2.92-6.519 6.519-6.519v0zM67.391 25.481c0 1.564 1.266 2.83 2.83 2.83s2.83-1.266 2.83-2.83h-1.848c0 0.547-0.436 0.983-0.983 0.983s-0.983-0.436-0.983-0.983h-1.848zM70.215 20.81c-2.581 0-4.671 2.090-4.671 4.671s2.090 4.671 4.671 4.671 4.671-2.090 4.671-4.671-2.090-4.671-4.671-4.671v0zM12.291 25.481c0 1.564 1.266 2.83 2.83 2.83s2.83-1.266 2.83-2.83h-1.848c0 0.547-0.436 0.983-0.983 0.983s-0.983-0.436-0.983-0.983h-1.848zM15.121 20.81c-2.581 0-4.671 2.090-4.671 4.671s2.090 4.671 4.671 4.671 4.671-2.090 4.671-4.671-2.090-4.671-4.671-4.671v0zM4.457 25.751h0.457c0-0.090 0-0.18 0-0.27 0-5.633 4.574-10.208 10.208-10.208s10.215 4.574 10.215 10.208c0 0.090 0 0.18 0 0.27h34.685c0-0.090 0-0.18 0-0.27 0-5.633 4.574-10.208 10.208-10.208s10.208 4.574 10.208 10.208c0 0.090 0 0.18 0 0.27h3.702l1.682-1.682-3.868 0.221 3.965-3.965h-2.927v-4.221l-9.55-3.183h-11.695l-2.768-3.689v3.689h-18.457v-7.384h-1.848v7.384h-24.761l-4.775-4.775v-5.218l1.080-1.080h-0.519l-4.478 2.983-1.073 4.291 4.208-0.187-4.664 4.664v7.052l-1.446 2.893 2.208 2.208z"></path>
</symbol>
<symbol id="icon-car-new" viewBox="0 0 108 32">
<path d="M4.926 24.611l-4.926-4.917 2.463-4.926 2.463-2.463h-2.463v-2.463l2.463-2.463 17.231-2.463h-7.38l17.223-4.917h19.694l22.149 4.926-7.38 2.463-2.463-2.463-12.306-2.463h-19.694v4.926l9.843 2.463h24.611l9.843-2.463 17.265 0.017 9.843 4.926v2.463h2.463l2.463 4.926v2.463l-2.463 2.463 2.429-0.017v2.463h-9.597c0.381-1.109 0.584-2.294 0.584-3.529 0-6.017-4.892-10.909-10.909-10.909s-10.909 4.892-10.909 10.909c0 1.236 0.203 2.421 0.584 3.529h-43.747c0.381-1.109 0.584-2.294 0.584-3.529 0-6.017-4.892-10.909-10.909-10.909s-10.909 4.892-10.909 10.909c0 0.99 0.135 1.955 0.381 2.869l-8.523-1.803zM88.374 15.099v0c-4.663 0-8.446 3.783-8.446 8.446 0 2.336 0.948 4.452 2.488 5.984h-52.481c1.532-1.523 2.488-3.648 2.488-5.984 0-4.663-3.783-8.446-8.446-8.446s-8.446 3.783-8.446 8.446c0 2.336 0.948 4.452 2.488 5.984h-15.556v2.463h100.909v-2.463h-9.039c1.532-1.523 2.488-3.648 2.488-5.984 0-4.663-3.783-8.446-8.446-8.446zM91.904 23.545c0 1.947-1.574 3.521-3.521 3.521s-3.521-1.574-3.521-3.521h2.463c0 0.584 0.474 1.066 1.066 1.066s1.066-0.474 1.066-1.066h2.463zM88.374 17.561c3.309 0 5.984 2.683 5.984 5.984s-2.683 5.984-5.984 5.984-5.984-2.683-5.984-5.984 2.683-5.984 5.984-5.984v0zM27.497 23.545c0 1.947-1.574 3.521-3.521 3.521s-3.521-1.574-3.521-3.521h2.463c0 0.584 0.474 1.066 1.066 1.066s1.066-0.474 1.066-1.066h2.463zM23.977 17.561c3.309 0 5.984 2.683 5.984 5.984s-2.683 5.984-5.984 5.984-5.984-2.683-5.984-5.984 2.683-5.984 5.984-5.984v0zM6.144 22.352l4.46 0.939c0.135-7.262 6.068-13.118 13.364-13.118s13.372 5.992 13.372 13.372c0 0.355-0.017 0.711-0.042 1.066h37.747c-0.025-0.355-0.042-0.711-0.042-1.066 0-7.38 5.992-13.372 13.372-13.372s13.372 5.992 13.372 13.372c0 0.355-0.017 0.711-0.042 1.066h0.702l3.462-3.462v-0.863l-1.523-3.047h-3.402v-3.402l-7.964-3.986-16.377-0.017-9.843 2.463h-25.221l-12.001-3.005v-6.026l-4.934 1.413 0.169 2.361-18.687 2.666-0.144 0.144h4.926l-6.381 6.381-1.49 2.979 3.148 3.148z"></path>
</symbol>
<symbol id="icon-car-electric" viewBox="0 0 84 32">
<path d="M0 21.998v-5.998l2.002-2.002h-2.002l4.003-8h16l21.998 5.998h16l2.002-2.002-12.003-5.998-10.002-2.002h-12.003l-3.997 2.002h-11.997l8-3.997h20.003l10.002 2.002 18.002 8 13.998 4.003 2.002 2.002h-2.002l2.002 2.002h2.002v4.003l-2.002 4.003-5.998 2.002h-0.282c0.374-1.004 0.578-2.087 0.578-3.216 0-5.086-4.128-9.214-9.214-9.214s-9.214 4.128-9.214 9.214c0 1.129 0.203 2.212 0.578 3.216h-34.842c0.374-1.004 0.578-2.087 0.578-3.216 0-5.086-4.128-9.214-9.214-9.214s-9.214 4.128-9.214 9.214c0 1.129 0.203 2.212 0.578 3.216h-0.335l-6.005-6.018zM67.078 17.569v0c-3.984 0-7.212 3.229-7.212 7.212 0 2.054 0.86 3.905 2.231 5.217h-42.146c1.372-1.313 2.231-3.163 2.231-5.217 0-3.984-3.229-7.212-7.212-7.212s-7.212 3.229-7.212 7.212c0 2.054 0.86 3.905 2.231 5.217h-7.987v2.002h77.998v-2.002h-7.934c1.372-1.313 2.231-3.163 2.231-5.217 0-3.984-3.229-7.212-7.212-7.212zM70.3 24.788c0 1.779-1.437 3.216-3.216 3.216s-3.216-1.437-3.216-3.216h2.002c0 0.669 0.545 1.214 1.214 1.214s1.214-0.545 1.214-1.214h2.002zM67.085 19.57c2.881 0 5.217 2.336 5.217 5.217s-2.336 5.217-5.217 5.217-5.217-2.336-5.217-5.217 2.336-5.217 5.217-5.217v0zM18.185 24.788c0 1.779-1.437 3.216-3.216 3.216s-3.216-1.437-3.216-3.216h2.002c0 0.669 0.545 1.214 1.214 1.214s1.214-0.545 1.214-1.214h2.002zM14.97 19.57c2.881 0 5.217 2.336 5.217 5.217s-2.336 5.217-5.217 5.217-5.217-2.336-5.217-5.217 2.336-5.217 5.217-5.217v0zM2.002 21.171l1.89 1.89c0.833-5.375 5.48-9.49 11.085-9.49 6.189 0 11.216 5.027 11.216 11.216 0 0.407-0.020 0.814-0.066 1.214h29.815c-0.046-0.4-0.066-0.807-0.066-1.214 0-6.189 5.027-11.216 11.216-11.216s11.216 5.027 11.216 11.216c0 0.112 0 0.23 0 0.341l2.29-0.761 1.418-2.835v-1.529h-0.827l-5.020-5.021-10.835-3.098-3.025-1.345-3.459 3.459h-17.096l-22.018-5.998h-14.497l-2.002 4.003h3.59l-4.83 4.83v4.345z"></path>
</symbol>
<symbol id="icon-car-rulate" viewBox="0 0 96 32">
<path d="M2.002 26l-2.002-3.997v-6l8.002-2.002h-3.997l-2.002-2.002v-2.002l3.997-2.002 23.998 2.002h35.997l-8.002-6-3.997-2.002h-9.997v6h-2.002v-5.992h-8.002l-8.002 6-11.999-2.002 16.004-6h23.998l3.997 2.002 11.999 8.002 20.001 3.997 3.997 2.002h-3.997l2.002 2.002h3.997v2.002h-2.002l2.002 2.002-2.002 6h-7.537c0.307-0.9 0.472-1.86 0.472-2.865 0-4.89-3.975-8.864-8.864-8.864s-8.864 3.975-8.864 8.864c0 1.005 0.165 1.965 0.472 2.865h-41.757c0.307-0.9 0.472-1.86 0.472-2.865 0-4.89-3.975-8.864-8.864-8.864s-8.864 3.975-8.864 8.864c0 1.005 0.165 1.965 0.472 2.865h-3.142l-6-2.002zM19.528 18.269v0c-3.787 0-6.862 3.075-6.862 6.862 0 1.905 0.772 3.622 2.025 4.867h-12.689v2.002h89.985v-2.002h-9.089c1.252-1.245 2.025-2.97 2.025-4.867 0-3.787-3.075-6.862-6.862-6.862s-6.862 3.075-6.862 6.862c0 1.905 0.772 3.622 2.025 4.867h-48.851c1.252-1.245 2.025-2.97 2.025-4.867 0-3.787-3.075-6.862-6.862-6.862zM22.393 25.131c0 1.582-1.282 2.865-2.865 2.865s-2.865-1.282-2.865-2.865h2.002c0 0.48 0.39 0.862 0.862 0.862s0.862-0.39 0.862-0.862h2.002zM19.536 20.271c2.685 0 4.867 2.175 4.867 4.867s-2.175 4.867-4.867 4.867-4.867-2.175-4.867-4.867 2.175-4.867 4.867-4.867v0zM80.926 25.131c0 1.582-1.282 2.865-2.865 2.865s-2.865-1.282-2.865-2.865h2.002c0 0.48 0.39 0.862 0.862 0.862s0.862-0.39 0.862-0.862h2.002zM78.069 20.271c2.685 0 4.867 2.175 4.867 4.867s-2.175 4.867-4.867 4.867-4.86-2.175-4.86-4.867 2.175-4.867 4.86-4.867v0zM3.42 24.366l4.905 1.635h0.382c-0.023-0.285-0.037-0.577-0.037-0.862 0-5.992 4.867-10.859 10.859-10.859s10.867 4.867 10.867 10.859c0 0.292-0.015 0.577-0.038 0.862h36.875c-0.022-0.285-0.037-0.577-0.037-0.862 0-5.992 4.867-10.859 10.859-10.859s10.867 4.867 10.867 10.859c0 0.292-0.015 0.577-0.037 0.862h3.652l1.155-3.457-7.199-7.199-16.709-3.345h-39.882l-23.526-1.957-2.347 1.177 0.787 0.787h4.942l0.435 3.51-8.197 2.047v3.967l1.417 2.835zM30.665 2.002h-0.307l-8.677 3.255 3.795 0.63 5.182-3.885z"></path>
</symbol>
<symbol id="icon-car-luxury" viewBox="0 0 84 32">
<path d="M2.002 24l2.002-2.002h-2.002l-2.002-2.002v-4.003h2.002v-4.003l4.003-2.002 5.998-7.987 5.998-2.002h34.002l10.002 8h-3.997l-5.998-5.998h-10.002v5.998h-2.002v-5.998h-11.997l-2.002 5.998h-3.997l2.002-5.998h-4.003l-5.998 8h66.002l2.002 2.002-2.002 2.002 2.002 2.002h2.002v5.998l-2.002 2.002h2.002v2.002h-5.664c0.026-0.282 0.039-0.571 0.039-0.866 0-4.889-3.977-8.866-8.866-8.866s-8.86 3.97-8.86 8.866c0 0.289 0.013 0.578 0.039 0.866h-31.252c0.026-0.282 0.046-0.571 0.046-0.866 0-4.889-3.977-8.866-8.866-8.866s-8.866 3.97-8.866 8.866c0 0.289 0.013 0.578 0.039 0.866h-7.803l-2.002-2.002zM69.519 18.271v0c-3.793 0-6.865 3.071-6.865 6.865 0 1.897 0.774 3.623 2.021 4.863h-39.206c1.247-1.24 2.021-2.96 2.021-4.863 0-3.793-3.071-6.865-6.865-6.865s-6.865 3.071-6.865 6.865c0 1.897 0.774 3.623 2.021 4.863h-11.78v2.002h16.597c0 0 48.893 0 0.020 0h48.873c0 0 4.863-2.002 0.020 0h10.487v-2.002h-5.644c1.247-1.24 2.021-2.96 2.021-4.863 0-3.793-3.071-6.865-6.865-6.865zM72.394 25.135h-2.002c0 0.479-0.387 0.866-0.866 0.866s-0.866-0.387-0.866-0.866h-2.002c0 1.582 1.28 2.861 2.861 2.861s2.861-1.28 2.861-2.861zM69.513 20.272c2.684 0 4.863 2.179 4.863 4.863s-2.166 4.85-4.843 4.863h-0.039c-2.678-0.013-4.843-2.185-4.843-4.863s2.179-4.863 4.863-4.863v0zM23.495 25.135h-2.002c0 0.479-0.387 0.866-0.866 0.866s-0.866-0.387-0.866-0.866h-2.002c0 1.582 1.28 2.861 2.861 2.861s2.861-1.28 2.861-2.861zM20.62 20.272c2.684 0 4.863 2.179 4.863 4.863s-2.166 4.85-4.843 4.863h-0.039c-2.678-0.013-4.843-2.185-4.843-4.863s2.179-4.863 4.863-4.863v0zM4.83 24h4.988c0.571-5.46 5.191-9.726 10.802-9.726s10.238 4.266 10.809 9.726h27.281c0.571-5.46 5.191-9.726 10.802-9.726 5.263 0 9.667 3.754 10.658 8.735l1.831-1.831v-3.17h-0.827l-3.997-3.997 2.002-2.002h-69.178l7.226-9.641-4.003 1.332-5.906 7.875-3.314 1.66v4.765h-2.002v1.175l0.827 0.827h5.998l-4.003 4.003z"></path>
</symbol>
<symbol id="icon-car-sport" viewBox="0 0 101 32">
<path d="M4.573 27.435l-4.573-6.859v-4.573l2.286-4.573h4.573l4.573-2.286h-9.145l4.573-2.286h20.561l34.286 4.573-4.573 6.859 9.145-9.145-15.996-6.859h-15.996l-4.573 2.286h-13.71l15.996-4.573h18.282l18.275 6.851 20.569 2.286 6.859 2.286h-6.859l2.286 2.286h6.859l2.286 2.286-2.286 4.573v2.286l2.286 2.286-2.286 2.286h-10.206c0.354-1.029 0.542-2.129 0.542-3.276 0-5.586-4.541-10.127-10.127-10.127s-10.127 4.541-10.127 10.127c0 1.147 0.189 2.247 0.542 3.276h-40.548c0.354-1.029 0.542-2.129 0.542-3.276 0-5.586-4.541-10.127-10.127-10.127s-10.127 4.541-10.127 10.127c0 1.147 0.189 2.247 0.542 3.276h-4.604zM78.48 16.31v0c-4.329 0-7.841 3.512-7.841 7.841 0 2.176 0.88 4.14 2.31 5.563h-48.656c1.422-1.422 2.31-3.386 2.31-5.563 0-4.329-3.512-7.841-7.841-7.841s-7.841 3.512-7.841 7.841c0 2.176 0.88 4.14 2.31 5.563h-10.944v2.286h95.992v-2.286h-14.26c1.422-1.422 2.31-3.394 2.31-5.563 0-4.329-3.512-7.841-7.841-7.841zM81.764 24.151c0 1.807-1.469 3.276-3.276 3.276s-3.276-1.469-3.276-3.276h2.286c0 0.542 0.44 0.99 0.99 0.99s0.99-0.44 0.99-0.99h2.286zM78.488 18.597c3.072 0 5.555 2.491 5.555 5.555s-2.491 5.555-5.555 5.555-5.555-2.491-5.555-5.555 2.491-5.555 5.555-5.555v0zM22.038 24.151c0 1.807-1.469 3.276-3.276 3.276s-3.276-1.469-3.276-3.276h2.286c0 0.542 0.44 0.99 0.99 0.99s0.99-0.44 0.99-0.99h2.286zM18.762 18.597c3.072 0 5.555 2.491 5.555 5.555s-2.491 5.563-5.555 5.563-5.555-2.491-5.555-5.563 2.491-5.555 5.555-5.555v0zM5.79 25.141h0.597c-0.024-0.33-0.039-0.66-0.039-0.99 0-6.851 5.563-12.413 12.413-12.413s12.413 5.563 12.413 12.413c0 0.33-0.016 0.66-0.039 0.99h34.97c-0.024-0.33-0.039-0.66-0.039-0.99 0-6.851 5.563-12.413 12.413-12.413s12.413 5.563 12.413 12.413c0 0.33-0.016 0.66-0.039 0.99h6.466l-1.336-1.336v-3.771l1.791-3.583-0.448-0.448h-6.859l-4.958-4.958-16.106-1.791-12.115 12.115-3.206-2.624 3.685-5.531-30.499-4.070h-10.732l-9.145 4.573h-3.7l-1.414 2.828v3.339l3.512 5.264z"></path>
</symbol>
<symbol id="icon-car-suv" viewBox="0 0 81 32">
<path d="M1.651 9.912l8.261-1.651h-6.61l6.61-6.61h-3.302v-1.651h41.311l1.651 1.651h-1.651l9.912 6.61h-3.302l-8.261-6.61h-24.783l-3.302 6.61 14.871 1.651v-6.61h1.651v6.61h41.311l3.302 3.302-3.302 1.651 1.651 1.651h3.302v8.261l-4.959 3.302h-0.651c0.38-0.974 0.588-2.037 0.588-3.15 0-4.807-3.903-8.704-8.71-8.704s-8.704 3.903-8.704 8.704c0 1.107 0.209 2.17 0.588 3.15h-33.069c0.38-0.974 0.588-2.037 0.588-3.15 0-4.807-3.903-8.704-8.71-8.704s-8.704 3.903-8.704 8.704c0 1.107 0.209 2.17 0.588 3.15h-1.556l-8.261-4.946v-3.302h3.302l-1.651-1.651v-8.261zM63.488 24.941c0 2.075 1.676 3.751 3.751 3.751s3.751-1.676 3.751-3.751h-1.651c0 1.158-0.936 2.1-2.1 2.1s-2.1-0.936-2.1-2.1h-1.651zM67.239 17.888c3.896 0 7.053 3.156 7.053 7.053 0 2.17-0.98 4.105-2.517 5.402h5.889v1.651h-76.012v-1.651h11.746c-1.543-1.297-2.518-3.232-2.518-5.402 0-3.896 3.156-7.053 7.053-7.053s7.053 3.156 7.053 7.053c0 2.17-0.98 4.105-2.517 5.402h40.236c-1.543-1.297-2.517-3.232-2.517-5.402 0-3.896 3.156-7.053 7.053-7.053v0zM67.239 19.539c-2.986 0-5.402 2.416-5.402 5.402s2.416 5.402 5.402 5.402 5.402-2.416 5.402-5.402-2.416-5.402-5.402-5.402v0zM14.181 24.941c0 2.075 1.676 3.751 3.751 3.751s3.751-1.676 3.751-3.751h-1.651c0 1.158-0.936 2.1-2.1 2.1s-2.1-0.936-2.1-2.1h-1.651zM17.932 19.539c-2.986 0-5.402 2.416-5.402 5.402s2.416 5.402 5.402 5.402 5.402-2.416 5.402-5.402-2.416-5.402-5.402-5.402v0zM3.302 11.265v6.224l3.991 3.991h-5.642v0.715l5.958 3.574c-0.019-0.278-0.032-0.55-0.032-0.829 0-5.718 4.643-10.361 10.361-10.361s10.361 4.643 10.361 10.361c0 0.5-0.038 0.999-0.108 1.493h28.806c-0.070-0.493-0.108-0.993-0.108-1.493 0-5.718 4.643-10.361 10.361-10.361s10.361 4.643 10.361 10.361c0 0.032 0 0.070 0 0.101l1.714-1.145v-5.724h-2.334l-3.757-3.757 3.302-1.651-1.202-1.202h-42.38l-17.319-1.923 3.998-7.989h-7.382l-4.959 4.959h4.118l0.297 2.979-8.4 1.683z"></path>
</symbol>
<symbol id="icon-angle-up" viewBox="0 0 28 32">
<path d="M12.938 8.938c0.588-0.588 1.537-0.588 2.119 0l10.006 10c0.587 0.587 0.587 1.538 0 2.119s-1.538 0.587-2.119 0l-8.938-8.938-8.944 8.944c-0.588 0.587-1.538 0.587-2.119 0s-0.587-1.538 0-2.119l9.994-10.006z"></path>
</symbol>
<symbol id="icon-linkedin" viewBox="0 0 28 32">
<path d="M6.269 28h-5.806v-18.694h5.806zM3.362 6.756c-1.856 0-3.362-1.537-3.362-3.394s1.505-3.362 3.362-3.362 3.362 1.505 3.362 3.362v0c0 1.856-1.506 3.394-3.362 3.394zM27.994 28h-5.794v-9.1c0-2.169-0.044-4.95-3.019-4.95-3.019 0-3.481 2.356-3.481 4.794v9.256h-5.8v-18.694h5.569v2.55h0.081c0.775-1.469 2.669-3.019 5.494-3.019 5.875 0 6.956 3.869 6.956 8.894v10.269z"></path>
</symbol>
<symbol id="icon-tiktok" viewBox="0 0 28 32">
<path d="M28 13.119c-0.008 0-0.018 0-0.028 0-2.87 0-5.525-0.921-7.685-2.483l0.038 0.026v11.175c-0.002 5.611-4.551 10.159-10.162 10.159-5.613 0-10.162-4.55-10.162-10.163s4.55-10.162 10.162-10.162c0.494 0 0.979 0.035 1.454 0.103l-0.054-0.006v5.619c-0.418-0.136-0.9-0.215-1.4-0.215-2.575 0-4.662 2.087-4.662 4.663s2.087 4.663 4.662 4.663c2.574 0 4.661-2.086 4.662-4.66v-21.838h5.5c-0 0.015-0 0.033-0 0.051 0 0.473 0.043 0.935 0.126 1.384l-0.007-0.047c0.406 2.115 1.638 3.885 3.339 4.995l0.029 0.018c1.177 0.787 2.624 1.256 4.182 1.256 0.002 0 0.004 0 0.006 0h-0z"></path>
</symbol>
<symbol id="icon-youtube" viewBox="0 0 36 32">
<path d="M34.356 7.756c-0.394-1.481-1.55-2.644-3.019-3.037-2.663-0.719-13.338-0.719-13.338-0.719s-10.675 0-13.338 0.719c-1.469 0.394-2.625 1.556-3.019 3.037-0.713 2.681-0.713 8.269-0.713 8.269s0 5.587 0.713 8.269c0.394 1.481 1.55 2.594 3.019 2.988 2.662 0.719 13.338 0.719 13.338 0.719s10.675 0 13.337-0.719c1.469-0.394 2.625-1.512 3.019-2.988 0.712-2.681 0.712-8.269 0.712-8.269s0-5.588-0.712-8.269zM14.512 21.1v-10.15l8.919 5.075-8.919 5.075z"></path>
</symbol>
<symbol id="icon-instagram" viewBox="0 0 28 32">
<path d="M14.006 8.813c-3.975 0-7.181 3.206-7.181 7.181s3.206 7.181 7.181 7.181 7.181-3.206 7.181-7.181-3.206-7.181-7.181-7.181zM14.006 20.663c-2.569 0-4.669-2.094-4.669-4.669s2.094-4.669 4.669-4.669 4.669 2.094 4.669 4.669-2.1 4.669-4.669 4.669zM23.156 8.519c0 0.931-0.75 1.675-1.675 1.675-0.931 0-1.675-0.75-1.675-1.675s0.75-1.675 1.675-1.675 1.675 0.75 1.675 1.675zM27.913 10.219c-0.106-2.244-0.619-4.231-2.262-5.869-1.637-1.638-3.625-2.15-5.869-2.263-2.313-0.131-9.244-0.131-11.556 0-2.237 0.106-4.225 0.619-5.869 2.256s-2.15 3.625-2.263 5.869c-0.131 2.313-0.131 9.244 0 11.556 0.106 2.244 0.619 4.231 2.263 5.869s3.625 2.15 5.869 2.262c2.313 0.131 9.244 0.131 11.556 0 2.244-0.106 4.231-0.619 5.869-2.262 1.637-1.637 2.15-3.625 2.262-5.869 0.131-2.313 0.131-9.238 0-11.55zM24.925 24.25c-0.488 1.225-1.431 2.169-2.663 2.663-1.844 0.731-6.219 0.563-8.256 0.563s-6.419 0.163-8.256-0.563c-1.225-0.488-2.169-1.431-2.663-2.663-0.731-1.844-0.563-6.219-0.563-8.256s-0.163-6.419 0.563-8.256c0.487-1.225 1.431-2.169 2.663-2.662 1.844-0.731 6.219-0.563 8.256-0.563s6.419-0.162 8.256 0.563c1.225 0.487 2.169 1.431 2.663 2.662 0.731 1.844 0.563 6.219 0.563 8.256s0.169 6.419-0.563 8.256z"></path>
</symbol>
<symbol id="icon-facebook-f" viewBox="0 0 20 32">
<path d="M5 18.706v13.294h7.25v-13.294h5.406l1.125-6.113h-6.531v-2.162c0-3.231 1.269-4.469 4.544-4.469 1.019 0 1.837 0.025 2.313 0.075v-5.544c-0.894-0.244-3.081-0.494-4.344-0.494-6.681 0-9.762 3.156-9.762 9.963v2.631h-4.125v6.113h4.125z"></path>
</symbol>
<symbol id="icon-gearbox" viewBox="0 0 32 32">
<path d="M5.333 3c-2.024 0-3.667 1.643-3.667 3.667s1.643 3.667 3.667 3.667 3.667-1.643 3.667-3.667-1.643-3.667-3.667-3.667zM5.333 5c0.92 0 1.667 0.747 1.667 1.667s-0.747 1.667-1.667 1.667-1.667-0.747-1.667-1.667 0.747-1.667 1.667-1.667z"></path>
<path d="M5.333 21.667c-2.024 0-3.667 1.643-3.667 3.667s1.643 3.667 3.667 3.667 3.667-1.643 3.667-3.667-1.643-3.667-3.667-3.667zM5.333 23.667c0.92 0 1.667 0.747 1.667 1.667s-0.747 1.667-1.667 1.667-1.667-0.747-1.667-1.667 0.747-1.667 1.667-1.667z"></path>
<path d="M16 3c-2.024 0-3.667 1.643-3.667 3.667s1.643 3.667 3.667 3.667 3.667-1.643 3.667-3.667-1.643-3.667-3.667-3.667zM16 5c0.92 0 1.667 0.747 1.667 1.667s-0.747 1.667-1.667 1.667-1.667-0.747-1.667-1.667 0.747-1.667 1.667-1.667z"></path>
<path d="M16 21.667c-2.024 0-3.667 1.643-3.667 3.667s1.643 3.667 3.667 3.667 3.667-1.643 3.667-3.667-1.643-3.667-3.667-3.667zM16 23.667c0.92 0 1.667 0.747 1.667 1.667s-0.747 1.667-1.667 1.667-1.667-0.747-1.667-1.667 0.747-1.667 1.667-1.667z"></path>
<path d="M26.667 3c-2.024 0-3.667 1.643-3.667 3.667s1.643 3.667 3.667 3.667 3.667-1.643 3.667-3.667-1.643-3.667-3.667-3.667zM26.667 5c0.92 0 1.667 0.747 1.667 1.667s-0.747 1.667-1.667 1.667-1.667-0.747-1.667-1.667 0.747-1.667 1.667-1.667z"></path>
<path d="M26.667 21.667c-2.024 0-3.667 1.643-3.667 3.667s1.643 3.667 3.667 3.667 3.667-1.643 3.667-3.667-1.643-3.667-3.667-3.667zM26.667 23.667c0.92 0 1.667 0.747 1.667 1.667s-0.747 1.667-1.667 1.667-1.667-0.747-1.667-1.667 0.747-1.667 1.667-1.667z"></path>
<path d="M4.333 9.333v13.333c0 0.552 0.448 1 1 1s1-0.448 1-1v-13.333c0-0.552-0.448-1-1-1s-1 0.448-1 1z"></path>
<path d="M15 9.333v13.333c0 0.552 0.448 1 1 1s1-0.448 1-1v-13.333c0-0.552-0.448-1-1-1s-1 0.448-1 1z"></path>
<path d="M25.667 9.333v5.333c0 0.184-0.149 0.333-0.333 0.333h-20c-0.552 0-1 0.448-1 1s0.448 1 1 1h20c1.289 0 2.333-1.045 2.333-2.333 0-1.945 0-5.333 0-5.333 0-0.552-0.448-1-1-1s-1 0.448-1 1z"></path>
</symbol>
<symbol id="icon-gasoline-pump" viewBox="0 0 32 32">
<path d="M19 6c0-0.552-0.448-1-1-1h-10c-0.552 0-1 0.448-1 1v8c0 0.552 0.448 1 1 1h10c0.552 0 1-0.448 1-1v-8zM17 13h-8v-6h8v6z"></path>
<path d="M30.471 7.091l-3.988-2c-0.495-0.248-1.089-0.046-1.336 0.447s-0.044 1.095 0.45 1.342l1.519 0.759c-0.041 0.109-0.093 0.224-0.093 0.347 0 1.302 0.977 2.402 1.977 2.816v12.184c0 0.551-0.449 1-1 1s-1-0.449-1-1v-8c0-2.414-2-4.434-4-4.899v-6.101c0-2.206-1.747-3.985-3.952-3.985h-12c-2.206 0-4.048 1.78-4.048 3.985v22.382l-1.447 0.724c-0.339 0.169-0.553 0.516-0.553 0.895v3c0 0.552 0.496 1.015 1.048 1.015h22c0.552 0 0.952-0.462 0.952-1.015v-3c0-0.379-0.214-0.725-0.553-0.895l-1.447-0.724v-14.197c1 0.414 2 1.514 2 2.816v8c0 1.654 1.346 3 3 3s3-1.346 3-3v-15c0-0.379-0.19-0.725-0.529-0.895zM23 30h-20v-1.396l1.447-0.724c0.339-0.169 0.553-0.516 0.553-0.895v-23c0-1.103 0.945-1.985 2.048-1.985h12c1.103 0 1.952 0.882 1.952 1.985v23c0 0.379 0.214 0.725 0.553 0.895l1.447 0.724v1.396z"></path>
</symbol>
<symbol id="icon-speedometer" viewBox="0 0 32 32">
<path d="M32 18.93c0 3.51-1.117 6.842-3.231 9.636-0.417 0.552-1.201 0.658-1.751 0.243s-0.659-1.2-0.243-1.751c1.782-2.356 2.725-5.167 2.725-8.128 0-7.461-6.043-13.493-13.5-13.493-7.462 0-13.5 6.036-13.5 13.493 0 2.961 0.942 5.772 2.724 8.128 0.417 0.551 0.308 1.334-0.243 1.751s-1.334 0.308-1.751-0.243c-2.113-2.794-3.23-6.126-3.23-9.636 0-8.844 7.161-15.993 16-15.993 8.844 0 16 7.154 16 15.993zM23.92 11.402c0.488 0.488 0.488 1.28 0 1.768l-4.074 4.074c0.335 0.618 0.526 1.326 0.526 2.078 0 2.411-1.961 4.372-4.372 4.372s-4.372-1.961-4.372-4.372c0-2.411 1.961-4.372 4.372-4.372 0.752 0 1.459 0.191 2.078 0.526l4.074-4.074c0.488-0.488 1.28-0.488 1.768 0zM17.872 19.322c0-1.032-0.84-1.872-1.872-1.872s-1.872 0.84-1.872 1.872 0.84 1.872 1.872 1.872 1.872-0.84 1.872-1.872z"></path>
</symbol>
<symbol id="icon-arrow-right" viewBox="0 0 28 32">
<path d="M27.538 17.087c0.294-0.281 0.462-0.675 0.462-1.088s-0.169-0.8-0.462-1.088l-11-10.5c-0.6-0.575-1.55-0.55-2.119 0.050s-0.55 1.55 0.050 2.119l8.287 7.919h-21.256c-0.831 0-1.5 0.669-1.5 1.5s0.669 1.5 1.5 1.5h21.256l-8.294 7.912c-0.6 0.575-0.619 1.519-0.050 2.119s1.519 0.619 2.119 0.050l11-10.5z"></path>
</symbol>
<symbol id="icon-magnifying-glass" viewBox="0 0 32 32">
<path d="M23 13c0-5.523-4.477-10-10-10s-10 4.477-10 10v0c0 5.523 4.477 10 10 10s10-4.477 10-10v0zM21.069 23.194c-2.212 1.756-5.019 2.806-8.069 2.806-7.181 0-13-5.819-13-13s5.819-13 13-13 13 5.819 13 13c0 3.050-1.050 5.856-2.806 8.069l8.369 8.369c0.587 0.587 0.587 1.538 0 2.119s-1.538 0.587-2.119 0l-8.375-8.363z"></path>
</symbol>
<symbol id="icon-shuffle" viewBox="0 0 32 32">
<path d="M26.563 1.938l5 5c0.587 0.588 0.587 1.537 0 2.119l-5 5c-0.587 0.588-1.538 0.588-2.119 0s-0.587-1.537 0-2.119l2.438-2.438h-4.881c-0.788 0-1.525 0.369-2 1l-2.875 3.831-1.875-2.5 2.35-3.131c1.038-1.388 2.669-2.2 4.4-2.2h4.881l-2.444-2.438c-0.587-0.587-0.587-1.538 0-2.119s1.538-0.587 2.119 0zM12.75 20.169l-2.35 3.131c-1.037 1.387-2.669 2.2-4.4 2.2h-4.5c-0.831 0-1.5-0.669-1.5-1.5s0.669-1.5 1.5-1.5h4.5c0.787 0 1.525-0.369 2-1l2.875-3.831 1.875 2.5zM24.438 17.938c0.587-0.587 1.538-0.587 2.119 0l5 5c0.587 0.587 0.587 1.538 0 2.119l-5 5c-0.587 0.587-1.538 0.587-2.119 0s-0.587-1.538 0-2.119l2.438-2.438h-4.875c-1.731 0-3.363-0.813-4.4-2.2l-9.6-12.8c-0.475-0.631-1.213-1-2-1h-4.5c-0.831 0-1.5-0.669-1.5-1.5s0.669-1.5 1.5-1.5h4.5c1.731 0 3.362 0.813 4.4 2.2l9.6 12.8c0.475 0.631 1.212 1 2 1h4.881l-2.438-2.438c-0.587-0.587-0.587-1.538 0-2.119z"></path>
</symbol>
</defs>
</svg>
