<svg aria-hidden="true" style="position: absolute; width: 0; height: 0; overflow: hidden;" version="1.1" xmlns="http://www.w3.org/2000/svg" xmlns:xlink="http://www.w3.org/1999/xlink">
<defs>
<symbol id="icon-gearbox" viewBox="0 0 32 32">
<path d="M5.333 3c-2.024 0-3.667 1.643-3.667 3.667s1.643 3.667 3.667 3.667 3.667-1.643 3.667-3.667-1.643-3.667-3.667-3.667zM5.333 5c0.92 0 1.667 0.747 1.667 1.667s-0.747 1.667-1.667 1.667-1.667-0.747-1.667-1.667 0.747-1.667 1.667-1.667z"></path>
<path d="M5.333 21.667c-2.024 0-3.667 1.643-3.667 3.667s1.643 3.667 3.667 3.667 3.667-1.643 3.667-3.667-1.643-3.667-3.667-3.667zM5.333 23.667c0.92 0 1.667 0.747 1.667 1.667s-0.747 1.667-1.667 1.667-1.667-0.747-1.667-1.667 0.747-1.667 1.667-1.667z"></path>
<path d="M16 3c-2.024 0-3.667 1.643-3.667 3.667s1.643 3.667 3.667 3.667 3.667-1.643 3.667-3.667-1.643-3.667-3.667-3.667zM16 5c0.92 0 1.667 0.747 1.667 1.667s-0.747 1.667-1.667 1.667-1.667-0.747-1.667-1.667 0.747-1.667 1.667-1.667z"></path>
<path d="M16 21.667c-2.024 0-3.667 1.643-3.667 3.667s1.643 3.667 3.667 3.667 3.667-1.643 3.667-3.667-1.643-3.667-3.667-3.667zM16 23.667c0.92 0 1.667 0.747 1.667 1.667s-0.747 1.667-1.667 1.667-1.667-0.747-1.667-1.667 0.747-1.667 1.667-1.667z"></path>
<path d="M26.667 3c-2.024 0-3.667 1.643-3.667 3.667s1.643 3.667 3.667 3.667 3.667-1.643 3.667-3.667-1.643-3.667-3.667-3.667zM26.667 5c0.92 0 1.667 0.747 1.667 1.667s-0.747 1.667-1.667 1.667-1.667-0.747-1.667-1.667 0.747-1.667 1.667-1.667z"></path>
<path d="M26.667 21.667c-2.024 0-3.667 1.643-3.667 3.667s1.643 3.667 3.667 3.667 3.667-1.643 3.667-3.667-1.643-3.667-3.667-3.667zM26.667 23.667c0.92 0 1.667 0.747 1.667 1.667s-0.747 1.667-1.667 1.667-1.667-0.747-1.667-1.667 0.747-1.667 1.667-1.667z"></path>
<path d="M4.333 9.333v13.333c0 0.552 0.448 1 1 1s1-0.448 1-1v-13.333c0-0.552-0.448-1-1-1s-1 0.448-1 1z"></path>
<path d="M15 9.333v13.333c0 0.552 0.448 1 1 1s1-0.448 1-1v-13.333c0-0.552-0.448-1-1-1s-1 0.448-1 1z"></path>
<path d="M25.667 9.333v5.333c0 0.184-0.149 0.333-0.333 0.333h-20c-0.552 0-1 0.448-1 1s0.448 1 1 1h20c1.289 0 2.333-1.045 2.333-2.333 0-1.945 0-5.333 0-5.333 0-0.552-0.448-1-1-1s-1 0.448-1 1z"></path>
</symbol>
<symbol id="icon-gasoline-pump" viewBox="0 0 32 32">
<path d="M19 6c0-0.552-0.448-1-1-1h-10c-0.552 0-1 0.448-1 1v8c0 0.552 0.448 1 1 1h10c0.552 0 1-0.448 1-1v-8zM17 13h-8v-6h8v6z"></path>
<path d="M30.471 7.091l-3.988-2c-0.495-0.248-1.089-0.046-1.336 0.447s-0.044 1.095 0.45 1.342l1.519 0.759c-0.041 0.109-0.093 0.224-0.093 0.347 0 1.302 0.977 2.402 1.977 2.816v12.184c0 0.551-0.449 1-1 1s-1-0.449-1-1v-8c0-2.414-2-4.434-4-4.899v-6.101c0-2.206-1.747-3.985-3.952-3.985h-12c-2.206 0-4.048 1.78-4.048 3.985v22.382l-1.447 0.724c-0.339 0.169-0.553 0.516-0.553 0.895v3c0 0.552 0.496 1.015 1.048 1.015h22c0.552 0 0.952-0.462 0.952-1.015v-3c0-0.379-0.214-0.725-0.553-0.895l-1.447-0.724v-14.197c1 0.414 2 1.514 2 2.816v8c0 1.654 1.346 3 3 3s3-1.346 3-3v-15c0-0.379-0.19-0.725-0.529-0.895zM23 30h-20v-1.396l1.447-0.724c0.339-0.169 0.553-0.516 0.553-0.895v-23c0-1.103 0.945-1.985 2.048-1.985h12c1.103 0 1.952 0.882 1.952 1.985v23c0 0.379 0.214 0.725 0.553 0.895l1.447 0.724v1.396z"></path>
</symbol>
<symbol id="icon-speedometer" viewBox="0 0 32 32">
<path d="M32 18.93c0 3.51-1.117 6.842-3.231 9.636-0.417 0.552-1.201 0.658-1.751 0.243s-0.659-1.2-0.243-1.751c1.782-2.356 2.725-5.167 2.725-8.128 0-7.461-6.043-13.493-13.5-13.493-7.462 0-13.5 6.036-13.5 13.493 0 2.961 0.942 5.772 2.724 8.128 0.417 0.551 0.308 1.334-0.243 1.751s-1.334 0.308-1.751-0.243c-2.113-2.794-3.23-6.126-3.23-9.636 0-8.844 7.161-15.993 16-15.993 8.844 0 16 7.154 16 15.993zM23.92 11.402c0.488 0.488 0.488 1.28 0 1.768l-4.074 4.074c0.335 0.618 0.526 1.326 0.526 2.078 0 2.411-1.961 4.372-4.372 4.372s-4.372-1.961-4.372-4.372c0-2.411 1.961-4.372 4.372-4.372 0.752 0 1.459 0.191 2.078 0.526l4.074-4.074c0.488-0.488 1.28-0.488 1.768 0zM17.872 19.322c0-1.032-0.84-1.872-1.872-1.872s-1.872 0.84-1.872 1.872 0.84 1.872 1.872 1.872 1.872-0.84 1.872-1.872z"></path>
</symbol>
<symbol id="icon-coupe" viewBox="0 0 32 32">
<path d="M3.337 21h1.568c0.527 0.903 1.491 1.5 2.594 1.5s2.067-0.597 2.586-1.486l0.008-0.014h12.312c0.527 0.903 1.491 1.5 2.594 1.5s2.067-0.597 2.586-1.486l0.008-0.014h2.406c0.828 0 1.5-0.672 1.5-1.5v0-2c0-0.003 0-0.006 0-0.009 0-1.704-1.238-3.118-2.864-3.392l-0.020-0.003-6.376-1.063-3.387-3.386c-0.090-0.090-0.215-0.146-0.354-0.146s-0.263 0.056-0.354 0.146l-1 1c-0.090 0.091-0.146 0.216-0.146 0.354 0 0.103 0.031 0.199 0.085 0.279l-0.001-0.002 1.482 2.223h-4.566v-1.5c0-0.828-0.672-1.5-1.5-1.5s-1.5 0.672-1.5 1.5v0 1.5h-0.61l-0.405-1.621c-0.056-0.219-0.252-0.379-0.485-0.379h-1.197c-0.002 0-0.004 0-0.007 0-1.278 0-2.468 0.373-3.469 1.015l0.026-0.015h-1.853c-0.001 0-0.001 0-0.002 0-0.828 0-1.532 0.534-1.785 1.277l-0.004 0.013c-0.45 1.304-0.71 2.806-0.71 4.37 0 0.001 0 0.002 0 0.003v-0c0.002 1.566 1.271 2.835 2.837 2.837h0zM3.337 20c-0.706-0.003-1.317-0.404-1.621-0.99l-0.005-0.010h2.833c-0.029 0.15-0.045 0.323-0.045 0.5s0.016 0.35 0.048 0.517l-0.003-0.017zM7.5 21.5c-1.105 0-2-0.895-2-2s0.895-2 2-2c1.105 0 2 0.895 2 2v0c0 1.105-0.895 2-2 2v0zM10.455 20c0.029-0.15 0.045-0.323 0.045-0.5s-0.016-0.35-0.048-0.517l0.003 0.017h11.59c-0.029 0.15-0.045 0.323-0.045 0.5s0.016 0.35 0.048 0.517l-0.003-0.017zM25 21.5c-1.105 0-2-0.895-2-2s0.895-2 2-2c1.105 0 2 0.895 2 2v0c0 1.105-0.895 2-2 2v0zM30 20h-2.045c0.029-0.15 0.045-0.323 0.045-0.5s-0.016-0.35-0.048-0.517l0.003 0.017h2.545v0.5c0 0.276-0.224 0.5-0.5 0.5v0zM30.445 17h-0.363c-0.001 0-0.001 0-0.002 0-0.604 0-1.134-0.317-1.434-0.793l-0.004-0.007 0.975-0.585c0.415 0.347 0.711 0.825 0.826 1.369l0.003 0.016zM19.916 13.723l-1.773-2.659 0.357-0.357 3.146 3.146c0.071 0.071 0.164 0.121 0.268 0.139l0.003 0 6.532 1.089c0.026 0.004 0.050 0.014 0.074 0.019l-0.783 0.47c-0.146 0.089-0.243 0.248-0.243 0.429 0 0.056 0.009 0.111 0.027 0.161l-0.001-0.004c0.367 1.079 1.371 1.842 2.553 1.842 0.001 0 0.003 0 0.004 0h-2.487c-0.527-0.903-1.491-1.5-2.594-1.5s-2.067 0.597-2.586 1.486l-0.008 0.014h-9.844c-0.318-1.041-0.516-2.241-0.55-3.482l-0-0.018h7.487c0 0 0 0 0 0 0.276 0 0.5-0.224 0.5-0.5 0-0.103-0.031-0.2-0.085-0.279l0.001 0.002zM12 12c0-0.276 0.224-0.5 0.5-0.5s0.5 0.224 0.5 0.5v0 1.5h-1zM3 13.5h2c0.103-0 0.199-0.032 0.279-0.085l-0.002 0.001c0.848-0.574 1.894-0.916 3.020-0.916 0.002 0 0.004 0 0.006 0h0.807l0.405 1.621c0.056 0.219 0.252 0.379 0.485 0.379h1.014c0.031 1.257 0.216 2.459 0.536 3.603l-0.025-0.103h-1.431c-0.527-0.903-1.491-1.5-2.594-1.5s-2.067 0.597-2.586 1.486l-0.008 0.014h-3.4c0-0.167 0.012-0.334 0.020-0.5h0.974c0.828 0 1.5-0.672 1.5-1.5s-0.672-1.5-1.5-1.5v0h-0.455c0.039-0.131 0.071-0.264 0.114-0.393 0.121-0.355 0.452-0.607 0.841-0.607 0 0 0 0 0.001 0h-0zM1.618 16.5q0.065-0.503 0.171-1h0.71c0.276 0 0.5 0.224 0.5 0.5s-0.224 0.5-0.5 0.5v0z"></path>
<path d="M13 15.5h2v1h-2v-1z"></path>
<path d="M26 19.5c0 0.552-0.448 1-1 1s-1-0.448-1-1c0-0.552 0.448-1 1-1s1 0.448 1 1z"></path>
<path d="M8.5 19.5c0 0.552-0.448 1-1 1s-1-0.448-1-1c0-0.552 0.448-1 1-1s1 0.448 1 1z"></path>
</symbol>
<symbol id="icon-hatchback" viewBox="0 0 32 32">
<path d="M29.15 14.092l-4.937-1.058-1.513-1.134c-2.809-2.116-6.355-3.392-10.198-3.4h-6.002c-0.815 0.002-1.538 0.392-1.995 0.994l-0.005 0.006-3.3 4.4c-0.436 0.578-0.698 1.308-0.7 2.1v3.5c0 1.105 0.895 2 2 2v0h0.675c0.423 1.175 1.527 2 2.825 2s2.402-0.825 2.818-1.979l0.007-0.021h14.35c0.423 1.175 1.527 2 2.825 2s2.402-0.825 2.818-1.979l0.007-0.021h0.675c1.105 0 2-0.895 2-2v0-2.5c-0.006-1.419-1-2.605-2.33-2.904l-0.020-0.004zM30.221 16h-1.221c-0.552 0-1-0.448-1-1v0-0.131l0.939 0.2c0.55 0.124 1.004 0.463 1.277 0.922l0.005 0.009zM8 14h5.49l0.010 0.050v4.45h-3.13c-0.405-1.107-1.263-1.965-2.343-2.361l-0.027-0.009zM14.5 14h8.984c-0.093 1.426-0.559 2.728-1.301 3.827l0.017-0.027-0.465 0.7h-7.235zM22.5 13h-8.19l-0.691-3.454c3.218 0.236 6.129 1.384 8.522 3.184l-0.041-0.030zM12.591 9.504l0.699 3.496h-5.29v-3.5h4.5c0.030 0 0.060 0.004 0.091 0.004zM5.3 10.1c0.118-0.152 0.262-0.278 0.425-0.374l0.007-0.004-1.093 3.277h-1.514zM6 22.5c-1.105 0-2-0.895-2-2s0.895-2 2-2c1.105 0 2 0.895 2 2v0c0 1.105-0.895 2-2 2v0zM26 22.5c-1.105 0-2-0.895-2-2s0.895-2 2-2c1.105 0 2 0.895 2 2v0c0 1.105-0.895 2-2 2v0zM30.5 19.5c0 0.552-0.448 1-1 1v0h-0.5c0-1.657-1.343-3-3-3s-3 1.343-3 3v0h-14c0-1.657-1.343-3-3-3s-3 1.343-3 3v0h-0.5c-0.552 0-1-0.448-1-1v0-3.5c0.001-0.566 0.189-1.087 0.505-1.506l-0.005 0.006 0.375-0.5h2.625c0 0 0 0 0 0 0.22 0 0.406-0.142 0.473-0.338l0.001-0.004 1.386-4.158h0.139v7c0 0.233 0.159 0.429 0.375 0.484l0.003 0.001c1.054 0.269 1.868 1.082 2.132 2.116l0.004 0.020c0.056 0.219 0.252 0.378 0.485 0.378h12c0 0 0 0 0 0 0.173 0 0.325-0.088 0.415-0.221l0.001-0.002 0.613-0.92c0.811-1.198 1.336-2.649 1.448-4.215l0.002-0.028 2.52 0.54v0.345c0 1.105 0.895 2 2 2v0h1.5z"></path>
<path d="M27 20.5c0 0.552-0.448 1-1 1s-1-0.448-1-1c0-0.552 0.448-1 1-1s1 0.448 1 1z"></path>
<path d="M7 20.5c0 0.552-0.448 1-1 1s-1-0.448-1-1c0-0.552 0.448-1 1-1s1 0.448 1 1z"></path>
<path d="M15.5 15h2v1h-2z"></path>
<path d="M8.5 15h2v1h-2z"></path>
</symbol>
<symbol id="icon-sedan" viewBox="0 0 32 32">
<path d="M6.127 19.829c0.12 0 0.24-0.046 0.331-0.137l0.708-0.709c0.183-0.183 0.183-0.48 0-0.663s-0.48-0.183-0.663 0l-0.708 0.709c-0.183 0.183-0.183 0.48 0 0.663 0.092 0.091 0.212 0.137 0.331 0.137z"></path>
<path d="M26.043 19.692c0.091 0.091 0.212 0.137 0.331 0.137s0.24-0.046 0.331-0.137c0.183-0.183 0.183-0.48 0-0.663l-0.709-0.709c-0.183-0.183-0.48-0.183-0.663 0s-0.183 0.48 0 0.663z"></path>
<path d="M30.586 14.887c-2.648-1.229-6.63-1.347-7.434-1.358l-3.798-2.417c-1.122-0.714-2.418-1.092-3.748-1.092h-4.464c-1.156 0-2.313 0.273-3.346 0.79l-2.378 1.189c-0.716 0.358-1.482 0.59-2.277 0.69l-1.853 0.232c-0.735 0.092-1.288 0.719-1.288 1.459v2.992c0 0.876 0.588 1.655 1.43 1.896l2.214 0.633c0.38 1.204 1.508 2.080 2.836 2.080 1.105 0 2.070-0.606 2.583-1.503h14.373c0.513 0.897 1.478 1.503 2.583 1.503 1.64 0 2.974-1.334 2.974-2.974s-1.334-2.974-2.974-2.974-2.974 1.334-2.974 2.974c0 0.182 0.017 0.36 0.049 0.533h-13.689c0.031-0.173 0.049-0.351 0.049-0.533 0-1.64-1.334-2.974-2.974-2.974-1.6 0-2.908 1.27-2.971 2.854l-1.822-0.521c-0.442-0.126-0.75-0.535-0.75-0.994v-1.404h0.533c0.259 0 0.469-0.21 0.469-0.469s-0.21-0.469-0.469-0.469h-0.533v-0.651c0-0.268 0.201-0.496 0.467-0.529l1.853-0.232c0.901-0.113 1.769-0.375 2.58-0.781l0.214-0.107 0.867 0.863c0.562 0.562 1.309 0.871 2.103 0.871h0.966c0.259 0 0.469-0.21 0.469-0.469s-0.21-0.469-0.469-0.469h-0.966c-0.082 0-0.163-0.005-0.243-0.015l0.518-2.288c0.599-0.176 1.223-0.267 1.846-0.267h2.384v2.57h-1.535c-0.259 0-0.469 0.21-0.469 0.469s0.21 0.469 0.469 0.469h11.022c0.044 0 4.473 0.016 7.178 1.272 0.159 0.074 0.3 0.175 0.421 0.295h-0.584c-0.259 0-0.469 0.21-0.469 0.469s0.21 0.469 0.469 0.469h1.026c0.005 0.051 0.009 0.102 0.009 0.154v1.663c0 0.464-0.204 0.753-0.533 0.753-0.259 0-0.469 0.21-0.469 0.469s0.21 0.469 0.469 0.469c0.415 0 0.792-0.171 1.062-0.481 0.267-0.307 0.409-0.725 0.409-1.209v-1.663c-0-0.96-0.555-1.838-1.414-2.237zM26.020 16.97c1.123 0 2.036 0.913 2.036 2.036s-0.913 2.036-2.036 2.036-2.036-0.913-2.036-2.036 0.913-2.036 2.036-2.036zM6.481 16.97c1.123 0 2.036 0.913 2.036 2.036s-0.913 2.036-2.036 2.036-2.036-0.913-2.036-2.036 0.914-2.036 2.036-2.036zM7.891 13.185c-0.11-0.074-0.214-0.159-0.31-0.255l-0.643-0.643 1.277-0.639c0.009-0.004 0.018-0.008 0.026-0.013zM14.465 10.958h1.142c1.151 0 2.274 0.327 3.245 0.945l2.553 1.625h-6.94z"></path>
<path d="M10.99 17.535c-0.259 0-0.469 0.21-0.469 0.469s0.21 0.469 0.469 0.469h10.521c0.259 0 0.469-0.21 0.469-0.469s-0.21-0.469-0.469-0.469z"></path>
</symbol>
<symbol id="icon-suv" viewBox="0 0 32 32">
<path d="M10.5 14h-1c-0.276 0-0.5 0.224-0.5 0.5s0.224 0.5 0.5 0.5v0h1c0.276 0 0.5-0.224 0.5-0.5s-0.224-0.5-0.5-0.5v0z"></path>
<path d="M17 14h-1c-0.276 0-0.5 0.224-0.5 0.5s0.224 0.5 0.5 0.5v0h1c0.276 0 0.5-0.224 0.5-0.5s-0.224-0.5-0.5-0.5v0z"></path>
<path d="M29.83 13.273l-4.422-0.589c-0.792-0.11-1.485-0.469-2.012-0.995l-3.956-3.957c-0.45-0.452-1.073-0.732-1.761-0.732-0.003 0-0.005 0-0.007 0h-13.771c-1.074 0.002-1.989 0.678-2.344 1.628l-0.006 0.017-1.159 3.19c-0.248 0.66-0.392 1.422-0.392 2.218 0 0.001 0 0.002 0 0.003v-0 5.443c0 0.828 0.672 1.5 1.5 1.5v0h1.54c0.252 1.705 1.705 2.999 3.46 2.999s3.208-1.294 3.458-2.98l0.002-0.019h11.080c0.252 1.705 1.705 2.999 3.46 2.999s3.208-1.294 3.458-2.98l0.002-0.019h2.54c0.828 0 1.5-0.672 1.5-1.5v0-3.75c-0.004-1.263-0.941-2.305-2.157-2.476l-0.013-0.002zM31 16.89l-0.764-0.15c-0.439-0.091-0.801-0.363-1.011-0.733l-0.004-0.007h1.778zM1 15h1.364c-0.111 0.184-0.275 0.325-0.471 0.405l-0.007 0.002-0.885 0.354zM6.5 17c-1.755 0.002-3.207 1.295-3.458 2.981l-0.002 0.019h-0.506c0.256-1.983 1.933-3.5 3.966-3.5s3.71 1.517 3.963 3.48l0.002 0.020h-0.505c-0.253-1.705-1.705-2.998-3.46-3h-0zM6.5 23c-1.381 0-2.5-1.119-2.5-2.5s1.119-2.5 2.5-2.5c1.381 0 2.5 1.119 2.5 2.5v0c-0.002 1.38-1.12 2.498-2.5 2.5h-0zM24.5 17c-1.755 0.002-3.207 1.295-3.458 2.981l-0.002 0.019h-0.506c0.256-1.983 1.933-3.5 3.965-3.5s3.71 1.517 3.963 3.48l0.002 0.020h-0.506c-0.253-1.705-1.705-2.998-3.46-3h-0zM24.5 23c-1.381 0-2.5-1.119-2.5-2.5s1.119-2.5 2.5-2.5c1.381 0 2.5 1.119 2.5 2.5v0c-0.002 1.38-1.12 2.498-2.5 2.5h-0zM30.5 20h-1.026c-0.262-2.538-2.389-4.501-4.975-4.501s-4.713 1.963-4.973 4.479l-0.002 0.021h-8.050c-0.262-2.538-2.389-4.501-4.975-4.501s-4.713 1.963-4.973 4.479l-0.002 0.021h-0.024c-0.276 0-0.5-0.224-0.5-0.5v0-2.662l1.257-0.503c0.734-0.297 1.243-1.004 1.243-1.829 0-0.002 0-0.004 0-0.007v0c0-0.276-0.224-0.5-0.5-0.5v0h-1.998c0.006-0.655 0.126-1.281 0.341-1.86l-0.012 0.038 1.16-3.191c0.217-0.58 0.765-0.985 1.409-0.987h13.772c0.001 0 0.003 0 0.004 0 0.413 0 0.787 0.168 1.057 0.439l3.957 3.957c0.678 0.676 1.569 1.138 2.564 1.276l0.024 0.003 4.424 0.589c0.47 0.066 0.864 0.343 1.091 0.729l0.004 0.007h-2.294c-0 0-0 0-0 0-0.276 0-0.5 0.224-0.5 0.5 0 0.057 0.009 0.111 0.027 0.162l-0.001-0.004 0.133 0.4c0.289 0.846 0.994 1.478 1.865 1.658l0.016 0.003 0.96 0.191v1.59c0 0.276-0.224 0.5-0.5 0.5v0z"></path>
<path d="M6.5 18.5c-1.105 0-2 0.895-2 2s0.895 2 2 2c1.105 0 2-0.895 2-2v0c0-1.105-0.895-2-2-2v0zM6.5 21.5c-0.552 0-1-0.448-1-1s0.448-1 1-1c0.552 0 1 0.448 1 1v0c0 0.552-0.448 1-1 1v0z"></path>
<path d="M24.5 18.5c-1.105 0-2 0.895-2 2s0.895 2 2 2c1.105 0 2-0.895 2-2v0c0-1.105-0.895-2-2-2v0zM24.5 21.5c-0.552 0-1-0.448-1-1s0.448-1 1-1c0.552 0 1 0.448 1 1v0c0 0.552-0.448 1-1 1v0z"></path>
<path d="M6.5 8.5h-2.307c-0.639 0.002-1.183 0.401-1.401 0.963l-0.003 0.010-0.75 2c-0.060 0.156-0.095 0.337-0.095 0.527 0 0.828 0.672 1.5 1.5 1.5h3.057c0.276 0 0.5-0.224 0.5-0.5v0-4c0-0.276-0.224-0.5-0.5-0.5v0zM6 12.5h-2.557c-0.276-0-0.5-0.224-0.5-0.5 0-0.063 0.012-0.123 0.033-0.179l-0.001 0.003 0.75-2c0.073-0.191 0.255-0.324 0.468-0.325h1.807z"></path>
<path d="M13 8.5h-4.5c-0.276 0-0.5 0.224-0.5 0.5v0 4c0 0.276 0.224 0.5 0.5 0.5v0h4.5c0.276 0 0.5-0.224 0.5-0.5v0-4c0-0.276-0.224-0.5-0.5-0.5v0zM12.5 12.5h-3.5v-3h3.5z"></path>
<path d="M18.939 9.232c-0.091-0.094-0.219-0.153-0.36-0.153-0.276 0-0.5 0.224-0.5 0.5 0 0.141 0.058 0.269 0.152 0.36l2.561 2.561h-5.293v-3h1.5c0.276 0 0.5-0.224 0.5-0.5s-0.224-0.5-0.5-0.5v0h-2c-0.276 0-0.5 0.224-0.5 0.5v0 4c0 0.276 0.224 0.5 0.5 0.5v0h7c0.276-0 0.5-0.224 0.5-0.5 0-0.138-0.056-0.263-0.146-0.354v0z"></path>
</symbol>
<symbol id="icon-arrow-right" viewBox="0 0 28 32">
<path d="M27.538 17.087c0.294-0.281 0.462-0.675 0.462-1.088s-0.169-0.8-0.462-1.088l-11-10.5c-0.6-0.575-1.55-0.55-2.119 0.050s-0.55 1.55 0.050 2.119l8.287 7.919h-21.256c-0.831 0-1.5 0.669-1.5 1.5s0.669 1.5 1.5 1.5h21.256l-8.294 7.912c-0.6 0.575-0.619 1.519-0.050 2.119s1.519 0.619 2.119 0.050l11-10.5z"></path>
</symbol>
<symbol id="icon-magnifying-glass" viewBox="0 0 32 32">
<path d="M23 13c0-5.523-4.477-10-10-10s-10 4.477-10 10v0c0 5.523 4.477 10 10 10s10-4.477 10-10v0zM21.069 23.194c-2.212 1.756-5.019 2.806-8.069 2.806-7.181 0-13-5.819-13-13s5.819-13 13-13 13 5.819 13 13c0 3.050-1.050 5.856-2.806 8.069l8.369 8.369c0.587 0.587 0.587 1.538 0 2.119s-1.538 0.587-2.119 0l-8.375-8.363z"></path>
</symbol>
<symbol id="icon-shuffle" viewBox="0 0 32 32">
<path d="M26.563 1.938l5 5c0.587 0.588 0.587 1.537 0 2.119l-5 5c-0.587 0.588-1.538 0.588-2.119 0s-0.587-1.537 0-2.119l2.438-2.438h-4.881c-0.788 0-1.525 0.369-2 1l-2.875 3.831-1.875-2.5 2.35-3.131c1.038-1.388 2.669-2.2 4.4-2.2h4.881l-2.444-2.438c-0.587-0.587-0.587-1.538 0-2.119s1.538-0.587 2.119 0zM12.75 20.169l-2.35 3.131c-1.037 1.387-2.669 2.2-4.4 2.2h-4.5c-0.831 0-1.5-0.669-1.5-1.5s0.669-1.5 1.5-1.5h4.5c0.787 0 1.525-0.369 2-1l2.875-3.831 1.875 2.5zM24.438 17.938c0.587-0.587 1.538-0.587 2.119 0l5 5c0.587 0.587 0.587 1.538 0 2.119l-5 5c-0.587 0.587-1.538 0.587-2.119 0s-0.587-1.538 0-2.119l2.438-2.438h-4.875c-1.731 0-3.363-0.813-4.4-2.2l-9.6-12.8c-0.475-0.631-1.213-1-2-1h-4.5c-0.831 0-1.5-0.669-1.5-1.5s0.669-1.5 1.5-1.5h4.5c1.731 0 3.362 0.813 4.4 2.2l9.6 12.8c0.475 0.631 1.212 1 2 1h4.881l-2.438-2.438c-0.587-0.587-0.587-1.538 0-2.119z"></path>
</symbol>
</defs>
</svg>
