<svg id="Layer_1" height="512" viewBox="0 0 64 64" width="512" xmlns="http://www.w3.org/2000/svg"><path d="m14 42.5c-2.481 0-4.5 2.019-4.5 4.5s2.019 4.5 4.5 4.5 4.5-2.019 4.5-4.5-2.019-4.5-4.5-4.5zm0 7c-1.379 0-2.5-1.122-2.5-2.5s1.121-2.5 2.5-2.5 2.5 1.122 2.5 2.5-1.121 2.5-2.5 2.5z"/><path d="m54.436 36.105 1.09-2.724 5.028 2.514c.451.225.999.08 1.279-.34l2-3c.3-.449.188-1.055-.251-1.369l-6.784-4.845c-1.419-3.134-4.912-4.801-8.26-3.886l-12.311 3.358-2.05-2.05c-.886-.886-1.917-1.575-3.062-2.046-1.145-.476-2.36-.717-3.614-.717-2.154 0-4.267.758-5.935 2.102l-2.389-2.348 1.501-3.753h7.323c.811 0 1.565-.317 2.107-.874.576-.56.893-1.315.893-2.126 0-1.654-1.346-3-3-3h-9c-1.596 0-3.068.868-3.844 2.264l-3.796 6.829-5.524.921c-.482.08-.836.498-.836.986v6.586l-4.708 4.706c-.212.212-.317.507-.288.806.029.298.191.567.44.733l3 2c.352.235.815.222 1.154-.032l3.113-2.335 1.561 2.602c-1.128.535-2.151 1.256-3.052 2.156-2.078 2.079-3.223 4.84-3.223 7.777s1.145 5.698 3.223 7.777c2.079 2.079 4.841 3.223 7.777 3.223s5.698-1.145 7.777-3.223c2.078-2.079 3.223-4.84 3.223-7.777 0-1.123-.176-2.22-.51-3.276l2.72-1.555 2.016 2.464c.19.232.475.367.774.367h7c.309 0 .601-.143.79-.387l1.93-2.483 2.79 1.594c-.334 1.056-.51 2.153-.51 3.276 0 6.065 4.935 11 11 11s11-4.935 11-11c0-5.578-4.177-10.188-9.565-10.895zm-5.373-11.72c2.086-.569 4.236.264 5.434 1.96l-14.19 3.547-2.451-2.451 11.207-3.057zm-18.713-.82c.903.372 1.715.915 2.413 1.612l6.53 6.53c.248.249.611.348.949.263l15.553-3.888 5.836 4.169-.974 1.46-5.21-2.605c-.219-.11-.473-.135-.71-.07l-8.565 2.332c-1.627.453-3.102 1.38-4.202 2.633h-11.47l-3.895-5.193c-.642-.871-1.5-1.588-2.479-2.071-.962-.481-2.044-.735-3.127-.735h-1.586l2.823-2.823c2.082-2.082 5.418-2.733 8.112-1.612zm-10.24.912-3.524 3.523h-3.586v-6h4.591zm-3.206-10.241c.423-.762 1.227-1.235 2.096-1.235h9c.552 0 1 .449 1 1 0 .267-.103.513-.306.712-.182.186-.428.288-.694.288h-8c-.409 0-.776.249-.929.628l-1.748 4.372h-3.623zm-5.904 7.945v5.819h-4v-5.153l4-.667zm10.028 30.433-.661-.661c-.391-.391-1.023-.391-1.414 0s-.391 1.024 0 1.414l.661.661c-1.59 1.275-3.548 1.972-5.614 1.972s-4.024-.696-5.614-1.972l.661-.661c.391-.39.391-1.023 0-1.414s-1.023-.391-1.414 0l-.661.661c-1.275-1.59-1.972-3.548-1.972-5.614s.697-4.024 1.972-5.614l.661.661c.195.195.966.453 1.414 0 .388-.393.391-1.024 0-1.414l-.664-.663c.801-.642 1.698-1.138 2.68-1.477.926-.327 1.914-.493 2.937-.493 2.066 0 4.024.696 5.614 1.972l-.661.661c-.391.39-.391 1.023 0 1.414.615.453 1.219.195 1.414 0l.661-.661c.546.683.988 1.436 1.312 2.252.002.003.003.007.004.01.436 1.063.656 2.191.656 3.351 0 2.066-.697 4.024-1.972 5.614zm2.692-10.753c-.508-.967-1.157-1.852-1.943-2.638-2.079-2.079-4.841-3.223-7.777-3.223-.967 0-1.911.125-2.814.366l-1.42-2.366h10.76l5.399 6.6-2.206 1.261zm12.79 1.139h-6.035l-8.701-10.633c-.189-.232-.474-.367-.773-.367h-13.001c-.217 0-.427.07-.6.2l-3.435 2.575-1.396-.931 3.845-3.845h14.586c.774 0 1.547.181 2.236.526.697.345 1.306.852 1.764 1.474l4.2 5.6c.188.252.485.4.8.4h10.396l-3.886 5zm6.721-5.387c.863-1.112 2.099-1.936 3.473-2.318l6.623-1.803-1.013 2.534c-3.853.237-7.249 2.447-9.027 5.839l-2.326-1.329 2.271-2.922zm10.77 18.328v-.941c0-.552-.447-1-1-1s-1 .448-1 1v.941c-4.165-.463-7.478-3.777-7.941-7.941h.941c.553 0 1-.448 1-1s-.447-1-1-1h-.939c.091-.809.287-1.599.598-2.358 1.246-3.113 4.067-5.206 7.341-5.567v.925c0 .552.447 1 1 1s1-.448 1-1v-.941c4.165.463 7.478 3.777 7.941 7.941h-.941c-.553 0-1 .448-1 1s.447 1 1 1h.941c-.463 4.164-3.776 7.478-7.941 7.941z"/><path d="m53 42.5c-2.481 0-4.5 2.019-4.5 4.5s2.019 4.5 4.5 4.5 4.5-2.019 4.5-4.5-2.019-4.5-4.5-4.5zm0 7c-1.379 0-2.5-1.122-2.5-2.5s1.121-2.5 2.5-2.5 2.5 1.122 2.5 2.5-1.121 2.5-2.5 2.5z"/></svg>