<?xml version="1.0" encoding="iso-8859-1"?>
<!-- Generator: Adobe Illustrator 19.0.0, SVG Export Plug-In . SVG Version: 6.00 Build 0)  -->
<svg version="1.1" id="Layer_1" xmlns="http://www.w3.org/2000/svg" xmlns:xlink="http://www.w3.org/1999/xlink" x="0px" y="0px"
	 viewBox="0 0 512 512" style="enable-background:new 0 0 512 512;" xml:space="preserve">
<g>
	<g>
		<g>
			<path d="M496,192h-48c-8.848,0-16,7.168-16,16v16h-16v-16c0-8.832-7.152-16-16-16h-25.376l-43.296-43.296
				c-1.472-1.488-3.248-2.656-5.216-3.472C324.16,144.432,322.08,144,320,144h-48v-32h32c8.848,0,16-7.168,16-16
				c0-8.832-7.152-16-16-16H160c-8.848,0-16,7.168-16,16c0,8.832,7.152,16,16,16h32v32h-48c-0.512,0-0.944,0.24-1.44,0.288
				c-1.152,0.112-2.224,0.32-3.312,0.672c-0.944,0.304-1.808,0.64-2.672,1.104c-0.896,0.48-1.712,1.04-2.528,1.696
				c-0.848,0.704-1.584,1.44-2.272,2.288c-0.336,0.4-0.784,0.64-1.088,1.088L103.44,192H64c-8.848,0-16,7.168-16,16v48H32v-48
				c0-8.832-7.152-16-16-16s-16,7.168-16,16v144c0,8.832,7.152,16,16,16s16-7.168,16-16v-64h16v64c0,8.832,7.152,16,16,16h38.112
				l27.584,55.152c0.752,1.504,1.744,2.816,2.864,3.968c0.224,0.24,0.512,0.4,0.752,0.608c1.136,1.04,2.4,1.872,3.776,2.544
				c0.464,0.224,0.928,0.432,1.424,0.608c1.744,0.656,3.568,1.104,5.456,1.12c0.016,0,0.016,0,0.032,0h192
				c2.336,0,4.528-0.56,6.528-1.456c0.528-0.24,0.928-0.672,1.424-0.96c1.456-0.864,2.8-1.824,3.92-3.088
				c0.176-0.208,0.448-0.272,0.624-0.496l59.2-74H432v16c0,8.832,7.152,16,16,16h48c8.848,0,16-7.168,16-16V208
				C512,199.168,504.848,192,496,192z M480,352h-16v-16c0-8.832-7.152-16-16-16h-48c-0.304,0-0.56,0.16-0.864,0.176
				c-1.088,0.064-2.112,0.352-3.168,0.64c-0.992,0.272-1.968,0.464-2.88,0.896c-0.832,0.4-1.536,1.008-2.304,1.552
				c-0.928,0.672-1.84,1.312-2.608,2.176c-0.208,0.224-0.48,0.32-0.672,0.56l-59.2,74H153.888l-27.584-55.152
				c-0.352-0.704-0.96-1.168-1.408-1.808c-0.672-0.96-1.264-1.92-2.128-2.72c-0.768-0.704-1.648-1.168-2.528-1.696
				c-0.864-0.544-1.664-1.12-2.64-1.488c-1.104-0.416-2.272-0.528-3.456-0.704c-0.72-0.096-1.376-0.432-2.144-0.432H80V224h32h0.016
				c1.904,0,3.76-0.448,5.536-1.12c0.352-0.128,0.704-0.24,1.056-0.4c1.616-0.736,3.104-1.712,4.416-2.976
				c0.256-0.24,0.448-0.528,0.688-0.784c0.544-0.592,1.136-1.152,1.584-1.84L152.56,176H208c8.848,0,16-7.168,16-16v-48h16v48
				c0,8.832,7.152,16,16,16h57.376l43.296,43.296c1.472,1.488,3.248,2.656,5.216,3.472c1.952,0.8,4.032,1.232,6.112,1.232h16v16
				c0,8.832,7.152,16,16,16h48c8.848,0,16-7.168,16-16v-16h16V352z"/>
			<path d="M312.96,226.736c-7.344-4.96-17.264-3.024-22.224,4.288l-66.24,97.904L185.76,299.04
				c-7.024-5.408-17.04-4.096-22.432,2.896c-5.392,6.992-4.096,17.04,2.896,22.432l52.224,40.288
				c2.816,2.192,6.256,3.344,9.776,3.344c0.848,0,1.68-0.064,2.544-0.208c4.352-0.704,8.24-3.168,10.704-6.832l75.776-112
				C322.208,241.632,320.272,231.696,312.96,226.736z"/>
		</g>
	</g>
</g>
<g>
</g>
<g>
</g>
<g>
</g>
<g>
</g>
<g>
</g>
<g>
</g>
<g>
</g>
<g>
</g>
<g>
</g>
<g>
</g>
<g>
</g>
<g>
</g>
<g>
</g>
<g>
</g>
<g>
</g>
</svg>
