<svg id="Capa_1" enable-background="new 0 0 512 512" height="512" viewBox="0 0 512 512" width="512" xmlns="http://www.w3.org/2000/svg"><g><path d="m497 345.433h-34.292c-7.288-49.912-50.372-88.366-102.275-88.366-51.902 0-94.986 38.454-102.274 88.366h-243.159c-8.284 0-15 6.716-15 15s6.716 15 15 15h243.159c7.288 49.913 50.372 88.367 102.274 88.367 51.903 0 94.987-38.454 102.275-88.367h34.292c8.284 0 15-6.716 15-15s-6.716-15-15-15zm-136.567 88.367c-40.454 0-73.366-32.912-73.366-73.367 0-40.454 32.912-73.366 73.366-73.366 40.455 0 73.367 32.912 73.367 73.366 0 40.455-32.912 73.367-73.367 73.367z"/><path d="m15 166.567h34.292c7.288 49.912 50.372 88.366 102.275 88.366 51.902 0 94.986-38.454 102.274-88.366h243.159c8.284 0 15-6.716 15-15s-6.716-15-15-15h-243.159c-7.288-49.913-50.372-88.367-102.274-88.367-51.903 0-94.987 38.454-102.275 88.367h-34.292c-8.284 0-15 6.716-15 15s6.716 15 15 15zm136.567-88.367c40.454 0 73.366 32.912 73.366 73.367 0 40.454-32.912 73.366-73.366 73.366-40.455 0-73.367-32.912-73.367-73.366 0-40.455 32.912-73.367 73.367-73.367z"/></g></svg>