<svg height="512" viewBox="0 0 64 64" width="512" xmlns="http://www.w3.org/2000/svg"><g id="Layer_32" data-name="Layer 32"><path d="m58.3 28.184-9.874-2.116-3.026-2.268a34.212 34.212 0 0 0 -20.4-6.8h-12a5.025 5.025 0 0 0 -4 2l-6.6 8.8a7.04 7.04 0 0 0 -1.4 4.2v7a4 4 0 0 0 4 4h1.35a5.99 5.99 0 0 0 11.3 0h28.7a5.99 5.99 0 0 0 11.3 0h1.35a4 4 0 0 0 4-4v-5a5.98 5.98 0 0 0 -4.7-5.816zm2.143 3.816h-2.443a2 2 0 0 1 -2-2v-.262l1.879.4a3.955 3.955 0 0 1 2.564 1.862zm-44.443-4h10.98l.02.1v8.9h-6.26a7.855 7.855 0 0 0 -4.74-4.74zm13 0h17.968a15.452 15.452 0 0 1 -2.568 7.6l-.93 1.4h-14.47zm16-2h-16.38l-1.382-6.908a32.216 32.216 0 0 1 16.962 6.308zm-19.818-6.993 1.398 6.993h-10.58v-7h9c.061 0 .121.007.182.007zm-14.582 1.193a2.986 2.986 0 0 1 .864-.755l-2.185 6.555h-3.029zm1.4 24.8a4 4 0 1 1 4-4 4 4 0 0 1 -4 4zm40 0a4 4 0 1 1 4-4 4 4 0 0 1 -4 4zm9-6a2 2 0 0 1 -2 2h-1a6 6 0 0 0 -12 0h-28a6 6 0 0 0 -12 0h-1a2 2 0 0 1 -2-2v-7a5.028 5.028 0 0 1 1-3l.75-1h5.25a1 1 0 0 0 .949-.684l2.772-8.316h.279v14a1 1 0 0 0 .757.97 5.863 5.863 0 0 1 4.273 4.273 1 1 0 0 0 .97.757h24a1 1 0 0 0 .832-.445l1.227-1.84a17.446 17.446 0 0 0 2.9-8.487l5.041 1.081v.691a4 4 0 0 0 4 4h3z"/><circle cx="52" cy="41" r="2"/><circle cx="12" cy="41" r="2"/><path d="m31 30h4v2h-4z"/><path d="m17 30h4v2h-4z"/></g></svg>