<svg id="OBJECT" height="512" viewBox="0 0 512 512" width="512" xmlns="http://www.w3.org/2000/svg"><path d="m403.5 46h-42.5v-11a35 35 0 0 0 -35-35h-140a35 35 0 0 0 -35 35v11h-42.5a55.06 55.06 0 0 0 -55 55v356a55.06 55.06 0 0 0 55 55h295a55.06 55.06 0 0 0 55-55v-356a55.06 55.06 0 0 0 -55-55zm-222.5-11a5 5 0 0 1 5-5h140a5 5 0 0 1 5 5v54a5 5 0 0 1 -5 5h-140a5 5 0 0 1 -5-5zm247.5 422a25 25 0 0 1 -25 25h-295a25 25 0 0 1 -25-25v-356a25 25 0 0 1 25-25h42.5v13a35 35 0 0 0 35 35h140a35 35 0 0 0 35-35v-13h42.5a25 25 0 0 1 25 25z"/><path d="m356 164h-200a35 35 0 0 0 -35 35v220a35 35 0 0 0 35 35h200a35 35 0 0 0 35-35v-220a35 35 0 0 0 -35-35zm5 255a5 5 0 0 1 -5 5h-200a5 5 0 0 1 -5-5v-220a5 5 0 0 1 5-5h200a5 5 0 0 1 5 5z"/><path d="m311 294h-110a15 15 0 0 0 0 30h110a15 15 0 0 0 0-30z"/><path d="m311 364h-110a15 15 0 0 0 0 30h110a15 15 0 0 0 0-30z"/><path d="m201 254h60a15 15 0 0 0 0-30h-60a15 15 0 0 0 0 30z"/></svg>