<svg id="Capa_1" enable-background="new 0 0 512.012 512.012" height="512" viewBox="0 0 512.012 512.012" width="512" xmlns="http://www.w3.org/2000/svg"><g><path d="m286.689 204.091c-5.858 5.858-5.858 15.355 0 21.213s15.355 5.858 21.213 0 5.858-15.355 0-21.213c-5.857-5.858-15.355-5.858-21.213 0z"/><path d="m73.182 375.116c-17.545 17.545-17.545 46.093 0 63.639 17.544 17.545 46.094 17.546 63.641 0 17.545-17.546 17.545-46.094 0-63.639-17.547-17.546-46.096-17.546-63.641 0zm42.427 42.426c-5.841 5.841-15.373 5.841-21.214 0-5.849-5.849-5.848-15.365 0-21.213 5.849-5.849 15.365-5.849 21.214 0 5.848 5.848 5.848 15.364 0 21.213z"/><path d="m371.542 13.172c-17.545-17.544-46.094-17.544-63.639 0l-21.214 21.213c-5.854 5.853-5.858 15.356 0 21.213l10.607 10.607-21.213 21.213-10.607-10.607c-5.858-5.857-15.356-5.858-21.213 0l-106.066 106.067c-2.813 2.813-4.394 6.628-4.394 10.606s1.58 7.793 4.394 10.606l21.213 21.213c2.085 2.085 4.757 3.513 7.646 4.099.296.06 18.369 3.819 38.813 13.073l-65.584 65.541c-37.838-13.486-80.686-4.171-109.53 24.673-45.973 45.973-39.947 122.871 14.999 161.005 34.622 24.028 82.062 24.422 116.957 1.049 41.372-27.713 57.137-78.339 41.209-123.085 16.139-16.13 41.004-40.963 65.594-65.542 9.256 20.445 13.015 38.518 13.072 38.803.581 2.904 2.009 5.571 4.103 7.665l21.214 21.214c5.852 5.854 15.356 5.857 21.213 0l106.065-106.068c5.858-5.858 5.858-15.355 0-21.213l-10.606-10.606 21.214-21.214 10.607 10.607c5.854 5.855 15.357 5.857 21.213 0l21.213-21.213c17.586-17.587 17.59-46.052 0-63.64zm-195.915 344.351c-4.496 4.496-5.669 11.336-2.929 17.073 16.22 33.954 4.998 74.001-26.683 95.223-24.582 16.465-58.776 16.149-83.156-.77-40.414-28.049-42.991-83.046-10.891-115.147 22.443-22.443 56.753-28.336 85.373-14.663 5.735 2.738 12.573 1.568 17.069-2.925l78.406-78.355c4.048 2.983 7.91 6.235 11.447 9.772 3.536 3.536 6.787 7.396 9.769 11.443-21.004 20.998-66.548 66.492-78.405 78.349zm142.882-15.546-7.548-7.548c-7.473-30.666-22.9-65.326-45.486-87.912-22.594-22.594-57.264-38.019-87.912-45.485l-7.547-7.548 84.853-84.853 148.492 148.492zm84.853-127.279-106.066-106.066 21.213-21.213 106.066 106.066zm74.246-31.82-10.606 10.606-137.882-137.881c-.001-.001-.002-.003-.004-.004s-.003-.002-.004-.004l-10.603-10.603 10.607-10.606c5.849-5.849 15.364-5.848 21.213 0l127.279 127.279c5.863 5.863 5.863 15.349 0 21.213z"/></g></svg>