<?xml version="1.0" encoding="UTF-8"?>
<svg id="Layer_2" xmlns="http://www.w3.org/2000/svg" viewBox="0 0 682.67 520">
  <g id="svg2274">
    <g id="g2280">
      <g id="g2282">
        <g id="g2284">
          <g id="g2290">
            <path d="M140,520c-55.14,0-100-44.86-100-100,0-11.05,8.95-20,20-20s20,8.95,20,20c0,33.08,26.92,60,60,60,16.19,0,31.56-6.3,43.25-17.73,11.66-11.4,18.08-26.41,18.08-42.27,0-11.05,8.95-20,20-20s20,8.95,20,20c0,26.72-10.7,51.89-30.12,70.87-19.22,18.78-44.51,29.13-71.22,29.13Z"/>
          </g>
          <g id="g2294">
            <path d="M461.33,40h-120c-11.05,0-20-8.95-20-20S330.29,0,341.33,0h120c11.05,0,20,8.95,20,20s-8.95,20-20,20Z"/>
          </g>
          <g id="g2298">
            <path d="M100,360H20c-11.05,0-20-8.95-20-20s8.95-20,20-20h80c11.05,0,20,8.95,20,20s-8.95,20-20,20Z"/>
          </g>
          <g id="g2302">
            <path d="M261.33,280H100c-11.05,0-20-8.96-20-20v-80c0-11.05,8.95-20,20-20h161.33c33.08,0,60,26.92,60,60s-26.92,60-60,60ZM120,240h141.33c11.03,0,20-8.97,20-20s-8.97-20-20-20H120v40Z"/>
          </g>
          <g id="g2306">
            <path d="M100,200c-11.05,0-20-8.95-20-20v-80c0-11.05,8.95-20,20-20s20,8.95,20,20v80c0,11.05-8.95,20-20,20Z"/>
          </g>
          <g id="g2310">
            <path d="M461.33,440H20C8.96,440,0,431.05,0,420v-80C0,284.86,44.86,240,100,240c11.05,0,20,8.95,20,20s-8.95,20-20,20c-33.08,0-60,26.92-60,60v60h413.05l114.14-114.14c7.81-7.81,20.47-7.81,28.29,0,7.81,7.81,7.81,20.47,0,28.29l-120,120c-3.75,3.75-8.84,5.86-14.14,5.86Z"/>
          </g>
          <g id="g2314">
            <path d="M541.33,520c-55.14,0-100-44.86-100-100,0-11.05,8.95-20,20-20s20,8.95,20,20c0,33.08,26.92,60,60,60s60-26.92,60-60c0-11.05,8.95-20,20-20s20,8.95,20,20c0,55.14-44.86,100-100,100Z"/>
          </g>
          <g id="g2318">
            <path d="M541.33,120h-80c-33.08,0-60-26.92-60-60,0-11.03-8.97-20-20-20s-20-8.95-20-20S370.29,0,381.33,0c33.08,0,60,26.92,60,60,0,11.03,8.97,20,20,20h60v-40h-60c-11.05,0-20-8.95-20-20S450.29,0,461.33,0h80c11.05,0,20,8.95,20,20v80c0,11.05-8.95,20-20,20Z"/>
          </g>
          <g id="g2322">
            <path d="M662.67,440h-201.33c-11.05,0-20-8.95-20-20s8.95-20,20-20h179.38c-6.47-32.9-28.55-62.23-59.88-77.89l-8.45-4.22c-9.88-4.94-13.88-16.95-8.94-26.83,4.94-9.88,16.95-13.88,26.83-8.94l8.45,4.22c24.91,12.45,45.94,31.44,60.83,54.9,15.12,23.82,23.11,51.06,23.11,78.77,0,11.05-8.95,20-20,20Z"/>
          </g>
          <g id="g2326">
            <path d="M405.93,360h-144.6c-11.05,0-20-8.95-20-20v-80c0-11.05,8.95-20,20-20s20,8.95,20,20v60h118.09c26.35-20.39,41.91-51.89,41.91-85.43V100c0-11.05,8.95-20,20-20s20,8.95,20,20v134.57c0,48.7-23.95,94.27-64.05,121.9-3.34,2.3-7.29,3.53-11.35,3.53Z"/>
          </g>
          <g id="g2330">
            <path d="M581.33,320c-2.47,0-4.99-.46-7.42-1.44-10.24-4.09-15.22-15.7-11.17-25.94.35-.91,16.57-43.83.02-85.2-17.85-44.62-73.68-91.6-74.24-92.07-8.47-7.08-9.61-19.69-2.54-28.17,7.07-8.48,19.67-9.62,28.16-2.56,2.61,2.17,64.14,53.86,85.77,107.94,22.71,56.77.94,112.51,0,114.85-3.13,7.82-10.64,12.58-18.58,12.58Z"/>
          </g>
        </g>
      </g>
    </g>
  </g>
</svg>