<svg id="_04_Naked" viewBox="0 0 512 512" xmlns="http://www.w3.org/2000/svg" data-name="04 Naked"><path d="m485.33 284.37c-3.29-2.95-8.35-2.67-11.3.63-2.95 3.29-2.67 8.35.63 11.3 13.56 12.14 21.33 29.52 21.33 47.71 0 35.29-28.71 64-64 64s-64-28.71-64-64c0-4.42-3.58-8-8-8s-8 3.58-8 8c0 44.11 35.89 80 80 80s80-35.89 80-80c0-22.73-9.72-44.46-26.67-59.63z"/><path d="m359.16 275.58 16-32c1.98-3.95.37-8.76-3.58-10.73s-8.76-.37-10.73 3.58l-12.9 25.79-65.42-21.81c-.82-.27-1.67-.41-2.53-.41h-45.78l-20.33-12.2c11.92-5.54 16.96-15.6 21.27-24.22 5.68-11.37 9.79-19.58 28.84-19.58 43.04 0 73.05 44 73.34 44.44 2.45 3.68 7.42 4.67 11.09 2.22 3.68-2.45 4.67-7.42 2.22-11.09-1.4-2.11-34.97-51.56-86.66-51.56-28.94 0-36.82 15.76-43.16 28.42-5.68 11.37-9.79 19.58-28.84 19.58h-45.71l-62.05-38.78c-.99-.62-2.09-1.01-3.25-1.15l-64-8c-3.1-.39-6.15 1.07-7.8 3.73-1.64 2.66-1.59 6.04.15 8.64l10.83 16.25c4.28 6.42 10.34 11.34 17.51 14.2l8.38 3.35-40 10c-4.29 1.07-6.89 5.42-5.82 9.7.91 3.64 4.17 6.06 7.75 6.06.64 0 1.29-.08 1.95-.24l2.6-.65-11.97 29.92c-1.64 4.1.35 8.76 4.46 10.4.97.39 1.98.57 2.97.57 3.17 0 6.18-1.9 7.43-5.03l16-40c.08-.21.15-.42.22-.64l38.86-9.72 57.3 38.2-2.83 6.6c-9.16-3.56-18.95-5.41-28.98-5.41-44.11 0-80 35.89-80 80s35.89 80 80 80c25.3 0 48.9-11.89 64-32h55.86s.09 0 .14 0 .09 0 .14 0h99.87c11.03 0 20-8.97 20-20s-8.97-20-20-20h-20c-4.42 0-8 3.58-8 8s3.58 8 8 8h20c2.21 0 4 1.79 4 4s-1.79 4-4 4h-97.78l-72.24-43.34 24.45-6.6 14.92 22.38c1.54 2.31 4.08 3.56 6.66 3.56 1.52 0 3.07-.44 4.43-1.34 3.68-2.45 4.67-7.42 2.22-11.09l-11.93-17.9 12.08-3.26 10.8 14.4c1.57 2.1 3.97 3.2 6.41 3.2 1.67 0 3.36-.52 4.79-1.6 3.54-2.65 4.25-7.67 1.6-11.2l-5.94-7.92 43.41-37.21c3.35-2.88 3.74-7.93.87-11.28s-7.92-3.74-11.28-.87l-42.62 36.53-3.95-5.26 48.06-41.2h27.74l28.49 9.5-6.5 6.5h-20.69c-2.12 0-4.16.84-5.66 2.34l-16 16c-3.12 3.12-3.12 8.19 0 11.31 1.56 1.56 3.61 2.34 5.66 2.34s4.09-.78 5.66-2.34l13.66-13.66h20.69c2.12 0 4.16-.84 5.66-2.34l14.5-14.5 25.31 8.44c.84.28 1.69.41 2.53.41 2.96 0 5.77-1.65 7.16-4.42zm-263.16 132.42c-35.29 0-64-28.71-64-64s28.71-64 64-64c7.94 0 15.59 1.44 22.68 4.1l-10.97 25.6-4.74-2.85c-3.11-1.86-6.67-2.85-10.29-2.85h-6.25c-6.7 0-12.92 3.33-16.64 8.91l-5.16 7.74c-3.11 4.66-4.12 10.45-2.78 15.88 1.34 5.44 4.93 10.09 9.84 12.77l40.68 22.19c-4.9 2.92-10.53 4.51-16.36 4.51-12.65 0-24.14-7.47-29.27-19.04-1.79-4.04-6.52-5.86-10.56-4.07s-5.86 6.52-4.07 10.56c7.7 17.34 24.92 28.55 43.89 28.55 11.8 0 23.08-4.35 31.8-12.08l13.65 7.44c.36.2.73.37 1.1.56-12 12.72-28.75 20.08-46.55 20.08zm91.12-32h-27.47c-3.67 0-7.31-.93-10.53-2.69l-69.77-38.06c-1.35-.73-1.81-1.92-1.97-2.55-.16-.64-.29-1.9.56-3.18l5.16-7.74c.74-1.12 1.99-1.78 3.33-1.78h6.25c.73 0 1.44.2 2.06.57zm-60.19-54.77-5.37-3.22 11.32-26.41c8.19 5.76 15.02 13.47 19.82 22.67zm41.51-11.21c-5.97-12.74-15.17-23.65-26.83-31.76-.77-.54-1.56-1.06-2.34-1.56l2.08-4.86 45.08 30.05 2.04 2.72-20.03 5.4zm22.96-24.04-114.96-76.64s-.09-.05-.14-.08c-.13-.09-.27-.17-.41-.24-.09-.05-.19-.11-.29-.15-.15-.07-.29-.14-.44-.2-.06-.03-.12-.06-.19-.09l-31.35-12.54c-4.15-1.66-7.65-4.5-10.13-8.22l-1.14-1.7 44.91 5.61 61.04 38.15 15.04 22.57c1.1 1.66 2.79 2.84 4.72 3.32l32 8c.65.16 1.3.24 1.95.24 3.58 0 6.85-2.43 7.75-6.06 1.07-4.29-1.53-8.63-5.82-9.7l-29-7.25-5.99-8.99h30.84l37.99 22.8-36.38 31.19z"/><path d="m248 320c-13.23 0-24 10.77-24 24s10.77 24 24 24 24-10.77 24-24-10.77-24-24-24zm0 32c-4.41 0-8-3.59-8-8s3.59-8 8-8 8 3.59 8 8-3.59 8-8 8z"/><path d="m339.58 280.84c-3.95-1.97-8.76-.37-10.73 3.58l-4.68 9.37c-.68 1.36-2.05 2.21-3.58 2.21h-4.58c-11.03 0-20 8.97-20 20s8.97 20 20 20c2.21 0 4 1.79 4 4v4c0 4.42 3.58 8 8 8s8-3.58 8-8v-4c0-11.03-8.97-20-20-20-2.21 0-4-1.79-4-4s1.79-4 4-4h4.58c7.62 0 14.48-4.24 17.89-11.06l4.68-9.37c1.98-3.95.37-8.76-3.58-10.73z"/><path d="m312 128c4.42 0 8-3.58 8-8v-.59c6.83 6.14 14.38 15.66 15.76 28.44l-22.45-3.74c-4.35-.73-8.48 2.22-9.21 6.58s2.22 8.48 6.58 9.21l9.32 1.55v17.22c0 4.01 2.97 7.4 6.94 7.93l36.79 4.91 31.82 81.32c-17.81 9.14-32.03 24.83-38.99 44.51-1.47 4.17.71 8.74 4.88 10.21.88.31 1.78.46 2.67.46 3.29 0 6.38-2.05 7.54-5.34 5.38-15.22 16.18-27.46 29.76-34.86l5.89 15.05c-13.95 8.41-23.31 23.7-23.31 41.14 0 26.47 21.53 48 48 48s48-21.53 48-48-21.53-48-48-48c-3.36 0-6.63.35-9.8 1.01l-5.89-15.04c5.05-1.28 10.31-1.97 15.68-1.97 7.32 0 14.5 1.22 21.33 3.64 4.17 1.47 8.74-.71 10.21-4.88s-.71-8.74-4.88-10.21c-8.55-3.02-17.52-4.55-26.67-4.55-7.41 0-14.65 1.03-21.55 2.97l-4.85-12.4 20.93-6.98c2.3-.77 4.13-2.54 4.97-4.81s.61-4.81-.64-6.89l-24-40c-1.45-2.41-4.05-3.88-6.86-3.88h-18.89l-13.66-34.92c-1.03-2.62-3.36-4.51-6.13-4.98l-9.36-1.56c-.73-28.29-22.39-45.09-31.96-51.15v-3.4c0-4.42-3.58-8-8-8s-8 3.58-8 8v24c0 4.42 3.58 8 8 8zm101.27 190.08 11.28 28.83c1.24 3.16 4.25 5.09 7.45 5.09.97 0 1.96-.18 2.91-.55 4.11-1.61 6.14-6.25 4.54-10.37l-11.29-28.85c1.26-.15 2.54-.24 3.84-.24 17.64 0 32 14.35 32 32s-14.36 32-32 32-32-14.35-32-32c0-10.65 5.24-20.1 13.27-25.92zm-17.8-110.08 16.54 27.56-12.25 4.08-12.38-31.65h8.1zm-59.47-43.89 18.21 3.03 2.87 7.33-21.07-2.81v-7.55z"/><circle cx="280" cy="312" r="8"/><circle cx="288" cy="336" r="8"/></svg>