<svg id="_09_Chopper" viewBox="0 0 512 512" xmlns="http://www.w3.org/2000/svg" data-name="09 Chopper"><path d="m313.74 291.93-2.94-1.47c.79-2.36 1.2-4.84 1.2-7.38 0-6.93-3.04-13.3-8.04-17.65l15.63-46.9c1.4-4.19-.87-8.72-5.06-10.12s-8.72.87-10.12 5.06l-15.07 45.21-6.81-2.27c-4.19-1.4-8.72.87-10.12 5.06s.87 8.72 5.06 10.12l13.49 4.5c3.01 1 5.04 3.81 5.04 6.99 0 1.54-.47 3.02-1.37 4.28l-37.14 51.99c-2.57 3.6-1.74 8.59 1.86 11.16 1.41 1.01 3.03 1.49 4.64 1.49 2.5 0 4.96-1.16 6.52-3.35l31.82-44.54 4.26 2.13c.65.33.92.86 1.03 1.25s.16.98-.23 1.6l-31.23 49.97c-.37.59-1 .94-1.7.94h-73.37c-4.36 0-8.58-1.28-12.2-3.7l-8.88-5.92c-5.96-3.97-12.86-6.14-20-6.34 0-.01 0-.03 0-.04 0-3.06-.19-6.07-.52-9.04 4.43-1.25 8.49-3.62 11.84-6.96l4.69-4.69c2.14-2.14 4.98-3.31 8-3.31 4.42 0 8-3.58 8-8s-3.58-8-8-8c-7.3 0-14.16 2.84-19.31 8l-4.69 4.69c-1.14 1.14-2.48 1.99-3.94 2.56-10.45-32.03-40.59-55.24-76.06-55.24-6.66 0-13.27.85-19.68 2.48l-4.59-12.63 28.3-9.43c6.66-2.22 14.04-1.11 19.75 2.97l21.84 15.6c6.66 4.76 14.4 7.1 22.1 7.1 1.46 0 2.93-.1 4.38-.26-.06.72-.1 1.44-.1 2.18 0 13.23 10.77 24 24 24 3.76 0 7.32-.87 10.49-2.42.54 1.06 1.16 2.09 1.86 3.08l37.14 51.99c1.56 2.19 4.02 3.35 6.52 3.35 1.61 0 3.23-.48 4.64-1.49 3.59-2.57 4.43-7.56 1.86-11.16l-37.14-51.99c-.9-1.26-1.37-2.74-1.37-4.28 0-3.18 2.02-5.98 5.04-6.99l13.49-4.5c4.19-1.4 6.46-5.93 5.06-10.12s-5.93-6.46-10.12-5.06l-13.49 4.5c-.78.26-1.52.57-2.25.9-2.64-5.6-7.38-10.02-13.21-12.24 6.81-6.29 12.7-11.49 12.79-11.57 3.31-2.93 3.62-7.98.7-11.29-2.93-3.31-7.98-3.62-11.29-.7-.55.49-13.61 12.04-23.68 21.86-7.61 7.41-19.43 8.3-28.1 2.11l-21.84-15.6c-9.86-7.04-22.61-8.96-34.1-5.13l-28.71 9.57-22.05-60.65c6.31 4.1 13.91 13.48 20.2 32.36 1.4 4.19 5.92 6.46 10.12 5.06 4.19-1.4 6.46-5.93 5.06-10.12-18.32-54.96-48.83-45.49-50.12-45.06-2.05.68-3.73 2.16-4.67 4.11-.94 1.94-1.05 4.19-.32 6.21l36.81 101.23c-5.41 2.6-10.54 5.8-15.26 9.58-3.45 2.76-4 7.8-1.24 11.25s7.8 4.01 11.25 1.24c3.39-2.71 6.98-5.04 10.75-6.98l11.98 32.95h-14.76c-4.42 0-8 3.58-8 8s3.58 8 8 8h95.48c.33 2.62.52 5.29.52 8h-80c-4.42 0-8 3.58-8 8s3.58 8 8 8h43.71c-5.6 9.65-16.07 16-27.71 16-15.16 0-28.35-10.76-31.36-25.59-.88-4.33-5.1-7.12-9.43-6.25-4.33.88-7.13 5.1-6.25 9.43 4.52 22.26 24.3 38.41 47.04 38.41 20.49 0 38.57-13.12 45.26-32h16.72c-7.12 27.57-32.21 48-61.97 48-35.29 0-64-28.71-64-64 0-9.99 2.24-19.56 6.66-28.44 1.97-3.96.36-8.76-3.6-10.73-3.95-1.97-8.76-.36-10.73 3.6-5.53 11.11-8.33 23.08-8.33 35.56 0 44.11 35.89 80 80 80 38.63 0 70.96-27.53 78.39-64h.53c4.36 0 8.58 1.28 12.2 3.7l8.88 5.92c6.26 4.18 13.55 6.38 21.08 6.38h73.37c6.25 0 11.95-3.16 15.26-8.46l31.23-49.97c2.68-4.29 3.43-9.54 2.06-14.42-1.37-4.87-4.75-8.96-9.28-11.22zm-137.74-27.93c4.41 0 8 3.59 8 8s-3.59 8-8 8-8-3.59-8-8 3.59-8 8-8zm-96.21 56-2.85-7.85c1.02-.1 2.04-.15 3.07-.15 7.95 0 15.43 2.94 21.16 8zm41.78 0c-8.51-14.73-24.3-24-41.57-24-2.91 0-5.81.28-8.65.79l-5.53-15.22c4.6-1.04 9.35-1.57 14.19-1.57 26.8 0 49.8 16.57 59.31 40h-17.74z"/><path d="m485.33 284.37c-3.29-2.95-8.35-2.67-11.3.63-2.95 3.29-2.67 8.35.63 11.3 13.56 12.14 21.33 29.52 21.33 47.71 0 35.29-28.71 64-64 64s-64-28.71-64-64c0-4.42-3.58-8-8-8s-8 3.58-8 8c0 44.11 35.89 80 80 80s80-35.89 80-80c0-22.73-9.72-44.46-26.67-59.63z"/><path d="m272 280c0-13.23-10.77-24-24-24s-24 10.77-24 24 10.77 24 24 24 24-10.77 24-24zm-24 8c-4.41 0-8-3.59-8-8s3.59-8 8-8 8 3.59 8 8-3.59 8-8 8z"/><path d="m285.12 168.54c-2.03-1.73-4.31-3.23-6.81-4.48-10.07-5.02-22.67-5.41-34.57-1.06-26.56 9.7-48.91 42.71-42.71 63.09 1.47 4.83 4.75 8.64 9.48 10.99 4.15 2.07 9.29 2.9 14.86 2.9 13.67 0 29.87-4.98 40.07-8.7 21.79-7.96 34.89-29.62 29.21-48.3-.04-.12-.08-.24-.12-.36l15.81-3.95 70.42 103.95c-10.8 9.01-19.29 20.88-24.18 34.72-1.47 4.17.71 8.74 4.88 10.21.88.31 1.78.46 2.67.46 3.29 0 6.38-2.05 7.54-5.34 3.73-10.55 10.07-19.66 18.12-26.73l9.07 13.39c-9.14 8.74-14.85 21.05-14.85 34.67 0 26.47 21.53 48 48 48s48-21.53 48-48-21.53-48-48-48c-7.1 0-13.84 1.56-19.91 4.34l-9.06-13.38c8.8-4.48 18.68-6.96 28.98-6.96 7.32 0 14.5 1.22 21.33 3.64 4.17 1.47 8.74-.71 10.21-4.88s-.71-8.74-4.88-10.21c-8.55-3.02-17.52-4.55-26.67-4.55-13.57 0-26.57 3.45-38 9.64l-50.37-74.35c3.03.49 5.9.71 8.37.71 11.8 0 16-16.53 16-32s-4.2-32-16-32-30.94 4.5-37.66 20.05l-36.66-54.11c-5.91-8.73-15.73-13.94-26.28-13.94-9.69 0-18.73 4.34-24.78 11.91l-24.87 31.09c-2.76 3.45-2.2 8.48 1.25 11.24s8.48 2.2 11.24-1.25l24.87-31.09c3-3.75 7.48-5.91 12.29-5.91 5.23 0 10.1 2.58 13.03 6.91l36.34 53.65-14.72 3.68c-.32.08-.64.19-.94.3zm-25.17 47.71c-18.82 6.87-36.22 9.55-42.3 6.52-1.07-.53-1.21-1-1.31-1.33-2.76-9.06 11.04-35.42 32.9-43.4 3.74-1.37 7.52-2.05 11.13-2.05 3.91 0 7.61.8 10.81 2.4 2.88 1.44 6.63 4.21 8.17 9.25 3.2 10.5-5.69 23.6-19.39 28.61zm148.06 106.6 17.36 25.63c1.55 2.28 4.07 3.51 6.63 3.51 1.54 0 3.11-.45 4.48-1.38 3.66-2.48 4.62-7.45 2.14-11.11l-17.38-25.65c3.36-1.2 6.98-1.86 10.75-1.86 17.64 0 32 14.35 32 32s-14.36 32-32 32-32-14.35-32-32c0-8.1 3.03-15.5 8.01-21.15zm-58.47-170.72c1.1 2.58 2.46 8.22 2.46 15.87s-1.35 13.27-2.45 15.86c-2.53-.23-6.68-.82-10.74-2.35-9.69-3.63-10.81-9.45-10.81-13.51 0-12.8 15.38-15.36 21.54-15.87z"/><circle cx="248" cy="320" r="8"/></svg>