<?xml version="1.0" encoding="UTF-8"?>
<svg id="Layer_2" xmlns="http://www.w3.org/2000/svg" viewBox="0 0 682.67 415.46">
  <g id="svg117">
    <g id="g123">
      <g id="g125">
        <g id="g127">
          <g id="g133">
            <path d="M106.19,415.46C47.64,415.46,0,367.83,0,309.27s47.64-106.2,106.19-106.2c32.23,0,62.34,14.39,82.63,39.48,3.47,4.3,2.8,10.59-1.49,14.06s-10.59,2.81-14.06-1.49c-16.47-20.37-40.92-32.06-67.07-32.06-47.53,0-86.19,38.67-86.19,86.2s38.67,86.19,86.19,86.19,86.19-38.67,86.19-86.19c0-4.2-.3-8.42-.9-12.54-.8-5.47,2.99-10.54,8.46-11.34,5.46-.8,10.54,2.99,11.34,8.46.74,5.07,1.11,10.26,1.11,15.42,0,58.56-47.64,106.19-106.19,106.19Z"/>
          </g>
          <g id="g137">
            <path d="M576.47,415.46c-58.56,0-106.2-47.64-106.2-106.19s47.64-106.19,106.2-106.19,106.19,47.64,106.19,106.19-47.64,106.19-106.19,106.19ZM576.47,223.08c-47.53,0-86.2,38.67-86.2,86.19s38.67,86.19,86.2,86.19,86.19-38.67,86.19-86.19-38.67-86.19-86.19-86.19Z"/>
          </g>
          <g id="g141">
            <path d="M576.48,319.27c-3.88,0-7.57-2.27-9.2-6.06L444.58,26.9c-1.8-4.19-5.9-6.9-10.46-6.9h-17.97c-5.52,0-10-4.48-10-10s4.48-10,10-10h17.97c12.57,0,23.89,7.46,28.84,19.02l122.71,286.31c2.18,5.08-.18,10.96-5.25,13.13-1.28.55-2.62.81-3.93.81Z"/>
          </g>
          <g id="g145">
            <path d="M106.2,340.65c-12.9,0-24.34-7.74-29.14-19.73-3.11-7.78-3.01-16.31.29-24.01,3.3-7.71,9.41-13.66,17.19-16.77l160.32-64.13c7.77-3.11,16.3-3.02,24,.29,7.71,3.3,13.67,9.41,16.78,17.2,3.11,7.78,3.01,16.3-.29,24.01-3.3,7.7-9.41,13.66-17.19,16.77l-160.32,64.13c-3.72,1.49-7.64,2.25-11.65,2.25ZM266.52,233.76c-1.43,0-2.86.27-4.22.82l-160.33,64.13c-2.82,1.13-5.04,3.29-6.23,6.08-1.2,2.79-1.23,5.88-.11,8.71,1.74,4.35,5.89,7.16,10.57,7.16,1.44,0,2.86-.28,4.21-.82l160.33-64.13c2.82-1.13,5.04-3.29,6.23-6.08s1.23-5.88.11-8.7c-1.13-2.83-3.29-5.04-6.08-6.24-1.44-.62-2.96-.92-4.47-.92Z"/>
          </g>
          <g id="g149">
            <path d="M245.97,236.27c-4.19,0-8.09-2.65-9.49-6.84l-3.46-10.38c-4.17-12.49-13.63-22.31-25.96-26.94l-36.34-13.63c-18.49-6.93-34.06-20.19-43.86-37.34l-29.35-51.37c-2.74-4.8-1.07-10.9,3.72-13.64,4.8-2.74,10.9-1.07,13.64,3.72l29.35,51.37c7.49,13.1,19.39,23.23,33.52,28.53l36.35,13.63c18.01,6.75,31.83,21.09,37.91,39.34l3.46,10.38c1.75,5.24-1.09,10.9-6.33,12.65-1.05.35-2.11.52-3.16.52Z"/>
          </g>
          <g id="g153">
            <path d="M357.37,297.89h-67.74c-14.99,0-28.96-8.07-36.45-21.05-2.76-4.78-1.12-10.9,3.67-13.66,4.79-2.76,10.9-1.12,13.66,3.67,3.93,6.81,11.25,11.04,19.12,11.04h67.74c5.52,0,10,4.48,10,10s-4.48,10-10,10Z"/>
          </g>
          <g id="g157">
            <path d="M384.09,267.72c-1.12,0-2.26-.19-3.37-.59-5.2-1.86-7.91-7.58-6.04-12.79l29.92-83.59c11.58-32.36,33.51-57.92,61.76-71.97,17.71-8.81,36.78-13.28,56.69-13.28,38.2,0,74.06,16.91,98.41,46.39,3.52,4.26,2.92,10.56-1.34,14.08-4.26,3.52-10.56,2.92-14.08-1.34-20.53-24.86-50.78-39.12-82.99-39.12-16.79,0-32.86,3.76-47.78,11.18-23.6,11.74-42,33.33-51.84,60.8l-29.92,83.59c-1.46,4.09-5.31,6.63-9.42,6.63Z"/>
          </g>
          <g id="g161">
            <path d="M421.06,98.83c-3.67,0-7.2-2.03-8.95-5.53-2.47-4.94-.47-10.95,4.47-13.42l47.25-23.63c4.94-2.47,10.95-.47,13.42,4.47,2.47,4.94.47,10.95-4.47,13.42l-47.25,23.63c-1.44.72-2.96,1.06-4.46,1.06Z"/>
          </g>
          <g id="g165">
            <path d="M437.53,137.57c-3.67,0-7.2-2.03-8.95-5.53l-18.87-37.74c-5.09-10.18-17.36-14.85-27.93-10.62l-49.99,20c-21.1,8.44-44.04,10.55-66.33,6.09l-48.74-9.75c-17.26-3.45-34.94-5.2-52.54-5.2H10c-5.52,0-10-4.48-10-10s4.48-10,10-10h154.18c18.91,0,37.91,1.88,56.46,5.59l48.75,9.75c18.48,3.69,37.49,1.95,54.98-5.05l49.99-20c20.15-8.06,43.54.83,53.25,20.24l18.87,37.74c2.47,4.94.47,10.95-4.47,13.42-1.44.72-2.96,1.06-4.46,1.06Z"/>
          </g>
          <g id="g169">
            <path d="M210.3,142.14c-.65,0-1.31-.06-1.97-.2-14.51-2.9-29.36-4.37-44.16-4.37h-29.92c-5.52,0-10-4.48-10-10s4.48-10,10-10h29.92c16.11,0,32.29,1.6,48.08,4.76,5.42,1.08,8.93,6.35,7.84,11.77-.95,4.75-5.13,8.04-9.79,8.04Z"/>
          </g>
          <g id="g173">
            <path d="M412.82,184.11c-3.68,0-7.22-2.04-8.96-5.55l-8.43-16.97c-8.67-17.45-29.63-25.46-47.72-18.22-28.86,11.54-60.18,14.42-90.62,8.33l-3.21-.64c-5.42-1.08-8.93-6.35-7.85-11.77s6.35-8.93,11.77-7.85l3.21.64c26.63,5.32,54.02,2.81,79.23-7.27,13.53-5.41,28.44-5.53,42.02-.35,13.58,5.18,24.62,15.21,31.08,28.22l8.43,16.97c2.46,4.95.44,10.95-4.51,13.4-1.43.71-2.95,1.05-4.44,1.05Z"/>
          </g>
          <g id="g177">
            <path d="M277.92,234.22c-1.41,0-2.84-.3-4.21-.93-5.01-2.33-7.18-8.27-4.85-13.28l37.61-80.92c2.33-5.01,8.27-7.18,13.28-4.85s7.18,8.27,4.85,13.28l-37.61,80.92c-1.69,3.64-5.3,5.79-9.07,5.79Z"/>
          </g>
          <g id="g181">
            <path d="M357.37,297.89c-20.25,0-36.72-16.47-36.72-36.72s16.47-36.72,36.72-36.72,36.72,16.47,36.72,36.72-16.47,36.72-36.72,36.72ZM357.37,244.45c-9.22,0-16.72,7.5-16.72,16.72s7.5,16.72,16.72,16.72,16.72-7.5,16.72-16.72-7.5-16.72-16.72-16.72Z"/>
          </g>
          <g id="g185">
            <path d="M341.33,244.45c-5.52,0-10-4.48-10-10v-32.06c0-23.19,18.87-42.06,42.07-42.06h32.06c5.52,0,10,4.48,10,10s-4.48,10-10,10h-32.06c-12.17,0-22.07,9.9-22.07,22.06v32.06c0,5.52-4.48,10-10,10Z"/>
          </g>
          <g id="g189">
            <path d="M576.47,372.71c-34.98,0-63.44-28.46-63.44-63.44,0-24.56,14.39-47.14,36.65-57.52,5.01-2.33,10.96-.17,13.29,4.84,2.33,5,.17,10.96-4.84,13.29-15.25,7.11-25.1,22.58-25.1,39.39,0,23.95,19.49,43.44,43.44,43.44s43.44-19.49,43.44-43.44c0-15.54-8.04-29.79-20.97-37.19-4.79-2.74-6.46-8.85-3.72-13.65s8.85-6.46,13.65-3.72c19.15,10.95,31.04,31.85,31.04,54.55,0,34.98-28.46,63.44-63.44,63.44Z"/>
          </g>
          <g id="g193">
            <path d="M106.19,372.71c-34.98,0-63.44-28.46-63.44-63.44,0-26.29,15.81-49.48,40.29-59.08,5.14-2.02,10.94.52,12.96,5.66,2.02,5.14-.52,10.94-5.66,12.96-16.76,6.57-27.59,22.46-27.59,40.46,0,23.95,19.49,43.44,43.44,43.44s42.26-18.14,43.39-41.29c.27-5.52,4.95-9.77,10.47-9.5,5.52.27,9.77,4.96,9.5,10.47-1.64,33.82-29.48,60.32-63.37,60.32Z"/>
          </g>
        </g>
      </g>
    </g>
  </g>
</svg>