<?xml version="1.0" encoding="UTF-8"?>
<svg xmlns="http://www.w3.org/2000/svg" viewBox="0 0 64 64" width="512" height="512"><g id="Layer_32" data-name="Layer 32"><path d="M53,32a9.953,9.953,0,0,0-2.153.261l-1.4-2.317A3.922,3.922,0,0,0,50,30h3a1,1,0,0,0,1-1V23a1,1,0,0,0-1-1H50a3.992,3.992,0,0,0-3.755,2.669l-7.39-12.188A1,1,0,0,0,38,12H30a3,3,0,0,0,0,6h5.511l4.317,7.012a14.706,14.706,0,0,0-7.849,2.467l-1.664,1.109A2.924,2.924,0,0,0,29.214,30H25a2.224,2.224,0,0,1-2-1.236A4.973,4.973,0,0,0,18.528,26H16.472a8.173,8.173,0,0,0-7.041,4H7a1,1,0,0,0-1,1v1.09A6.006,6.006,0,0,0,1,38v2a1,1,0,0,0,1,1H4.055c-.033.332-.055.665-.055,1a9.985,9.985,0,0,0,17.977,6H36a6.515,6.515,0,0,0,6.2-4.487l.86-2.614A10,10,0,1,0,53,32Zm-3-8h2v4H50a2,2,0,0,1,0-4ZM36.07,16H30a1,1,0,0,1,0-2h7.437l16.3,26.874A.767.767,0,0,1,53.057,42a.794.794,0,0,1-.7-.456L36.921,16.476A1,1,0,0,0,36.07,16ZM49.325,40.438l1.295,2.1a2.765,2.765,0,1,0,4.85-2.656L54.51,38.3a4.011,4.011,0,1,1-5.185,2.138Zm-17.9-10.186,1.664-1.109A12.712,12.712,0,0,1,40.165,27a.836.836,0,0,1,.835.835V30a2,2,0,0,1-2,2H31.954a.954.954,0,0,1-.529-1.748ZM32,44a2,2,0,1,1,2,2A2,2,0,0,1,32,44Zm3-9a6.192,6.192,0,0,1-1,2.915A6.192,6.192,0,0,1,33,35a1,1,0,0,1,2,0Zm-2,4.665v.477a3.979,3.979,0,0,0-1.432.7L28.794,36.09c.146-.072.3-.133.438-.214l1.782-1.018c0,.048-.014.093-.014.142C31,35.956,31.632,38.708,33,39.665Zm3.432,1.182a3.965,3.965,0,0,0-1.432-.7v-.477c1.368-.957,2-3.709,2-4.665a2.966,2.966,0,0,0-.184-1h.419l2.393,1.367ZM16.472,28h2.056a2.985,2.985,0,0,1,2.683,1.658A4.212,4.212,0,0,0,25,32h4.172a2.95,2.95,0,0,0,.749,1.179l-1.681.961A6.549,6.549,0,0,1,25,35H21.118A10.041,10.041,0,0,0,20,34.023V31a1,1,0,0,0-1-1H11.893A6.2,6.2,0,0,1,16.472,28ZM20,42a5.949,5.949,0,0,0-.433-2.2A.983.983,0,0,0,20,39V36.714A7.99,7.99,0,0,1,22,42Zm-3,0a1,1,0,0,0-1,1v2.453A3.953,3.953,0,0,1,14,46a4,4,0,0,1-4-4,3.952,3.952,0,0,1,.546-2h6.908A3.952,3.952,0,0,1,18,42ZM8,35.816A2.966,2.966,0,0,0,9,36h8a2.966,2.966,0,0,0,1-.184V38H8ZM8,32H18v1a1,1,0,0,1-1,1H9a1,1,0,0,1-1-1ZM3,39V38a4,4,0,0,1,3-3.858v1.873A9.994,9.994,0,0,0,4.471,39ZM14,50A7.977,7.977,0,0,1,6.335,39.735.985.985,0,0,0,7,40H8.348a5.972,5.972,0,0,0,7.85,7.567A.982.982,0,0,0,17,48h2.284A7.981,7.981,0,0,1,14,50Zm11-4H18V44h7a1,1,0,0,1,0,2Zm0-4H24a9.981,9.981,0,0,0-1.356-5H25a8.52,8.52,0,0,0,1.878-.225l3.392,5.814A3.853,3.853,0,0,0,30.556,46H27.829A3,3,0,0,0,25,42Zm15.3.888a4.508,4.508,0,0,1-2.691,2.805,3.846,3.846,0,0,0,.12-3.1L41.864,35.5a1,1,0,0,0-.368-1.372l-.859-.491a4,4,0,0,0,2.349-3.5l.984,1.6Zm5.041-8.92.595.967a10,10,0,0,0-1.6,2.088ZM53,50a7.988,7.988,0,0,1-5.977-13.3l1.119,1.818a5.984,5.984,0,1,0,4.976-2.511l-1.169-1.929A8.164,8.164,0,0,1,53,34a8,8,0,0,1,0,16Z"/></g></svg>
