<?xml version="1.0" encoding="UTF-8"?>
<svg id="Layer_2" xmlns="http://www.w3.org/2000/svg" viewBox="0 0 128 42.59">
  <defs>
    <style>
      .cls-1 {
        fill: #404041;
        fill-rule: evenodd;
      }
    </style>
  </defs>
  <g id="Layer_1-2" data-name="Layer_1">
    <path class="cls-1" d="M2.85,34.06L0,25.52v-2.85l2.85-2.76v-5.69h2.84l2.85-2.84H2.85L8.54,2.85,17.07,0h51.21l22.76,11.38h-5.69l-17.07-8.54H28.45l-5.69,5.69,8.53,5.69,2.85-8.54h2.84l-2.84,8.54h19.92l-2.85-8.54h2.85l2.84,8.54h51.21l11.38,2.84,5.69,2.85-2.87,2.82h5.69v5.69l-2.82,2.79v2.84l-2.85,2.85h-10.44c.44-1.28.68-2.65.68-4.08,0-6.96-5.65-12.61-12.61-12.61s-12.61,5.65-12.61,12.61c0,1.43.24,2.8.67,4.08h-52.38c.44-1.28.68-2.65.68-4.08,0-6.96-5.65-12.61-12.61-12.61s-12.61,5.65-12.61,12.61c0,1.43.24,2.8.67,4.08h-3.25l-5.69-2.85h0ZM99.96,23.06c5.39,0,9.76,4.37,9.76,9.76,0,2.7-1.1,5.15-2.88,6.92h15.49v2.84H2.85v-2.84h13.98c-1.78-1.77-2.88-4.22-2.88-6.92,0-5.39,4.37-9.76,9.76-9.76s9.76,4.37,9.76,9.76c0,2.7-1.1,5.15-2.88,6.92h62.47c-1.78-1.77-2.88-4.22-2.88-6.92,0-5.39,4.37-9.76,9.76-9.76h0ZM104.04,32.83c0,2.25-1.82,4.07-4.07,4.07s-4.07-1.82-4.07-4.07h2.84c0,.68.55,1.23,1.23,1.23s1.23-.55,1.23-1.23h2.84ZM99.96,25.91c3.82,0,6.92,3.1,6.92,6.92s-3.1,6.92-6.92,6.92-6.92-3.1-6.92-6.92,3.1-6.92,6.92-6.92h0ZM27.79,32.83c0,2.25-1.82,4.07-4.07,4.07s-4.07-1.82-4.07-4.07h2.84c0,.68.55,1.23,1.23,1.23s1.23-.55,1.23-1.23h2.85ZM23.72,25.91c3.82,0,6.92,3.1,6.92,6.92s-3.1,6.92-6.92,6.92-6.92-3.1-6.92-6.92,3.1-6.92,6.92-6.92h0ZM5.17,32.04l3.11,1.56c-.01-.26-.02-.51-.02-.77,0-8.53,6.93-15.45,15.45-15.45s15.46,6.92,15.46,15.45c0,.41-.02.82-.05,1.23h45.43c-.03-.41-.05-.82-.05-1.23,0-8.53,6.93-15.45,15.45-15.45s15.46,6.92,15.46,15.45c0,.41-.02.82-.05,1.23h5.79l1.18-1.18v-2.85l2.82-2.79v-1.66h-9.81l5-4.9-1.84-.92-10.74-2.68H30.43l-12.14-8.09,6.13-6.13h-6.9l-7.17,2.39-2.2,3.3h7.24l-8.54,8.54h-1.18v4.05l-2.84,2.76v1.18l2.33,6.98h0Z"/>
  </g>
</svg>