<?xml version="1.0" encoding="UTF-8"?>
<svg id="Layer_2" xmlns="http://www.w3.org/2000/svg" viewBox="0 0 128 41.29">
  <defs>
    <style>
      .cls-1 {
        fill: #404041;
        fill-rule: evenodd;
      }
    </style>
  </defs>
  <g id="Layer_1-2" data-name="Layer_1">
    <path class="cls-1" d="M2.84,31.29l-2.84-5.69,2.84-2.84-2.84-5.69h5.69l-2.84-2.84,5.69-5.69h14.22l-2.84-2.84h11.38l2.84-2.84h2.84v2.84h2.85l11.38,2.84h2.84v-2.84h2.84l2.84,2.84h17.07L68.27,0h5.69l11.38,5.69,2.84,2.84h2.85l25.6,5.69,8.53,2.84-2.84,2.84,5.69,2.84v5.69l-2.84,2.84v2.84h-9.06c.18-.84.27-1.71.27-2.6,0-6.96-5.65-12.6-12.61-12.6s-12.61,5.65-12.61,12.6c0,.89.09,1.76.27,2.6h-53.37c.18-.84.27-1.71.27-2.6,0-6.96-5.65-12.6-12.61-12.6s-12.61,5.65-12.61,12.6c0,.89.09,1.76.27,2.6h-2l-8.53-2.84h0ZM103.76,21.77c5.39,0,9.76,4.37,9.76,9.76,0,2.7-1.1,5.15-2.88,6.92h11.67v2.84H2.84v-2.84h15.99c-1.78-1.77-2.88-4.21-2.88-6.92,0-5.39,4.37-9.76,9.76-9.76s9.76,4.37,9.76,9.76c0,2.7-1.1,5.15-2.88,6.92h64.27c-1.78-1.77-2.88-4.21-2.88-6.92,0-5.39,4.37-9.76,9.76-9.76h0ZM107.83,31.53c0,2.25-1.82,4.07-4.07,4.07s-4.07-1.82-4.07-4.07h2.84c0,.68.55,1.23,1.23,1.23s1.23-.55,1.23-1.23h2.84ZM103.76,24.61c3.82,0,6.92,3.1,6.92,6.92s-3.1,6.92-6.92,6.92-6.92-3.1-6.92-6.92,3.1-6.92,6.92-6.92h0ZM29.79,31.53c0,2.25-1.82,4.07-4.07,4.07s-4.07-1.82-4.07-4.07h2.84c0,.68.55,1.23,1.23,1.23s1.23-.55,1.23-1.23h2.84ZM25.72,24.61c3.82,0,6.92,3.1,6.92,6.92s-3.1,6.92-6.92,6.92-6.92-3.1-6.92-6.92,3.1-6.92,6.92-6.92h0ZM4.86,28.96l5.43,1.81c.4-8.17,7.16-14.69,15.43-14.69s15.32,6.79,15.45,15.21h47.14c.13-8.41,7-15.21,15.45-15.21s15.32,6.79,15.45,15.21h3.1v-1.18l2.84-2.85v-2.75l-7.65-3.82,2.38-2.38-4.03-1.34-25.15-5.59h-3.71l-3.35-3.35-6.66-3.33,6.68,6.68h-25.11l-1.67-1.67v1.67h-6.04l-11.38-2.84h-5.34v-1.67l-1.67,1.67h-5.69l2.84,2.84H9.71l-2.84,2.84,5.69,5.69h-7.95l1.7,3.41-2.84,2.84,1.4,2.8h0Z"/>
  </g>
</svg>