<?xml version="1.0" encoding="UTF-8"?>
<svg id="Layer_2" xmlns="http://www.w3.org/2000/svg" viewBox="0 0 128 46.24">
  <defs>
    <style>
      .cls-1 {
        fill: #404041;
        fill-rule: evenodd;
      }
    </style>
  </defs>
  <g id="Layer_1-2" data-name="Layer_1">
    <path class="cls-1" d="M2.67,37.21l-2.67-2.67,2.67-5.33v-10.67l2.67-2.67-2.79.12,2.67-10.67L13.21,0h69.33l18.67,13.33h-5.33l-13.33-10.67H18.54l-2.67,2.67v5.33l5.33,5.33h5.33V5.33h2.67v10.67h24V5.33h8v10.67h21.33V5.33l8,10.67h16l16,5.33,2.67,2.67-2.63.03v2.67h5.33v2.67l-2.67,2.67,2.76-.16v2.67l-5.33,5.33h-9.51c.25-.98.39-2,.39-3.06,0-6.67-5.42-12.09-12.09-12.09s-12.09,5.42-12.09,12.09c0,1.06.14,2.08.39,3.06h-56.22c.26-.98.39-2,.39-3.06,0-6.67-5.42-12.09-12.09-12.09s-12.09,5.42-12.09,12.09c0,1.06.14,2.08.39,3.06h-4.82l-2.67-2.67h0ZM101.46,27.4c5.2,0,9.42,4.22,9.42,9.42,0,2.65-1.1,5.04-2.86,6.75h14.64v2.67H5.21v-2.67h10.08c-1.76-1.71-2.86-4.11-2.86-6.75,0-5.2,4.22-9.42,9.42-9.42s9.42,4.22,9.42,9.42c0,2.65-1.1,5.04-2.86,6.75h66.49c-1.76-1.71-2.86-4.11-2.86-6.75,0-5.2,4.22-9.42,9.42-9.42h0ZM97.38,36.82c0,2.26,1.83,4.09,4.09,4.09s4.09-1.83,4.09-4.09h-2.67c0,.79-.63,1.42-1.42,1.42s-1.42-.63-1.42-1.42h-2.67ZM101.46,30.07c-3.73,0-6.75,3.02-6.75,6.75s3.02,6.75,6.75,6.75,6.75-3.02,6.75-6.75-3.02-6.75-6.75-6.75h0ZM17.76,36.82c0,2.26,1.83,4.09,4.09,4.09s4.09-1.83,4.09-4.09h-2.67c0,.79-.63,1.42-1.42,1.42s-1.42-.63-1.42-1.42h-2.67ZM21.85,30.07c-3.73,0-6.75,3.02-6.75,6.75s3.02,6.75,6.75,6.75,6.75-3.02,6.75-6.75-3.02-6.75-6.75-6.75h0ZM6.44,37.21h.66c0-.13,0-.26,0-.39,0-8.14,6.61-14.75,14.75-14.75s14.76,6.61,14.76,14.75c0,.13,0,.26,0,.39h50.12c0-.13,0-.26,0-.39,0-8.14,6.61-14.75,14.75-14.75s14.75,6.61,14.75,14.75c0,.13,0,.26,0,.39h5.35l2.43-2.43-5.59.32,5.73-5.73h-4.23v-6.1l-13.8-4.6h-16.9l-4-5.33v5.33h-26.67v-10.67h-2.67v10.67H20.1l-6.9-6.9v-7.54l1.56-1.56h-.75l-6.47,4.31-1.55,6.2,6.08-.27-6.74,6.74v10.19l-2.09,4.18,3.19,3.19h0Z"/>
  </g>
</svg>