<?xml version="1.0" encoding="UTF-8"?>
<svg id="Layer_2" xmlns="http://www.w3.org/2000/svg" viewBox="0 0 128 40.16">
  <defs>
    <style>
      .cls-1 {
        fill: #404041;
        fill-rule: evenodd;
      }
    </style>
  </defs>
  <g id="Layer_1-2" data-name="Layer_1">
    <path class="cls-1" d="M5.02,32.63l-2.51-2.51-2.51-2.51v-5.02l5.02-2.51H0l2.51-5.02,5.02-2.51H2.51l2.51-2.51h7.53l20.08-7.53,12.55-2.51h17.57l12.55,2.51,15.06,7.53-5.02,2.51-10.04-7.53-12.55-2.51h-15.06l-12.55,7.53,5.02,2.51h2.51v-5.02l2.51,5.02h12.55v-7.53h2.51v7.53l25.1,2.51,10.04-5.02,22.59,5.02,7.53,2.51-2.51,2.51,2.51,2.51h2.51v5.02l-2.51,2.51h0v2.51l-2.51,2.51h-5.35c.39-1.13.6-2.34.6-3.6,0-6.14-4.99-11.12-11.12-11.12s-11.12,4.98-11.12,11.12c0,1.26.21,2.47.59,3.6h-58.42c.39-1.13.6-2.34.6-3.6,0-6.14-4.99-11.12-11.12-11.12s-11.12,4.98-11.12,11.12c0,1.22.2,2.4.56,3.5l-12.05-2.41h0ZM107.1,22.93c4.76,0,8.61,3.86,8.61,8.61,0,2.39-.97,4.54-2.54,6.1h9.8v2.51H2.51v-2.51h19.04c-1.57-1.56-2.54-3.72-2.54-6.1,0-4.76,3.86-8.61,8.61-8.61s8.61,3.86,8.61,8.61c0,2.39-.97,4.54-2.54,6.1h67.32c-1.57-1.56-2.54-3.72-2.54-6.1,0-4.76,3.86-8.61,8.61-8.61h0ZM110.7,31.54c0,1.98-1.61,3.59-3.59,3.59s-3.59-1.61-3.59-3.59h2.51c0,.6.49,1.08,1.08,1.08s1.08-.49,1.08-1.08h2.51ZM107.1,25.44c3.37,0,6.1,2.73,6.1,6.1s-2.73,6.1-6.1,6.1-6.1-2.73-6.1-6.1,2.73-6.1,6.1-6.1h0ZM31.22,31.54c0,1.98-1.61,3.59-3.59,3.59s-3.59-1.61-3.59-3.59h2.51c0,.6.49,1.08,1.08,1.08s1.08-.49,1.08-1.08h2.51ZM27.63,25.44c3.37,0,6.1,2.73,6.1,6.1s-2.73,6.1-6.1,6.1-6.1-2.73-6.1-6.1,2.73-6.1,6.1-6.1h0ZM6.26,30.32l7.74,1.55c0-.11,0-.22,0-.32,0-7.52,6.11-13.63,13.63-13.63s13.63,6.11,13.63,13.63c0,.36-.01.73-.04,1.09h52.29c-.03-.36-.04-.72-.04-1.09,0-7.52,6.11-13.63,13.63-13.63s13.63,6.11,13.63,13.63c0,.36-.01.73-.04,1.09h1.25l1.04-1.04v-2.51s2.51-2.51,2.51-2.51v-1.47h-1.04l-5.02-5.02,1.41-1.41-3.55-1.18-21.59-4.8-9.89,4.95-25.7-2.57h-20.55l-9.64-4.82,11.57-6.94-8.18,1.64-19.76,7.41-9.17,4.59-.32.64h11.59l-13.14,6.57v2.43l3.75,3.75h0Z"/>
  </g>
</svg>