<?xml version="1.0" encoding="UTF-8"?>
<svg id="Layer_2" xmlns="http://www.w3.org/2000/svg" viewBox="0 0 128 45.06">
  <defs>
    <style>
      .cls-1 {
        fill: #404041;
        fill-rule: evenodd;
      }
    </style>
  </defs>
  <g id="Layer_1-2" data-name="Layer_1">
    <path class="cls-1" d="M123.46,42.22v2.84H3.99v-2.84h11.11c-1.78-1.77-2.88-4.21-2.88-6.92,0-5.39,4.37-9.76,9.76-9.76s9.76,4.37,9.76,9.76c0,2.7-1.1,5.15-2.87,6.92h68.09c-1.78-1.77-2.88-4.21-2.88-6.92,0-5.39,4.37-9.76,9.76-9.76s9.76,4.37,9.76,9.76c0,2.7-1.1,5.15-2.88,6.92h12.72ZM107.92,35.3c0,2.25-1.82,4.07-4.07,4.07s-4.07-1.82-4.07-4.07h2.84c0,.68.55,1.23,1.23,1.23s1.23-.55,1.23-1.23h2.84ZM103.85,28.38c3.82,0,6.92,3.1,6.92,6.92s-3.1,6.92-6.92,6.92-6.92-3.1-6.92-6.92,3.1-6.92,6.92-6.92h0ZM26.06,35.3c0,2.25-1.82,4.07-4.07,4.07s-4.07-1.82-4.07-4.07h2.84c0,.68.55,1.23,1.23,1.23s1.23-.55,1.23-1.23h2.84ZM21.99,28.38c3.82,0,6.92,3.1,6.92,6.92s-3.1,6.92-6.92,6.92-6.92-3.1-6.92-6.92,3.1-6.92,6.92-6.92h0ZM0,28.44l2.84-2.84H0v-5.69l5.69-2.84h-2.84L14.22,5.69,45.51,0h25.6l28.44,11.38h-8.53l-19.91-8.53h-25.6l-14.22,2.84-5.69,5.69,22.76,2.84h2.84l-2.84-8.53h2.84l8.53,8.53h51.2l17.07,8.53v2.84h-5.69l2.84,2.84h2.84v5.69l-2.84,2.84v2.84h-9.54c.54-1.4.84-2.93.84-4.53,0-6.96-5.65-12.61-12.61-12.61s-12.61,5.65-12.61,12.61c0,1.59.3,3.12.84,4.53h-58.33c.54-1.4.84-2.93.84-4.53,0-6.96-5.65-12.61-12.61-12.61s-12.61,5.65-12.61,12.61c0,1.59.3,3.12.84,4.53h-1.69l-5.69-2.84L0,28.44h0ZM3.25,29.21l1.92,5.75,1.37.69c0-.12,0-.23,0-.35,0-8.53,6.92-15.45,15.45-15.45s15.45,6.92,15.45,15.45c0,.56-.03,1.12-.09,1.68h51.14c-.06-.56-.09-1.12-.09-1.68,0-8.53,6.92-15.45,15.45-15.45s15.45,6.92,15.45,15.45c0,.56-.03,1.12-.09,1.68h3.1v-1.18l2.84-2.84v-1.67h-1.18l-8.53-8.53h6.2l-11.38-5.69h-51.71l-5.11-5.11,1.7,5.11h-6.97l-28.7-3.59,7.16-7.16-11.03,2.01-5.89,5.89h8.03l-14.89,7.45v1.09h6.87l-6.46,6.46h0Z"/>
  </g>
</svg>