<?xml version="1.0" encoding="UTF-8"?>
<svg id="Layer_2" xmlns="http://www.w3.org/2000/svg" viewBox="0 0 128 48.76">
  <defs>
    <style>
      .cls-1 {
        fill: #404041;
        fill-rule: evenodd;
      }
    </style>
  </defs>
  <g id="Layer_1-2" data-name="Layer_1">
    <path class="cls-1" d="M3.05,36.57l3.05-3.05h-3.05l-3.05-3.05v-6.1h3.05v-6.1l6.1-3.05L18.29,3.05,27.43,0h51.81l15.24,12.19h-6.09l-9.14-9.14h-15.24v9.14h-3.05V3.05h-18.28l-3.05,9.14h-6.09l3.05-9.14h-6.1l-9.14,12.19h100.57l3.05,3.05-3.05,3.05,3.05,3.05h3.05v9.14l-3.05,3.05h3.05v3.05h-8.63c.04-.43.06-.87.06-1.32,0-7.45-6.06-13.51-13.51-13.51s-13.5,6.05-13.5,13.51c0,.44.02.88.06,1.32h-47.62c.04-.43.07-.87.07-1.32,0-7.45-6.06-13.51-13.51-13.51s-13.51,6.05-13.51,13.51c0,.44.02.88.06,1.32H6.1l-3.05-3.05h0ZM105.92,27.84c5.78,0,10.46,4.68,10.46,10.46,0,2.9-1.18,5.52-3.08,7.41h8.6v3.05h-15.98s-.03,0-.03,0H31.42s-.03,0-.03,0H6.1v-3.05h17.95c-1.9-1.89-3.08-4.52-3.08-7.41,0-5.78,4.68-10.46,10.46-10.46s10.46,4.68,10.46,10.46c0,2.9-1.18,5.52-3.08,7.41h59.74c-1.9-1.89-3.08-4.52-3.08-7.41,0-5.78,4.68-10.46,10.46-10.46h0ZM110.29,38.3c0,2.41-1.95,4.36-4.36,4.36s-4.36-1.95-4.36-4.36h3.05c0,.73.59,1.32,1.32,1.32s1.32-.59,1.32-1.32h3.05ZM105.92,30.89c4.09,0,7.41,3.32,7.41,7.41s-3.3,7.39-7.38,7.41h-.06c-4.08-.02-7.38-3.33-7.38-7.41s3.32-7.41,7.41-7.41h0ZM35.78,38.3c0,2.41-1.95,4.36-4.36,4.36s-4.36-1.95-4.36-4.36h3.05c0,.73.59,1.32,1.32,1.32s1.32-.59,1.32-1.32h3.05ZM31.42,30.89c4.09,0,7.41,3.32,7.41,7.41s-3.3,7.39-7.38,7.41h-.06c-4.08-.02-7.38-3.33-7.38-7.41s3.32-7.41,7.41-7.41h0ZM7.36,36.57h7.6c.87-8.32,7.91-14.82,16.46-14.82s15.6,6.5,16.47,14.82h41.57c.87-8.32,7.91-14.82,16.46-14.82,8.02,0,14.73,5.72,16.24,13.31l2.79-2.79v-4.83h-1.26l-6.09-6.09,3.05-3.05H15.24L26.25,3.61l-6.1,2.03-9,12-5.05,2.53v7.26h-3.05v1.79l1.26,1.26h9.14l-6.1,6.1h0Z"/>
  </g>
</svg>