<?xml version="1.0" encoding="UTF-8"?>
<svg id="Layer_2" xmlns="http://www.w3.org/2000/svg" viewBox="0 0 128 37.81">
  <defs>
    <style>
      .cls-1 {
        fill: #404041;
        fill-rule: evenodd;
      }
    </style>
  </defs>
  <g id="Layer_1-2" data-name="Layer_1">
    <path class="cls-1" d="M5.82,29.08L0,23.27l2.91-5.82,2.91-2.91h-2.91v-2.91l2.91-2.91,20.36-2.91h-8.72L37.81,0h23.27l26.17,5.82-8.72,2.91-2.91-2.91-14.54-2.91h-23.27v5.82l11.63,2.91h29.08l11.63-2.91,20.4.02,11.63,5.82v2.91h2.91l2.91,5.82v2.91l-2.91,2.91,2.87-.02v2.91h-11.34c.45-1.31.69-2.71.69-4.17,0-7.11-5.78-12.89-12.89-12.89s-12.89,5.78-12.89,12.89c0,1.46.24,2.86.69,4.17h-51.69c.45-1.31.69-2.71.69-4.17,0-7.11-5.78-12.89-12.89-12.89s-12.89,5.78-12.89,12.89c0,1.17.16,2.31.45,3.39l-10.07-2.13h0ZM104.42,17.84c5.51,0,9.98,4.47,9.98,9.98,0,2.76-1.13,5.27-2.94,7.07h10.68v2.91H2.91v-2.91h18.38c-1.82-1.81-2.94-4.31-2.94-7.07,0-5.51,4.47-9.98,9.98-9.98s9.98,4.47,9.98,9.98c0,2.76-1.13,5.27-2.94,7.07h62.01c-1.82-1.81-2.94-4.31-2.94-7.07,0-5.51,4.47-9.98,9.98-9.98h0ZM108.59,27.82c0,2.3-1.86,4.16-4.16,4.16s-4.16-1.86-4.16-4.16h2.91c0,.69.56,1.26,1.26,1.26s1.26-.56,1.26-1.26h2.91ZM104.42,20.75c3.91,0,7.07,3.17,7.07,7.07s-3.17,7.07-7.07,7.07-7.07-3.17-7.07-7.07,3.17-7.07,7.07-7.07h0ZM32.49,27.82c0,2.3-1.86,4.16-4.16,4.16s-4.16-1.86-4.16-4.16h2.91c0,.69.56,1.26,1.26,1.26s1.26-.56,1.26-1.26h2.91ZM28.33,20.75c3.91,0,7.07,3.17,7.07,7.07s-3.17,7.07-7.07,7.07-7.07-3.17-7.07-7.07,3.17-7.07,7.07-7.07h0ZM7.26,26.41l5.27,1.11c.16-8.58,7.17-15.5,15.79-15.5s15.8,7.08,15.8,15.8c0,.42-.02.84-.05,1.26h44.6c-.03-.42-.05-.84-.05-1.26,0-8.72,7.08-15.8,15.8-15.8s15.8,7.08,15.8,15.8c0,.42-.02.84-.05,1.26h.83l4.09-4.09v-1.02l-1.8-3.6h-4.02v-4.02l-9.41-4.71-19.35-.02-11.63,2.91h-29.8l-14.18-3.55V3.86l-5.83,1.67.2,2.79-22.08,3.15-.17.17h5.82l-7.54,7.54-1.76,3.52,3.72,3.72h0Z"/>
  </g>
</svg>