<?xml version="1.0" encoding="UTF-8"?>
<svg id="Layer_2" xmlns="http://www.w3.org/2000/svg" viewBox="0 0 128 50.59">
  <defs>
    <style>
      .cls-1 {
        fill: #404041;
        fill-rule: evenodd;
      }
    </style>
  </defs>
  <g id="Layer_1-2" data-name="Layer_1">
    <path class="cls-1" d="M2.61,15.67l13.06-2.61H5.22L15.67,2.61h-5.22V0h65.31l2.61,2.61h-2.61l15.67,10.45h-5.22l-13.06-10.45h-39.18l-5.22,10.45,23.51,2.61V5.22h2.61v10.45h65.31l5.22,5.22-5.22,2.61,2.61,2.61h5.22v5.22h0v7.84l-7.84,5.22h-1.03c.6-1.54.93-3.22.93-4.98,0-7.6-6.17-13.76-13.77-13.76s-13.76,6.17-13.76,13.76c0,1.75.33,3.43.93,4.98h-52.28c.6-1.54.93-3.22.93-4.98,0-7.6-6.17-13.76-13.77-13.76s-13.76,6.17-13.76,13.76c0,1.75.33,3.43.93,4.98h-2.46L0,36.57v-5.22h5.22l-2.61-2.61v-13.06h0ZM100.37,39.43c0,3.28,2.65,5.93,5.93,5.93s5.93-2.65,5.93-5.93h-2.61c0,1.83-1.48,3.32-3.32,3.32s-3.32-1.48-3.32-3.32h-2.61ZM106.3,28.28c6.16,0,11.15,4.99,11.15,11.15,0,3.43-1.55,6.49-3.98,8.54h9.31v2.61H2.61v-2.61h18.57c-2.44-2.05-3.98-5.11-3.98-8.54,0-6.16,4.99-11.15,11.15-11.15s11.15,4.99,11.15,11.15c0,3.43-1.55,6.49-3.98,8.54h63.61c-2.44-2.05-3.98-5.11-3.98-8.54,0-6.16,4.99-11.15,11.15-11.15h0ZM106.3,30.89c-4.72,0-8.54,3.82-8.54,8.54s3.82,8.54,8.54,8.54,8.54-3.82,8.54-8.54-3.82-8.54-8.54-8.54h0ZM22.42,39.43c0,3.28,2.65,5.93,5.93,5.93s5.93-2.65,5.93-5.93h-2.61c0,1.83-1.48,3.32-3.32,3.32s-3.32-1.48-3.32-3.32h-2.61ZM28.35,30.89c-4.72,0-8.54,3.82-8.54,8.54s3.82,8.54,8.54,8.54,8.54-3.82,8.54-8.54-3.82-8.54-8.54-8.54h0ZM5.22,17.81v9.84l6.31,6.31H2.61v1.13l9.42,5.65c-.03-.44-.05-.87-.05-1.31,0-9.04,7.34-16.38,16.38-16.38s16.38,7.34,16.38,16.38c0,.79-.06,1.58-.17,2.36h45.54c-.11-.78-.17-1.57-.17-2.36,0-9.04,7.34-16.38,16.38-16.38s16.38,7.34,16.38,16.38c0,.05,0,.11,0,.16l2.71-1.81v-9.05h-3.69l-5.94-5.94,5.22-2.61-1.9-1.9H52.1l-27.38-3.04,6.32-12.63h-11.67l-7.84,7.84h6.51l.47,4.71-13.28,2.66h0Z"/>
  </g>
</svg>