<?xml version="1.0" encoding="UTF-8"?>
<svg id="Layer_2" xmlns="http://www.w3.org/2000/svg" viewBox="0 0 128 48.76">
  <defs>
    <style>
      .cls-1 {
        fill: #404041;
        fill-rule: evenodd;
      }
    </style>
  </defs>
  <g id="Layer_1-2" data-name="Layer_1">
    <path class="cls-1" d="M0,33.52v-9.14l3.05-3.05H0l6.1-12.19h24.38l33.52,9.14h24.38l3.05-3.05-18.29-9.14-15.24-3.05h-18.29l-6.09,3.05H15.24L27.43,0h30.48l15.24,3.05,27.43,12.19,21.33,6.1,3.05,3.05h-3.05l3.05,3.05h3.05v6.1l-3.05,6.1-9.14,3.05h-.43c.57-1.53.88-3.18.88-4.9,0-7.75-6.29-14.04-14.04-14.04s-14.04,6.29-14.04,14.04c0,1.72.31,3.37.88,4.9h-53.09c.57-1.53.88-3.18.88-4.9,0-7.75-6.29-14.04-14.04-14.04s-14.04,6.29-14.04,14.04c0,1.72.31,3.37.88,4.9h-.51L0,33.52h0ZM102.22,26.77c6.07,0,10.99,4.92,10.99,10.99,0,3.13-1.31,5.95-3.4,7.95h12.09v3.05H3.05v-3.05h12.17c-2.09-2-3.4-4.82-3.4-7.95,0-6.07,4.92-10.99,10.99-10.99s10.99,4.92,10.99,10.99c0,3.13-1.31,5.95-3.4,7.95h64.22c-2.09-2-3.4-4.82-3.4-7.95,0-6.07,4.92-10.99,10.99-10.99h0ZM107.12,37.77c0,2.71-2.19,4.9-4.9,4.9s-4.9-2.19-4.9-4.9h3.05c0,1.02.83,1.85,1.85,1.85s1.85-.83,1.85-1.85h3.05ZM102.22,29.82c4.39,0,7.95,3.56,7.95,7.95s-3.56,7.95-7.95,7.95-7.95-3.56-7.95-7.95,3.56-7.95,7.95-7.95h0ZM27.71,37.77c0,2.71-2.19,4.9-4.9,4.9s-4.9-2.19-4.9-4.9h3.05c0,1.02.83,1.85,1.85,1.85s1.85-.83,1.85-1.85h3.05ZM22.81,29.82c4.39,0,7.95,3.56,7.95,7.95s-3.56,7.95-7.95,7.95-7.95-3.56-7.95-7.95,3.56-7.95,7.95-7.95h0ZM3.05,32.26l2.88,2.88c1.27-8.19,8.35-14.46,16.89-14.46,9.43,0,17.09,7.66,17.09,17.09,0,.62-.03,1.24-.1,1.85h45.43c-.07-.61-.1-1.23-.1-1.85,0-9.43,7.66-17.09,17.09-17.09s17.09,7.66,17.09,17.09c0,.17,0,.35,0,.52l3.49-1.16,2.16-4.32v-2.33h-1.26l-7.65-7.65-16.51-4.72-4.61-2.05-5.27,5.27h-26.05L30.07,12.19H7.98l-3.05,6.1h5.47l-7.36,7.36v6.62h0Z"/>
  </g>
</svg>