<?xml version="1.0" encoding="UTF-8"?>
<svg id="Layer_2" xmlns="http://www.w3.org/2000/svg" viewBox="0 0 128 42.67">
  <defs>
    <style>
      .cls-1 {
        fill: #404041;
        fill-rule: evenodd;
      }
    </style>
  </defs>
  <g id="Layer_1-2" data-name="Layer_1">
    <path class="cls-1" d="M2.67,34.67l-2.67-5.33v-8l10.67-2.67h-5.33l-2.67-2.67v-2.67l5.33-2.67,32,2.67h48l-10.67-8-5.33-2.67h-13.33v8h-2.67V2.67h-10.67l-10.67,8-16-2.67L40,0h32l5.33,2.67,16,10.67,26.67,5.33,5.33,2.67h-5.33l2.67,2.67h5.33v2.67h-2.67l2.67,2.67-2.67,8h-10.05c.41-1.2.63-2.48.63-3.82,0-6.52-5.3-11.82-11.82-11.82s-11.82,5.3-11.82,11.82c0,1.34.22,2.62.63,3.82h-55.68c.41-1.2.63-2.48.63-3.82,0-6.52-5.3-11.82-11.82-11.82s-11.82,5.3-11.82,11.82c0,1.34.22,2.62.63,3.82h-4.19l-8-2.67h0ZM26.05,24.36c5.05,0,9.15,4.1,9.15,9.15,0,2.53-1.03,4.83-2.7,6.49h65.14c-1.67-1.66-2.7-3.95-2.7-6.49,0-5.05,4.1-9.15,9.15-9.15s9.15,4.1,9.15,9.15c0,2.53-1.03,4.83-2.7,6.49h12.12v2.67H2.67v-2.67h16.92c-1.67-1.66-2.7-3.95-2.7-6.49,0-5.05,4.1-9.15,9.15-9.15h0ZM29.86,33.51c0,2.11-1.71,3.82-3.82,3.82s-3.82-1.71-3.82-3.82h2.67c0,.64.52,1.15,1.15,1.15s1.15-.52,1.15-1.15h2.67ZM26.05,27.03c3.58,0,6.49,2.9,6.49,6.49s-2.9,6.49-6.49,6.49-6.49-2.9-6.49-6.49,2.9-6.49,6.49-6.49h0ZM107.91,33.51c0,2.11-1.71,3.82-3.82,3.82s-3.82-1.71-3.82-3.82h2.67c0,.64.52,1.15,1.15,1.15s1.15-.52,1.15-1.15h2.67ZM104.1,27.03c3.58,0,6.49,2.9,6.49,6.49s-2.9,6.49-6.49,6.49-6.48-2.9-6.48-6.49,2.9-6.49,6.48-6.49h0ZM4.56,32.49l6.54,2.18h.51c-.03-.38-.05-.77-.05-1.15,0-7.99,6.49-14.48,14.48-14.48s14.49,6.49,14.49,14.48c0,.39-.02.77-.05,1.15h49.17c-.03-.38-.05-.77-.05-1.15,0-7.99,6.49-14.48,14.48-14.48s14.49,6.49,14.49,14.48c0,.39-.02.77-.05,1.15h4.87l1.54-4.61-9.6-9.6-22.28-4.46h-53.18l-31.37-2.61-3.13,1.57,1.05,1.05h6.59l.58,4.68-10.93,2.73v5.29l1.89,3.78h0ZM40.89,2.67h-.41l-11.57,4.34,5.06.84,6.91-5.18h0Z"/>
  </g>
</svg>