<?xml version="1.0" encoding="UTF-8"?>
<svg id="Layer_2" xmlns="http://www.w3.org/2000/svg" viewBox="0 0 128 39.82">
  <defs>
    <style>
      .cls-1 {
        fill: #404041;
        fill-rule: evenodd;
      }
    </style>
  </defs>
  <g id="Layer_1-2" data-name="Layer_1">
    <path class="cls-1" d="M8.54,34.12h8.26c-.34-1.11-.52-2.3-.52-3.52,0-6.65,5.4-12.06,12.06-12.06s12.06,5.4,12.06,12.06c0,1.23-.18,2.41-.52,3.52h46.43c-.34-1.11-.52-2.3-.52-3.52,0-6.65,5.4-12.06,12.06-12.06s12.06,5.4,12.06,12.06c0,1.23-.18,2.41-.52,3.52h12.99l2.8-2.83-2.85-2.84h5.69v-5.69l-11.38-2.85v-2.85l8.54,2.85-8.54-5.69-14.23-2.85h-54.06l-17.07-2.85,2.85-2.85,8.54-2.85,2.85,5.69V2.85h17.07s5.69,5.69,5.69,5.69h2.85s-5.69-5.69-5.69-5.69l8.54,2.84,5.69,2.85h8.54l-14.23-5.69-8.54-2.85h-22.76l-11.38,2.85-17.07,5.69-8.54,5.69-2.85,5.69,5.69-2.85v2.85L0,22.74l2.85,5.69h2.84v2.84l2.85,2.85h0ZM97.82,21.39c5.09,0,9.21,4.13,9.21,9.21,0,2.47-.97,4.71-2.56,6.37h17.87v2.85H2.85v-2.85h18.82c-1.58-1.65-2.56-3.9-2.56-6.37,0-5.09,4.13-9.21,9.21-9.21s9.21,4.13,9.21,9.21c0,2.47-.97,4.71-2.56,6.37h56.18c-1.58-1.65-2.56-3.9-2.56-6.37,0-5.09,4.13-9.21,9.21-9.21h0ZM101.35,30.6c0,1.94-1.58,3.52-3.52,3.52s-3.52-1.58-3.52-3.52h2.84c0,.37.3.68.68.68s.68-.3.68-.68h2.85ZM97.83,24.23c3.52,0,6.37,2.85,6.37,6.37s-2.85,6.37-6.37,6.37-6.37-2.85-6.37-6.37,2.85-6.37,6.37-6.37h0ZM31.85,30.6c0,1.94-1.58,3.52-3.52,3.52s-3.52-1.58-3.52-3.52h2.85c0,.37.3.68.68.68s.68-.3.68-.68h2.84ZM28.33,24.23c3.52,0,6.37,2.85,6.37,6.37s-2.85,6.37-6.37,6.37-6.37-2.85-6.37-6.37,2.85-6.37,6.37-6.37h0ZM9.71,31.28h3.73c-.01-.23-.02-.45-.02-.68,0-8.22,6.68-14.9,14.9-14.9s14.9,6.68,14.9,14.9c0,.23,0,.45-.01.68h39.72c-.01-.23-.02-.45-.02-.68,0-8.22,6.68-14.9,14.9-14.9s14.91,6.68,14.91,14.9c0,.23,0,.45-.02.68h8.39l-5.67-5.67h9.72v-.62l-11.38-2.85v-5.58l-11.66-2.33h-54.01l-22.76-3.79,3.92-3.92-13.81,4.6-4.11,2.74v8.12l-7.33,2.44.59,1.18h3.93v4.51l1.18,1.18h0Z"/>
  </g>
</svg>