<?xml version="1.0" encoding="UTF-8"?>
<svg id="Layer_2" xmlns="http://www.w3.org/2000/svg" viewBox="0 0 128 40.73">
  <defs>
    <style>
      .cls-1 {
        fill: #404041;
        fill-rule: evenodd;
      }
    </style>
  </defs>
  <g id="Layer_1-2" data-name="Layer_1">
    <path class="cls-1" d="M5.82,34.91h5.86c-.45-1.31-.69-2.71-.69-4.17,0-7.11,5.78-12.89,12.89-12.89s12.89,5.78,12.89,12.89c0,1.46-.24,2.86-.69,4.17h51.61c-.45-1.31-.69-2.71-.69-4.17,0-7.11,5.78-12.89,12.89-12.89s12.89,5.78,12.89,12.89c0,1.46-.24,2.86-.69,4.17h12.99l2.91-2.91-2.91-2.91v-2.91l2.91-5.82-2.91-2.91h-8.73l-2.91-2.91h8.73l-8.73-2.91-26.18-2.91L64,0h-23.27l-20.36,5.82h17.45l5.82-2.91h20.36l20.36,8.73-11.64,11.64,5.82-8.73-43.64-5.82H8.73l-5.82,2.91h11.64l-5.82,2.91H2.91l-2.91,5.82v5.82l5.82,8.73h0ZM99.9,20.76c5.51,0,9.98,4.47,9.98,9.98,0,2.76-1.13,5.27-2.94,7.08h18.15v2.91H2.91v-2.91h13.93c-1.82-1.81-2.94-4.31-2.94-7.08,0-5.51,4.47-9.98,9.98-9.98s9.98,4.47,9.98,9.98c0,2.77-1.13,5.27-2.94,7.08h61.93c-1.82-1.81-2.94-4.31-2.94-7.08,0-5.51,4.47-9.98,9.98-9.98h0ZM104.07,30.74c0,2.3-1.87,4.17-4.17,4.17s-4.17-1.87-4.17-4.17h2.91c0,.69.56,1.26,1.26,1.26s1.26-.56,1.26-1.26h2.91ZM99.9,23.67c3.91,0,7.07,3.17,7.07,7.07s-3.17,7.07-7.07,7.07-7.07-3.17-7.07-7.07,3.17-7.07,7.07-7.07h0ZM28.05,30.74c0,2.3-1.87,4.17-4.17,4.17s-4.17-1.87-4.17-4.17h2.91c0,.69.56,1.26,1.26,1.26s1.26-.56,1.26-1.26h2.91ZM23.88,23.67c3.91,0,7.07,3.17,7.07,7.07s-3.17,7.08-7.07,7.08-7.07-3.17-7.07-7.08,3.17-7.07,7.07-7.07h0ZM7.37,32h.76c-.03-.42-.05-.84-.05-1.26,0-8.72,7.08-15.8,15.8-15.8s15.8,7.08,15.8,15.8c0,.42-.02.84-.05,1.26h44.51c-.03-.42-.05-.84-.05-1.26,0-8.72,7.08-15.8,15.8-15.8s15.8,7.08,15.8,15.8c0,.42-.02.84-.05,1.26h8.23l-1.7-1.7v-4.8l2.28-4.56-.57-.57h-8.73l-6.31-6.31-20.5-2.28-15.42,15.42-4.08-3.34,4.69-7.04-38.82-5.18h-13.66l-11.64,5.82h-4.71l-1.8,3.6v4.25l4.47,6.7h0Z"/>
  </g>
</svg>