<?xml version="1.0" encoding="UTF-8"?>
<svg id="Layer_2" xmlns="http://www.w3.org/2000/svg" viewBox="0 0 128 49.95">
  <defs>
    <style>
      .cls-1 {
        fill: #404041;
        fill-rule: evenodd;
      }
    </style>
  </defs>
  <g id="Layer_1-2" data-name="Layer_1">
    <path class="cls-1" d="M0,37.46v-9.37l6.24-6.24H0l3.12-6.24L15.61,3.12,24.98,0h40.59l9.37,3.12,18.73,12.49h-6.24l-12.49-9.37-9.37-3.12H31.22l-6.24,6.24v3.12s3.12,3.12,3.12,3.12l24.98,3.12-3.12-12.49h3.12l3.12,12.49h56.2s12.49,3.12,12.49,3.12l3.12,3.12v3.12h-3.12v3.12l3.12,3.12v3.12l-3.12,6.24h-8.21c.48-1.4.74-2.91.74-4.47,0-7.64-6.2-13.84-13.84-13.84s-13.84,6.2-13.84,13.84c0,1.56.26,3.07.74,4.47h-55.55c.48-1.4.74-2.91.74-4.47,0-7.64-6.2-13.84-13.84-13.84s-13.84,6.2-13.84,13.84c0,1.56.26,3.07.74,4.47h-2.49l-6.24-6.24h0ZM103.58,28.52c5.92,0,10.71,4.8,10.71,10.72,0,2.97-1.21,5.65-3.16,7.59h10.62v3.12H3.12v-3.12h11.15c-1.95-1.94-3.16-4.63-3.16-7.59,0-5.92,4.8-10.72,10.71-10.72s10.72,4.8,10.72,10.72c0,2.97-1.21,5.65-3.16,7.59h66.63c-1.95-1.94-3.16-4.63-3.16-7.59,0-5.92,4.8-10.72,10.72-10.72h0ZM108.05,39.24c0,2.47-2,4.47-4.47,4.47s-4.47-2-4.47-4.47h3.12c0,.74.6,1.35,1.35,1.35s1.35-.6,1.35-1.35h3.12ZM103.58,31.64c4.19,0,7.59,3.4,7.59,7.59s-3.4,7.59-7.59,7.59-7.59-3.4-7.59-7.59,3.4-7.59,7.59-7.59h0ZM26.31,39.24c0,2.47-2,4.47-4.47,4.47s-4.47-2-4.47-4.47h3.12c0,.74.6,1.35,1.35,1.35s1.35-.6,1.35-1.35h3.12ZM21.83,31.64c4.19,0,7.59,3.4,7.59,7.59s-3.4,7.59-7.59,7.59-7.59-3.4-7.59-7.59,3.4-7.59,7.59-7.59h0ZM3.12,36.17l1.8,1.8c.65-8.77,7.98-15.69,16.91-15.69s16.96,7.6,16.96,16.96c0,.45-.02.9-.05,1.35h47.93c-.04-.45-.05-.9-.05-1.35,0-9.36,7.6-16.96,16.96-16.96s16.96,7.6,16.96,16.96c0,.45-.02.9-.05,1.35h2.47l1.93-3.86v-1.09l-3.12-3.12v-7.54h1.83s-.3-.3-.3-.3l-11.28-2.82h-59.12l-26.23-3.28-4.79-4.79v-5.71l4.95-4.95h-1.32l-8.19,2.73-11.61,11.61-.64,1.27h8.73L3.12,29.39v6.78h0Z"/>
  </g>
</svg>