<?xml version="1.0" encoding="UTF-8"?>
<svg id="Layer_2" xmlns="http://www.w3.org/2000/svg" viewBox="0 0 128 46.47">
  <defs>
    <style>
      .cls-1 {
        fill: #404041;
        fill-rule: evenodd;
      }
    </style>
  </defs>
  <g id="Layer_1-2" data-name="Layer_1">
    <path class="cls-1" d="M120.16,43.86v2.61H2.61v-2.61h19.06c-2.43-2.05-3.98-5.11-3.98-8.54,0-6.16,4.99-11.15,11.15-11.15s11.15,4.99,11.15,11.15c0,3.43-1.55,6.49-3.98,8.54h61c-2.43-2.05-3.98-5.11-3.98-8.54,0-6.16,4.99-11.15,11.15-11.15s11.15,4.99,11.15,11.15c0,3.43-1.55,6.49-3.98,8.54h8.81ZM98.25,35.32c0,3.27,2.65,5.93,5.93,5.93s5.93-2.65,5.93-5.93h-2.61c0,1.83-1.48,3.32-3.32,3.32s-3.32-1.48-3.32-3.32h-2.61ZM104.18,26.78c-4.72,0-8.54,3.82-8.54,8.54s3.82,8.54,8.54,8.54,8.54-3.82,8.54-8.54-3.82-8.54-8.54-8.54h0ZM22.92,35.32c0,3.27,2.65,5.93,5.93,5.93s5.93-2.65,5.93-5.93h-2.61c0,1.83-1.48,3.32-3.32,3.32s-3.32-1.48-3.32-3.32h-2.61ZM28.84,26.78c-4.72,0-8.54,3.82-8.54,8.54s3.82,8.54,8.54,8.54,8.54-3.82,8.54-8.54-3.82-8.54-8.54-8.54h0ZM0,33.96v-7.84h2.61v-2.61H0v-7.84h57.47l-2.61-2.61,2.61-10.45,2.61-2.61h20.9l2.61,2.61h-15.67v10.45l2.61,2.61h13.06l2.61-2.61-5.22-7.84h2.61l7.84,7.84,28.73,2.61,2.61,2.61-2.61,2.61,2.61,2.61h2.61l2.61,7.84-2.61,2.61v2.61l-5.22,2.61h-2.77c.36-1.23.55-2.53.55-3.87,0-7.6-6.17-13.76-13.77-13.76s-13.76,6.17-13.76,13.76c0,1.34.19,2.64.55,3.87h-48.91c.36-1.23.55-2.53.55-3.87,0-7.6-6.17-13.76-13.77-13.76s-13.76,6.17-13.76,13.76c0,1.34.19,2.64.55,3.87h-5.18L0,33.96h0ZM2.61,32.34l8.45,4.23h1.45c-.03-.42-.05-.84-.05-1.26,0-9.04,7.34-16.38,16.38-16.38s16.38,7.34,16.38,16.38c0,.42-.02.84-.05,1.26h42.68c-.03-.42-.05-.84-.05-1.26,0-9.04,7.34-16.38,16.38-16.38s16.38,7.34,16.38,16.38c0,.25,0,.51-.02.76l2.23-1.12v-2.08l2.24-2.24-1.51-4.52h-1.81l-5.22-5.22,2.61-2.61-.1-.1-28.73-2.61-1.43-1.43-4.14,4.14h-15.22l-4.14-4.14V2.61h-4.14l-1.34,1.34-2.08,8.31,6.03,6.03H2.61v2.61h2.61v7.84h-2.61v3.61h0Z"/>
  </g>
</svg>