<?xml version="1.0" encoding="UTF-8"?>
<svg id="Layer_2" xmlns="http://www.w3.org/2000/svg" viewBox="0 0 128 44.52">
  <defs>
    <style>
      .cls-1 {
        fill: #404041;
        fill-rule: evenodd;
      }
    </style>
  </defs>
  <g id="Layer_1-2" data-name="Layer_1">
    <path class="cls-1" d="M2.78,36.17l-2.78-5.56v-2.78l5.57-5.56h0l-2.78,2.78-2.78-5.57,5.57-8.35h5.56L30.61,2.78l11.13-2.78h22.26l11.13,2.78,16.7,8.35h-8.35l-8.35-5.57-11.13-2.78h-19.48l-13.91,8.35,2.78,2.78h5.56l2.78-5.57v5.57h13.91V5.57h2.78v8.35h36.17l27.83,5.56,5.56,2.78-2.78,2.78,2.78,2.78v5.57l-5.56,5.57h-8.54c.43-1.25.66-2.59.66-3.99,0-6.81-5.53-12.33-12.33-12.33s-12.33,5.53-12.33,12.33c0,1.4.23,2.74.66,3.99h-53.75c.43-1.25.66-2.59.66-3.99,0-6.81-5.53-12.33-12.33-12.33s-12.33,5.52-12.33,12.33c0,1.4.23,2.74.66,3.99h-5.11l-5.57-2.78h0ZM102.22,25.42c5.27,0,9.55,4.28,9.55,9.55,0,2.65-1.08,5.04-2.81,6.77h13.48v2.78H2.78v-2.78h15.61c-1.74-1.73-2.81-4.12-2.81-6.77,0-5.27,4.28-9.55,9.55-9.55s9.55,4.28,9.55,9.55c0,2.65-1.08,5.04-2.81,6.77h63.62c-1.74-1.73-2.81-4.12-2.81-6.77,0-5.27,4.28-9.55,9.55-9.55h0ZM106.21,34.97c0,2.2-1.78,3.98-3.99,3.98s-3.98-1.78-3.98-3.98h2.78c0,.66.54,1.2,1.2,1.2s1.2-.54,1.2-1.2h2.78ZM102.22,28.2c3.74,0,6.77,3.03,6.77,6.77s-3.03,6.77-6.77,6.77-6.77-3.03-6.77-6.77,3.03-6.77,6.77-6.77h0ZM29.11,34.97c0,2.2-1.78,3.98-3.98,3.98s-3.98-1.78-3.98-3.98h2.78c0,.66.54,1.2,1.2,1.2s1.2-.54,1.2-1.2h2.78ZM25.13,28.2c3.74,0,6.77,3.03,6.77,6.77s-3.03,6.77-6.77,6.77-6.77-3.03-6.77-6.77,3.03-6.77,6.77-6.77h0ZM4.86,34.1l4.15,2.07h1.06c-.03-.4-.05-.8-.05-1.2,0-8.34,6.77-15.11,15.11-15.11s15.12,6.77,15.12,15.11c0,.4-.02.8-.05,1.2h46.96c-.03-.4-.05-.8-.05-1.2,0-8.34,6.77-15.11,15.11-15.11s15.12,6.77,15.12,15.11c0,.4-.02.8-.05,1.2h3.99l3.93-3.93v-3.26l-3.93-3.93,2.02-2.02-1.78-.89-27.19-5.44h-62.09l-6.12-6.12,10.87-6.52-5.49,1.37L11.7,13.91h-4.65l-3.84,5.76.33.67,2.02-2.02,3.94,3.94-6.72,6.72v.97l2.07,4.15h0Z"/>
  </g>
</svg>