<?xml version="1.0" encoding="UTF-8"?>
<svg id="Layer_2" xmlns="http://www.w3.org/2000/svg" viewBox="0 0 128 59.45">
  <defs>
    <style>
      .cls-1 {
        fill: #404041;
        fill-rule: evenodd;
      }
    </style>
  </defs>
  <g id="Layer_1-2" data-name="Layer_1">
    <path class="cls-1" d="M0,48.87v-4.65h4.65v-2.33h-2.33v-13.96h39.56l-2.33-2.33H2.33v-11.64l2.33-9.31L9.31,0h72.15l9.31,2.33,4.65,4.65-6.98,2.33h6.98l11.64,13.96h-2.33l-9.31-11.64h-18.62v9.31l2.33,2.33,23.27,4.65,2.33-2.33h4.65l11.64,4.65,4.65,4.65h-4.65v2.33l6.98,2.33v11.64l-4.65,2.33h-2.37c.22-.87.34-1.78.34-2.71,0-6.05-4.91-10.96-10.96-10.96s-10.95,4.91-10.95,10.96c0,.94.12,1.84.34,2.71H33.71c.22-.87.34-1.78.34-2.71,0-6.05-4.91-10.96-10.96-10.96s-10.96,4.91-10.96,10.96c0,.94.12,1.84.34,2.71h-7.82l-4.65-4.65h0ZM110.36,42.19c4.77,0,8.63,3.86,8.63,8.63,0,2.49-1.05,4.73-2.74,6.3h7.09v2.33h-12.99s-.06,0-.06,0H23.09s-.06,0-.06,0H2.33v-2.33h14.87c-1.68-1.57-2.73-3.81-2.73-6.3,0-4.77,3.86-8.63,8.63-8.63s8.63,3.86,8.63,8.63c0,2.49-1.05,4.73-2.74,6.3h75.48c-1.68-1.57-2.73-3.81-2.73-6.3,0-4.77,3.86-8.63,8.63-8.63h0ZM114.33,50.82c0,2.19-1.78,3.98-3.97,3.98s-3.97-1.78-3.97-3.98h2.33c0,.91.74,1.65,1.65,1.65s1.65-.74,1.65-1.65h2.33ZM110.36,44.52c3.48,0,6.3,2.82,6.3,6.3s-2.79,6.27-6.25,6.3h-.11c-3.46-.03-6.25-2.84-6.25-6.3s2.82-6.3,6.3-6.3h0ZM27.07,50.82c0,2.19-1.78,3.98-3.97,3.98s-3.98-1.78-3.98-3.98h2.33c0,.91.74,1.65,1.65,1.65s1.65-.74,1.65-1.65h2.33ZM23.09,44.52c3.48,0,6.3,2.82,6.3,6.3s-2.79,6.27-6.25,6.3h-.11c-3.46-.03-6.25-2.84-6.25-6.3s2.82-6.3,6.3-6.3h0ZM2.33,47.91l3.29,3.29h4.19c0-.13,0-.26,0-.38,0-7.33,5.95-13.28,13.28-13.28s13.28,5.95,13.28,13.28c0,.13,0,.26,0,.38h60.71c0-.13,0-.26,0-.38,0-7.33,5.95-13.28,13.28-13.28s13.26,5.93,13.28,13.24l2.03-1.01v-8.52l-6.98-2.33v-6.33h1.36l-.34-.34-10.78-4.31h-3.24l-2.53,2.53-25.18-5.04-3.51-3.51v-10.27h-.38l.38-.13v-2.2h6.6l10.03-3.34-1.54-1.54-8.41-2.1H10.27l-3.52,3.52-2.1,8.41v9.02h35.87l6.98,6.98H4.65v9.31h2.33v6.98H2.33v1.36h0Z"/>
  </g>
</svg>